M48
; DRILL file {KiCad (5.1.4)-1} date 25/11/2020 10:34:29
; FORMAT={-:-/ absolute / inch / decimal}
; #@! TF.CreationDate,2020-11-25T10:34:29+01:00
; #@! TF.GenerationSoftware,Kicad,Pcbnew,(5.1.4)-1
FMAT,2
INCH
T1C0.0157
T2C0.0276
T3C0.0315
T4C0.0394
T5C0.0591
T6C0.1260
%
G90
G05
T1
X4.8618Y-4.4016
X5.3189Y-4.3
X5.4563Y-4.3311
X5.4677Y-4.2496
X6.7839Y-4.3894
T2
X5.4248Y-3.852
X5.6248Y-3.852
X6.2083Y-4.0531
X6.2083Y-4.2531
X5.7535Y-3.852
X5.9535Y-3.852
X6.0776Y-3.8531
X6.2776Y-3.8531
T3
X5.9807Y-4.728
X6.2807Y-4.728
X5.9799Y-4.498
X6.2799Y-4.498
X5.674Y-3.5295
X5.674Y-3.628
X5.7528Y-3.5295
X5.7528Y-3.628
X5.8315Y-3.5295
X5.8315Y-3.628
X5.9102Y-3.5295
X5.9102Y-3.628
X5.989Y-3.5295
X5.989Y-3.628
X6.0677Y-3.5295
X6.0677Y-3.628
X5.3831Y-4.7291
X5.6831Y-4.7291
X5.3811Y-4.4969
X5.6811Y-4.4969
X5.6965Y-3.9898
X5.6965Y-4.2898
X5.7965Y-3.9898
X5.7965Y-4.2898
X5.8965Y-3.9898
X5.8965Y-4.2898
X5.9965Y-3.9898
X5.9965Y-4.2898
T4
X6.4943Y-3.9705
X6.4943Y-4.0606
X6.4943Y-4.1508
X6.4943Y-4.2409
X6.4943Y-4.3311
X6.5821Y-3.9254
X6.5821Y-4.0156
X6.5821Y-4.1057
X6.5821Y-4.1959
X6.5821Y-4.286
X6.6709Y-3.9705
X6.6709Y-4.0606
X6.6709Y-4.1508
X6.6709Y-4.2409
X6.6709Y-4.3311
X5.0217Y-3.9524
X5.0217Y-4.0425
X5.0217Y-4.1327
X5.0217Y-4.2228
X5.0217Y-4.313
X5.1104Y-3.9974
X5.1104Y-4.0876
X5.1104Y-4.1778
X5.1104Y-4.2679
X5.1104Y-4.3581
X5.1982Y-3.9524
X5.1982Y-4.0425
X5.1982Y-4.1327
X5.1982Y-4.2228
X5.1982Y-4.313
T5
X5.6031Y-3.4626
X6.1386Y-3.6949
T6
X6.5709Y-3.6482
X6.5709Y-4.6325
X5.1217Y-3.651
X5.1217Y-4.6352
T0
M30
