G04 #@! TF.GenerationSoftware,KiCad,Pcbnew,(5.1.4)-1*
G04 #@! TF.CreationDate,2020-11-25T10:34:19+01:00*
G04 #@! TF.ProjectId,MonochromeVGA,4d6f6e6f-6368-4726-9f6d-655647412e6b,rev?*
G04 #@! TF.SameCoordinates,Original*
G04 #@! TF.FileFunction,Copper,L2,Bot*
G04 #@! TF.FilePolarity,Positive*
%FSLAX46Y46*%
G04 Gerber Fmt 4.6, Leading zero omitted, Abs format (unit mm)*
G04 Created by KiCad (PCBNEW (5.1.4)-1) date 2020-11-25 10:34:19*
%MOMM*%
%LPD*%
G04 APERTURE LIST*
%ADD10C,4.000000*%
%ADD11C,1.600000*%
%ADD12R,1.600000X1.600000*%
%ADD13O,1.600000X1.600000*%
%ADD14C,2.500000*%
%ADD15O,1.400000X1.400000*%
%ADD16C,1.400000*%
%ADD17C,0.800000*%
%ADD18C,0.250000*%
%ADD19C,0.254000*%
G04 APERTURE END LIST*
D10*
X130090000Y-117735000D03*
X130090000Y-92735000D03*
D11*
X127550000Y-100390000D03*
X127550000Y-102680000D03*
X127550000Y-104970000D03*
X127550000Y-107260000D03*
X127550000Y-109550000D03*
X129805000Y-101535000D03*
X129805000Y-103825000D03*
X129805000Y-106115000D03*
X129805000Y-108405000D03*
X129805000Y-110695000D03*
X132035000Y-100390000D03*
X132035000Y-102680000D03*
X132035000Y-104970000D03*
X132035000Y-107260000D03*
D12*
X132035000Y-109550000D03*
D10*
X166900000Y-92665000D03*
X166900000Y-117665000D03*
D11*
X169440000Y-110010000D03*
X169440000Y-107720000D03*
X169440000Y-105430000D03*
X169440000Y-103140000D03*
X169440000Y-100850000D03*
X167185000Y-108865000D03*
X167185000Y-106575000D03*
X167185000Y-104285000D03*
X167185000Y-101995000D03*
X167185000Y-99705000D03*
X164955000Y-110010000D03*
X164955000Y-107720000D03*
X164955000Y-105430000D03*
X164955000Y-103140000D03*
D12*
X164955000Y-100850000D03*
X151910000Y-120090000D03*
D13*
X159530000Y-120090000D03*
D12*
X136730000Y-120120000D03*
D13*
X144350000Y-120120000D03*
D12*
X136680000Y-114220000D03*
D13*
X144300000Y-114220000D03*
D12*
X151890000Y-114250000D03*
D13*
X159510000Y-114250000D03*
X144690000Y-101340000D03*
X152310000Y-108960000D03*
X147230000Y-101340000D03*
X149770000Y-108960000D03*
X149770000Y-101340000D03*
X147230000Y-108960000D03*
X152310000Y-101340000D03*
D12*
X144690000Y-108960000D03*
D11*
X144120000Y-89650000D03*
X146120000Y-89650000D03*
X148120000Y-89650000D03*
X150120000Y-89650000D03*
X152120000Y-89650000D03*
X154120000Y-89650000D03*
X144120000Y-92150000D03*
X146120000Y-92150000D03*
X148120000Y-92150000D03*
X150120000Y-92150000D03*
X152120000Y-92150000D03*
X154120000Y-92150000D03*
D14*
X142320000Y-87950000D03*
X155920000Y-93850000D03*
D15*
X157690000Y-102950000D03*
D16*
X157690000Y-108030000D03*
D15*
X159450000Y-97870000D03*
D16*
X154370000Y-97870000D03*
D15*
X142870000Y-97840000D03*
D16*
X137790000Y-97840000D03*
D15*
X151220000Y-97840000D03*
D16*
X146140000Y-97840000D03*
D17*
X123490000Y-111800000D03*
X138590000Y-110010000D03*
X135100000Y-109220000D03*
X138880000Y-107940000D03*
X172310000Y-111490000D03*
D18*
X144350000Y-114270000D02*
X144300000Y-114220000D01*
X159510000Y-120070000D02*
X159530000Y-120090000D01*
X143640000Y-108960000D02*
X144690000Y-108960000D01*
X140890000Y-108960000D02*
X143640000Y-108960000D01*
X136680000Y-113170000D02*
X140890000Y-108960000D01*
X136680000Y-114220000D02*
X136680000Y-113170000D01*
X151890000Y-113200000D02*
X151080000Y-112390000D01*
X151890000Y-114250000D02*
X151890000Y-113200000D01*
X151080000Y-112390000D02*
X151080000Y-107900000D01*
X151080000Y-107900000D02*
X150410000Y-107230000D01*
X150410000Y-107230000D02*
X147580000Y-107230000D01*
X147230000Y-107580000D02*
X147230000Y-108960000D01*
X147580000Y-107230000D02*
X147230000Y-107580000D01*
X149770000Y-110940000D02*
X149770000Y-110630000D01*
X136730000Y-120120000D02*
X136730000Y-119070000D01*
X149770000Y-110630000D02*
X149770000Y-108960000D01*
X140430000Y-115370000D02*
X140430000Y-112600000D01*
X140430000Y-112600000D02*
X141380000Y-111650000D01*
X141380000Y-111650000D02*
X149060000Y-111650000D01*
X136730000Y-119070000D02*
X140430000Y-115370000D01*
X149060000Y-111650000D02*
X149770000Y-110940000D01*
X151910000Y-119040000D02*
X155650000Y-115300000D01*
X151910000Y-120090000D02*
X151910000Y-119040000D01*
X155650000Y-115300000D02*
X155650000Y-110250000D01*
X154360000Y-108960000D02*
X152310000Y-108960000D01*
X155650000Y-110250000D02*
X154360000Y-108960000D01*
X132035000Y-104970000D02*
X133890000Y-104970000D01*
X133890000Y-104970000D02*
X135110000Y-103750000D01*
X135110000Y-103750000D02*
X135110000Y-91800000D01*
X135110000Y-91800000D02*
X136000000Y-90910000D01*
X150860000Y-90910000D02*
X152120000Y-89650000D01*
X136000000Y-90910000D02*
X150860000Y-90910000D01*
X123490000Y-111800000D02*
X123490000Y-103790000D01*
X130903630Y-102680000D02*
X132035000Y-102680000D01*
X129284998Y-102680000D02*
X130903630Y-102680000D01*
X128159997Y-101554999D02*
X129284998Y-102680000D01*
X125725001Y-101554999D02*
X128159997Y-101554999D01*
X123490000Y-103790000D02*
X125725001Y-101554999D01*
X167185000Y-92950000D02*
X166900000Y-92665000D01*
X167185000Y-99705000D02*
X167185000Y-92950000D01*
X167185000Y-106575000D02*
X163184990Y-106575000D01*
X163184990Y-106575000D02*
X160579990Y-109180000D01*
X160579990Y-109180000D02*
X156860000Y-109180000D01*
X156860000Y-109180000D02*
X153760000Y-106080000D01*
X153760000Y-106080000D02*
X146480000Y-106080000D01*
X130604999Y-104624999D02*
X129805000Y-103825000D01*
X130604999Y-105205001D02*
X130604999Y-104624999D01*
X131494999Y-106095001D02*
X130604999Y-105205001D01*
X146464999Y-106095001D02*
X131494999Y-106095001D01*
X146480000Y-106080000D02*
X146464999Y-106095001D01*
X127550000Y-109550000D02*
X127550000Y-111100000D01*
X128270001Y-111820001D02*
X134819999Y-111820001D01*
X127550000Y-111100000D02*
X128270001Y-111820001D01*
X134819999Y-111820001D02*
X136630000Y-110010000D01*
X136630000Y-110010000D02*
X138590000Y-110010000D01*
X138590000Y-110010000D02*
X138590000Y-110010000D01*
X135100000Y-109220000D02*
X137600000Y-109220000D01*
X137600000Y-109220000D02*
X138880000Y-107940000D01*
X138880000Y-107940000D02*
X138880000Y-107940000D01*
X170571370Y-105430000D02*
X171380000Y-106238630D01*
X169440000Y-105430000D02*
X170571370Y-105430000D01*
X171380000Y-106238630D02*
X171380000Y-119450000D01*
X171380000Y-119450000D02*
X168620000Y-122210000D01*
X168620000Y-122210000D02*
X126000000Y-122210000D01*
X126000000Y-122210000D02*
X124580000Y-120790000D01*
X124580000Y-120790000D02*
X124580000Y-106210000D01*
X125820000Y-104970000D02*
X127550000Y-104970000D01*
X124580000Y-106210000D02*
X125820000Y-104970000D01*
X128349999Y-103479999D02*
X127550000Y-102680000D01*
X128675001Y-106650003D02*
X128675001Y-103805001D01*
X129264999Y-107240001D02*
X128675001Y-106650003D01*
X130305003Y-107240001D02*
X129264999Y-107240001D01*
X128675001Y-103805001D02*
X128349999Y-103479999D01*
X131450003Y-108385001D02*
X130305003Y-107240001D01*
X136114999Y-108385001D02*
X131450003Y-108385001D01*
X153080000Y-106600000D02*
X137900000Y-106600000D01*
X166620002Y-107720000D02*
X165455003Y-108884999D01*
X169440000Y-107720000D02*
X166620002Y-107720000D01*
X165455003Y-108884999D02*
X161915001Y-108884999D01*
X137900000Y-106600000D02*
X136114999Y-108385001D01*
X161915001Y-108884999D02*
X161160000Y-109640000D01*
X161160000Y-109640000D02*
X156120000Y-109640000D01*
X156120000Y-109640000D02*
X153080000Y-106600000D01*
X127550000Y-100390000D02*
X124590000Y-100390000D01*
X124590000Y-100390000D02*
X120700000Y-104280000D01*
X120700000Y-104280000D02*
X120700000Y-120300000D01*
X120700000Y-120300000D02*
X123450000Y-123050000D01*
X123450000Y-123050000D02*
X161040000Y-123050000D01*
X161040000Y-123050000D02*
X170700000Y-123050000D01*
X170700000Y-123050000D02*
X172310000Y-121440000D01*
X172310000Y-121440000D02*
X172310000Y-111490000D01*
X172310000Y-111490000D02*
X172310000Y-111490000D01*
X146340000Y-99690000D02*
X144690000Y-101340000D01*
X149870000Y-99690000D02*
X146340000Y-99690000D01*
X151040000Y-100860000D02*
X149870000Y-99690000D01*
X151040000Y-101735002D02*
X151040000Y-100860000D01*
X152144998Y-102840000D02*
X151040000Y-101735002D01*
X152790000Y-93480000D02*
X152790000Y-99350000D01*
X152790000Y-99350000D02*
X154050000Y-100610000D01*
X154050000Y-100610000D02*
X154050000Y-102230000D01*
X154050000Y-102230000D02*
X153440000Y-102840000D01*
X154120000Y-92150000D02*
X152790000Y-93480000D01*
X153440000Y-102840000D02*
X152144998Y-102840000D01*
X148120000Y-97150000D02*
X152310000Y-101340000D01*
X148120000Y-92150000D02*
X148120000Y-97150000D01*
X149770000Y-102471370D02*
X149760000Y-102481370D01*
X149770000Y-101340000D02*
X149770000Y-102471370D01*
X149760000Y-102481370D02*
X149760000Y-104900000D01*
X149760000Y-104900000D02*
X150290000Y-105430000D01*
X155251370Y-89650000D02*
X155261370Y-89660000D01*
X154120000Y-89650000D02*
X155251370Y-89650000D01*
X155261370Y-89660000D02*
X156760000Y-89660000D01*
X156760000Y-89660000D02*
X157760000Y-90660000D01*
X157760000Y-100420000D02*
X152750000Y-105430000D01*
X157760000Y-90660000D02*
X157760000Y-100420000D01*
X150290000Y-105430000D02*
X152750000Y-105430000D01*
X152750000Y-105430000D02*
X164955000Y-105430000D01*
X150120000Y-96740000D02*
X151220000Y-97840000D01*
X150120000Y-92150000D02*
X150120000Y-96740000D01*
X144120000Y-96590000D02*
X142870000Y-97840000D01*
X144120000Y-92150000D02*
X144120000Y-96590000D01*
D19*
G36*
X177676055Y-87139834D02*
G01*
X177670046Y-122866574D01*
X177626620Y-122910000D01*
X171914801Y-122910000D01*
X172821004Y-122003798D01*
X172850001Y-121980001D01*
X172944974Y-121864276D01*
X173015546Y-121732247D01*
X173059003Y-121588986D01*
X173070000Y-121477333D01*
X173070000Y-121477323D01*
X173073676Y-121440000D01*
X173070000Y-121402677D01*
X173070000Y-112193711D01*
X173113937Y-112149774D01*
X173227205Y-111980256D01*
X173305226Y-111791898D01*
X173345000Y-111591939D01*
X173345000Y-111388061D01*
X173305226Y-111188102D01*
X173227205Y-110999744D01*
X173113937Y-110830226D01*
X172969774Y-110686063D01*
X172800256Y-110572795D01*
X172611898Y-110494774D01*
X172411939Y-110455000D01*
X172208061Y-110455000D01*
X172140000Y-110468538D01*
X172140000Y-106275963D01*
X172143677Y-106238630D01*
X172129003Y-106089644D01*
X172085546Y-105946383D01*
X172014974Y-105814354D01*
X171943799Y-105727627D01*
X171920001Y-105698629D01*
X171891004Y-105674832D01*
X171135173Y-104919002D01*
X171111371Y-104889999D01*
X170995646Y-104795026D01*
X170863617Y-104724454D01*
X170720356Y-104680997D01*
X170661519Y-104675202D01*
X170554637Y-104515241D01*
X170354759Y-104315363D01*
X170309317Y-104285000D01*
X170354759Y-104254637D01*
X170554637Y-104054759D01*
X170711680Y-103819727D01*
X170819853Y-103558574D01*
X170875000Y-103281335D01*
X170875000Y-102998665D01*
X170819853Y-102721426D01*
X170711680Y-102460273D01*
X170554637Y-102225241D01*
X170354759Y-102025363D01*
X170309317Y-101995000D01*
X170354759Y-101964637D01*
X170554637Y-101764759D01*
X170711680Y-101529727D01*
X170819853Y-101268574D01*
X170875000Y-100991335D01*
X170875000Y-100708665D01*
X170819853Y-100431426D01*
X170711680Y-100170273D01*
X170554637Y-99935241D01*
X170354759Y-99735363D01*
X170119727Y-99578320D01*
X169858574Y-99470147D01*
X169581335Y-99415000D01*
X169298665Y-99415000D01*
X169021426Y-99470147D01*
X168760273Y-99578320D01*
X168623480Y-99669722D01*
X168625217Y-99634488D01*
X168583787Y-99354870D01*
X168488603Y-99088708D01*
X168421671Y-98963486D01*
X168177702Y-98891903D01*
X167364605Y-99705000D01*
X167378748Y-99719143D01*
X167199143Y-99898748D01*
X167185000Y-99884605D01*
X167170858Y-99898748D01*
X166991253Y-99719143D01*
X167005395Y-99705000D01*
X166192298Y-98891903D01*
X165948329Y-98963486D01*
X165827429Y-99218996D01*
X165778488Y-99414241D01*
X165755000Y-99411928D01*
X164155000Y-99411928D01*
X164030518Y-99424188D01*
X163910820Y-99460498D01*
X163800506Y-99519463D01*
X163703815Y-99598815D01*
X163624463Y-99695506D01*
X163565498Y-99805820D01*
X163529188Y-99925518D01*
X163516928Y-100050000D01*
X163516928Y-101650000D01*
X163529188Y-101774482D01*
X163565498Y-101894180D01*
X163624463Y-102004494D01*
X163703815Y-102101185D01*
X163800506Y-102180537D01*
X163855612Y-102209992D01*
X163840363Y-102225241D01*
X163683320Y-102460273D01*
X163575147Y-102721426D01*
X163520000Y-102998665D01*
X163520000Y-103281335D01*
X163575147Y-103558574D01*
X163683320Y-103819727D01*
X163840363Y-104054759D01*
X164040241Y-104254637D01*
X164085683Y-104285000D01*
X164040241Y-104315363D01*
X163840363Y-104515241D01*
X163736957Y-104670000D01*
X154584801Y-104670000D01*
X156353320Y-102901482D01*
X156348541Y-102950000D01*
X156374317Y-103211706D01*
X156450653Y-103463354D01*
X156574618Y-103695275D01*
X156741445Y-103898555D01*
X156944725Y-104065382D01*
X157176646Y-104189347D01*
X157428294Y-104265683D01*
X157624421Y-104285000D01*
X157755579Y-104285000D01*
X157951706Y-104265683D01*
X158203354Y-104189347D01*
X158435275Y-104065382D01*
X158638555Y-103898555D01*
X158805382Y-103695275D01*
X158929347Y-103463354D01*
X159005683Y-103211706D01*
X159031459Y-102950000D01*
X159005683Y-102688294D01*
X158929347Y-102436646D01*
X158805382Y-102204725D01*
X158638555Y-102001445D01*
X158435275Y-101834618D01*
X158203354Y-101710653D01*
X157951706Y-101634317D01*
X157755579Y-101615000D01*
X157639802Y-101615000D01*
X158271003Y-100983799D01*
X158300001Y-100960001D01*
X158326332Y-100927917D01*
X158394974Y-100844277D01*
X158465546Y-100712247D01*
X158488241Y-100637429D01*
X158509003Y-100568986D01*
X158520000Y-100457333D01*
X158520000Y-100457323D01*
X158523676Y-100420000D01*
X158520000Y-100382677D01*
X158520000Y-98833783D01*
X158704725Y-98985382D01*
X158936646Y-99109347D01*
X159188294Y-99185683D01*
X159384421Y-99205000D01*
X159515579Y-99205000D01*
X159711706Y-99185683D01*
X159963354Y-99109347D01*
X160195275Y-98985382D01*
X160398555Y-98818555D01*
X160485757Y-98712298D01*
X166371903Y-98712298D01*
X167185000Y-99525395D01*
X167998097Y-98712298D01*
X167926514Y-98468329D01*
X167671004Y-98347429D01*
X167396816Y-98278700D01*
X167114488Y-98264783D01*
X166834870Y-98306213D01*
X166568708Y-98401397D01*
X166443486Y-98468329D01*
X166371903Y-98712298D01*
X160485757Y-98712298D01*
X160565382Y-98615275D01*
X160689347Y-98383354D01*
X160765683Y-98131706D01*
X160791459Y-97870000D01*
X160765683Y-97608294D01*
X160689347Y-97356646D01*
X160565382Y-97124725D01*
X160398555Y-96921445D01*
X160195275Y-96754618D01*
X159963354Y-96630653D01*
X159711706Y-96554317D01*
X159515579Y-96535000D01*
X159384421Y-96535000D01*
X159188294Y-96554317D01*
X158936646Y-96630653D01*
X158704725Y-96754618D01*
X158520000Y-96906217D01*
X158520000Y-94512499D01*
X165232106Y-94512499D01*
X165448228Y-94879258D01*
X165908105Y-95119938D01*
X166406098Y-95266275D01*
X166923071Y-95312648D01*
X167439159Y-95257273D01*
X167934526Y-95102279D01*
X168351772Y-94879258D01*
X168567894Y-94512499D01*
X166900000Y-92844605D01*
X165232106Y-94512499D01*
X158520000Y-94512499D01*
X158520000Y-92688071D01*
X164252352Y-92688071D01*
X164307727Y-93204159D01*
X164462721Y-93699526D01*
X164685742Y-94116772D01*
X165052501Y-94332894D01*
X166720395Y-92665000D01*
X167079605Y-92665000D01*
X168747499Y-94332894D01*
X169114258Y-94116772D01*
X169354938Y-93656895D01*
X169501275Y-93158902D01*
X169547648Y-92641929D01*
X169492273Y-92125841D01*
X169337279Y-91630474D01*
X169114258Y-91213228D01*
X168747499Y-90997106D01*
X167079605Y-92665000D01*
X166720395Y-92665000D01*
X165052501Y-90997106D01*
X164685742Y-91213228D01*
X164445062Y-91673105D01*
X164298725Y-92171098D01*
X164252352Y-92688071D01*
X158520000Y-92688071D01*
X158520000Y-90817501D01*
X165232106Y-90817501D01*
X166900000Y-92485395D01*
X168567894Y-90817501D01*
X168351772Y-90450742D01*
X167891895Y-90210062D01*
X167393902Y-90063725D01*
X166876929Y-90017352D01*
X166360841Y-90072727D01*
X165865474Y-90227721D01*
X165448228Y-90450742D01*
X165232106Y-90817501D01*
X158520000Y-90817501D01*
X158520000Y-90697333D01*
X158523677Y-90660000D01*
X158509003Y-90511014D01*
X158465546Y-90367753D01*
X158394974Y-90235724D01*
X158323799Y-90148997D01*
X158300001Y-90119999D01*
X158271004Y-90096202D01*
X157323804Y-89149002D01*
X157300001Y-89119999D01*
X157184276Y-89025026D01*
X157052247Y-88954454D01*
X156908986Y-88910997D01*
X156797333Y-88900000D01*
X156797322Y-88900000D01*
X156760000Y-88896324D01*
X156722678Y-88900000D01*
X155390233Y-88900000D01*
X155341519Y-88895202D01*
X155234637Y-88735241D01*
X155034759Y-88535363D01*
X154799727Y-88378320D01*
X154538574Y-88270147D01*
X154261335Y-88215000D01*
X153978665Y-88215000D01*
X153701426Y-88270147D01*
X153440273Y-88378320D01*
X153205241Y-88535363D01*
X153120000Y-88620604D01*
X153034759Y-88535363D01*
X152799727Y-88378320D01*
X152538574Y-88270147D01*
X152261335Y-88215000D01*
X151978665Y-88215000D01*
X151701426Y-88270147D01*
X151440273Y-88378320D01*
X151205241Y-88535363D01*
X151120000Y-88620604D01*
X151034759Y-88535363D01*
X150799727Y-88378320D01*
X150538574Y-88270147D01*
X150261335Y-88215000D01*
X149978665Y-88215000D01*
X149701426Y-88270147D01*
X149440273Y-88378320D01*
X149205241Y-88535363D01*
X149120000Y-88620604D01*
X149034759Y-88535363D01*
X148799727Y-88378320D01*
X148538574Y-88270147D01*
X148261335Y-88215000D01*
X147978665Y-88215000D01*
X147701426Y-88270147D01*
X147440273Y-88378320D01*
X147205241Y-88535363D01*
X147120000Y-88620604D01*
X147034759Y-88535363D01*
X146799727Y-88378320D01*
X146538574Y-88270147D01*
X146261335Y-88215000D01*
X145978665Y-88215000D01*
X145701426Y-88270147D01*
X145440273Y-88378320D01*
X145205241Y-88535363D01*
X145120000Y-88620604D01*
X145034759Y-88535363D01*
X144799727Y-88378320D01*
X144538574Y-88270147D01*
X144261335Y-88215000D01*
X144189218Y-88215000D01*
X144205000Y-88135656D01*
X144205000Y-87764344D01*
X144132561Y-87400166D01*
X144006613Y-87096100D01*
X177633107Y-87096100D01*
X177676055Y-87139834D01*
X177676055Y-87139834D01*
G37*
X177676055Y-87139834D02*
X177670046Y-122866574D01*
X177626620Y-122910000D01*
X171914801Y-122910000D01*
X172821004Y-122003798D01*
X172850001Y-121980001D01*
X172944974Y-121864276D01*
X173015546Y-121732247D01*
X173059003Y-121588986D01*
X173070000Y-121477333D01*
X173070000Y-121477323D01*
X173073676Y-121440000D01*
X173070000Y-121402677D01*
X173070000Y-112193711D01*
X173113937Y-112149774D01*
X173227205Y-111980256D01*
X173305226Y-111791898D01*
X173345000Y-111591939D01*
X173345000Y-111388061D01*
X173305226Y-111188102D01*
X173227205Y-110999744D01*
X173113937Y-110830226D01*
X172969774Y-110686063D01*
X172800256Y-110572795D01*
X172611898Y-110494774D01*
X172411939Y-110455000D01*
X172208061Y-110455000D01*
X172140000Y-110468538D01*
X172140000Y-106275963D01*
X172143677Y-106238630D01*
X172129003Y-106089644D01*
X172085546Y-105946383D01*
X172014974Y-105814354D01*
X171943799Y-105727627D01*
X171920001Y-105698629D01*
X171891004Y-105674832D01*
X171135173Y-104919002D01*
X171111371Y-104889999D01*
X170995646Y-104795026D01*
X170863617Y-104724454D01*
X170720356Y-104680997D01*
X170661519Y-104675202D01*
X170554637Y-104515241D01*
X170354759Y-104315363D01*
X170309317Y-104285000D01*
X170354759Y-104254637D01*
X170554637Y-104054759D01*
X170711680Y-103819727D01*
X170819853Y-103558574D01*
X170875000Y-103281335D01*
X170875000Y-102998665D01*
X170819853Y-102721426D01*
X170711680Y-102460273D01*
X170554637Y-102225241D01*
X170354759Y-102025363D01*
X170309317Y-101995000D01*
X170354759Y-101964637D01*
X170554637Y-101764759D01*
X170711680Y-101529727D01*
X170819853Y-101268574D01*
X170875000Y-100991335D01*
X170875000Y-100708665D01*
X170819853Y-100431426D01*
X170711680Y-100170273D01*
X170554637Y-99935241D01*
X170354759Y-99735363D01*
X170119727Y-99578320D01*
X169858574Y-99470147D01*
X169581335Y-99415000D01*
X169298665Y-99415000D01*
X169021426Y-99470147D01*
X168760273Y-99578320D01*
X168623480Y-99669722D01*
X168625217Y-99634488D01*
X168583787Y-99354870D01*
X168488603Y-99088708D01*
X168421671Y-98963486D01*
X168177702Y-98891903D01*
X167364605Y-99705000D01*
X167378748Y-99719143D01*
X167199143Y-99898748D01*
X167185000Y-99884605D01*
X167170858Y-99898748D01*
X166991253Y-99719143D01*
X167005395Y-99705000D01*
X166192298Y-98891903D01*
X165948329Y-98963486D01*
X165827429Y-99218996D01*
X165778488Y-99414241D01*
X165755000Y-99411928D01*
X164155000Y-99411928D01*
X164030518Y-99424188D01*
X163910820Y-99460498D01*
X163800506Y-99519463D01*
X163703815Y-99598815D01*
X163624463Y-99695506D01*
X163565498Y-99805820D01*
X163529188Y-99925518D01*
X163516928Y-100050000D01*
X163516928Y-101650000D01*
X163529188Y-101774482D01*
X163565498Y-101894180D01*
X163624463Y-102004494D01*
X163703815Y-102101185D01*
X163800506Y-102180537D01*
X163855612Y-102209992D01*
X163840363Y-102225241D01*
X163683320Y-102460273D01*
X163575147Y-102721426D01*
X163520000Y-102998665D01*
X163520000Y-103281335D01*
X163575147Y-103558574D01*
X163683320Y-103819727D01*
X163840363Y-104054759D01*
X164040241Y-104254637D01*
X164085683Y-104285000D01*
X164040241Y-104315363D01*
X163840363Y-104515241D01*
X163736957Y-104670000D01*
X154584801Y-104670000D01*
X156353320Y-102901482D01*
X156348541Y-102950000D01*
X156374317Y-103211706D01*
X156450653Y-103463354D01*
X156574618Y-103695275D01*
X156741445Y-103898555D01*
X156944725Y-104065382D01*
X157176646Y-104189347D01*
X157428294Y-104265683D01*
X157624421Y-104285000D01*
X157755579Y-104285000D01*
X157951706Y-104265683D01*
X158203354Y-104189347D01*
X158435275Y-104065382D01*
X158638555Y-103898555D01*
X158805382Y-103695275D01*
X158929347Y-103463354D01*
X159005683Y-103211706D01*
X159031459Y-102950000D01*
X159005683Y-102688294D01*
X158929347Y-102436646D01*
X158805382Y-102204725D01*
X158638555Y-102001445D01*
X158435275Y-101834618D01*
X158203354Y-101710653D01*
X157951706Y-101634317D01*
X157755579Y-101615000D01*
X157639802Y-101615000D01*
X158271003Y-100983799D01*
X158300001Y-100960001D01*
X158326332Y-100927917D01*
X158394974Y-100844277D01*
X158465546Y-100712247D01*
X158488241Y-100637429D01*
X158509003Y-100568986D01*
X158520000Y-100457333D01*
X158520000Y-100457323D01*
X158523676Y-100420000D01*
X158520000Y-100382677D01*
X158520000Y-98833783D01*
X158704725Y-98985382D01*
X158936646Y-99109347D01*
X159188294Y-99185683D01*
X159384421Y-99205000D01*
X159515579Y-99205000D01*
X159711706Y-99185683D01*
X159963354Y-99109347D01*
X160195275Y-98985382D01*
X160398555Y-98818555D01*
X160485757Y-98712298D01*
X166371903Y-98712298D01*
X167185000Y-99525395D01*
X167998097Y-98712298D01*
X167926514Y-98468329D01*
X167671004Y-98347429D01*
X167396816Y-98278700D01*
X167114488Y-98264783D01*
X166834870Y-98306213D01*
X166568708Y-98401397D01*
X166443486Y-98468329D01*
X166371903Y-98712298D01*
X160485757Y-98712298D01*
X160565382Y-98615275D01*
X160689347Y-98383354D01*
X160765683Y-98131706D01*
X160791459Y-97870000D01*
X160765683Y-97608294D01*
X160689347Y-97356646D01*
X160565382Y-97124725D01*
X160398555Y-96921445D01*
X160195275Y-96754618D01*
X159963354Y-96630653D01*
X159711706Y-96554317D01*
X159515579Y-96535000D01*
X159384421Y-96535000D01*
X159188294Y-96554317D01*
X158936646Y-96630653D01*
X158704725Y-96754618D01*
X158520000Y-96906217D01*
X158520000Y-94512499D01*
X165232106Y-94512499D01*
X165448228Y-94879258D01*
X165908105Y-95119938D01*
X166406098Y-95266275D01*
X166923071Y-95312648D01*
X167439159Y-95257273D01*
X167934526Y-95102279D01*
X168351772Y-94879258D01*
X168567894Y-94512499D01*
X166900000Y-92844605D01*
X165232106Y-94512499D01*
X158520000Y-94512499D01*
X158520000Y-92688071D01*
X164252352Y-92688071D01*
X164307727Y-93204159D01*
X164462721Y-93699526D01*
X164685742Y-94116772D01*
X165052501Y-94332894D01*
X166720395Y-92665000D01*
X167079605Y-92665000D01*
X168747499Y-94332894D01*
X169114258Y-94116772D01*
X169354938Y-93656895D01*
X169501275Y-93158902D01*
X169547648Y-92641929D01*
X169492273Y-92125841D01*
X169337279Y-91630474D01*
X169114258Y-91213228D01*
X168747499Y-90997106D01*
X167079605Y-92665000D01*
X166720395Y-92665000D01*
X165052501Y-90997106D01*
X164685742Y-91213228D01*
X164445062Y-91673105D01*
X164298725Y-92171098D01*
X164252352Y-92688071D01*
X158520000Y-92688071D01*
X158520000Y-90817501D01*
X165232106Y-90817501D01*
X166900000Y-92485395D01*
X168567894Y-90817501D01*
X168351772Y-90450742D01*
X167891895Y-90210062D01*
X167393902Y-90063725D01*
X166876929Y-90017352D01*
X166360841Y-90072727D01*
X165865474Y-90227721D01*
X165448228Y-90450742D01*
X165232106Y-90817501D01*
X158520000Y-90817501D01*
X158520000Y-90697333D01*
X158523677Y-90660000D01*
X158509003Y-90511014D01*
X158465546Y-90367753D01*
X158394974Y-90235724D01*
X158323799Y-90148997D01*
X158300001Y-90119999D01*
X158271004Y-90096202D01*
X157323804Y-89149002D01*
X157300001Y-89119999D01*
X157184276Y-89025026D01*
X157052247Y-88954454D01*
X156908986Y-88910997D01*
X156797333Y-88900000D01*
X156797322Y-88900000D01*
X156760000Y-88896324D01*
X156722678Y-88900000D01*
X155390233Y-88900000D01*
X155341519Y-88895202D01*
X155234637Y-88735241D01*
X155034759Y-88535363D01*
X154799727Y-88378320D01*
X154538574Y-88270147D01*
X154261335Y-88215000D01*
X153978665Y-88215000D01*
X153701426Y-88270147D01*
X153440273Y-88378320D01*
X153205241Y-88535363D01*
X153120000Y-88620604D01*
X153034759Y-88535363D01*
X152799727Y-88378320D01*
X152538574Y-88270147D01*
X152261335Y-88215000D01*
X151978665Y-88215000D01*
X151701426Y-88270147D01*
X151440273Y-88378320D01*
X151205241Y-88535363D01*
X151120000Y-88620604D01*
X151034759Y-88535363D01*
X150799727Y-88378320D01*
X150538574Y-88270147D01*
X150261335Y-88215000D01*
X149978665Y-88215000D01*
X149701426Y-88270147D01*
X149440273Y-88378320D01*
X149205241Y-88535363D01*
X149120000Y-88620604D01*
X149034759Y-88535363D01*
X148799727Y-88378320D01*
X148538574Y-88270147D01*
X148261335Y-88215000D01*
X147978665Y-88215000D01*
X147701426Y-88270147D01*
X147440273Y-88378320D01*
X147205241Y-88535363D01*
X147120000Y-88620604D01*
X147034759Y-88535363D01*
X146799727Y-88378320D01*
X146538574Y-88270147D01*
X146261335Y-88215000D01*
X145978665Y-88215000D01*
X145701426Y-88270147D01*
X145440273Y-88378320D01*
X145205241Y-88535363D01*
X145120000Y-88620604D01*
X145034759Y-88535363D01*
X144799727Y-88378320D01*
X144538574Y-88270147D01*
X144261335Y-88215000D01*
X144189218Y-88215000D01*
X144205000Y-88135656D01*
X144205000Y-87764344D01*
X144132561Y-87400166D01*
X144006613Y-87096100D01*
X177633107Y-87096100D01*
X177676055Y-87139834D01*
G36*
X140507439Y-87400166D02*
G01*
X140435000Y-87764344D01*
X140435000Y-88135656D01*
X140507439Y-88499834D01*
X140649534Y-88842882D01*
X140855825Y-89151618D01*
X141118382Y-89414175D01*
X141427118Y-89620466D01*
X141770166Y-89762561D01*
X142134344Y-89835000D01*
X142505656Y-89835000D01*
X142686529Y-89799022D01*
X142740147Y-90068574D01*
X142773875Y-90150000D01*
X136037322Y-90150000D01*
X135999999Y-90146324D01*
X135962676Y-90150000D01*
X135962667Y-90150000D01*
X135851014Y-90160997D01*
X135722433Y-90200001D01*
X135707753Y-90204454D01*
X135575723Y-90275026D01*
X135492083Y-90343668D01*
X135459999Y-90369999D01*
X135436201Y-90398997D01*
X134598998Y-91236201D01*
X134570000Y-91259999D01*
X134546202Y-91288997D01*
X134546201Y-91288998D01*
X134475026Y-91375724D01*
X134404454Y-91507754D01*
X134360998Y-91651015D01*
X134346324Y-91800000D01*
X134350001Y-91837332D01*
X134350000Y-103435198D01*
X133575199Y-104210000D01*
X133253043Y-104210000D01*
X133149637Y-104055241D01*
X132949759Y-103855363D01*
X132904317Y-103825000D01*
X132949759Y-103794637D01*
X133149637Y-103594759D01*
X133306680Y-103359727D01*
X133414853Y-103098574D01*
X133470000Y-102821335D01*
X133470000Y-102538665D01*
X133414853Y-102261426D01*
X133306680Y-102000273D01*
X133149637Y-101765241D01*
X132949759Y-101565363D01*
X132819951Y-101478628D01*
X132848097Y-101382702D01*
X132035000Y-100569605D01*
X132020858Y-100583748D01*
X131841253Y-100404143D01*
X131855395Y-100390000D01*
X132214605Y-100390000D01*
X133027702Y-101203097D01*
X133271671Y-101131514D01*
X133392571Y-100876004D01*
X133461300Y-100601816D01*
X133475217Y-100319488D01*
X133433787Y-100039870D01*
X133338603Y-99773708D01*
X133271671Y-99648486D01*
X133027702Y-99576903D01*
X132214605Y-100390000D01*
X131855395Y-100390000D01*
X131042298Y-99576903D01*
X130798329Y-99648486D01*
X130677429Y-99903996D01*
X130608700Y-100178184D01*
X130594783Y-100460512D01*
X130595480Y-100465213D01*
X130546514Y-100298329D01*
X130291004Y-100177429D01*
X130016816Y-100108700D01*
X129734488Y-100094783D01*
X129454870Y-100136213D01*
X129188708Y-100231397D01*
X129063486Y-100298329D01*
X128991903Y-100542296D01*
X128984327Y-100534720D01*
X128985000Y-100531335D01*
X128985000Y-100248665D01*
X128929853Y-99971426D01*
X128821680Y-99710273D01*
X128664637Y-99475241D01*
X128586694Y-99397298D01*
X131221903Y-99397298D01*
X132035000Y-100210395D01*
X132848097Y-99397298D01*
X132776514Y-99153329D01*
X132521004Y-99032429D01*
X132246816Y-98963700D01*
X131964488Y-98949783D01*
X131684870Y-98991213D01*
X131418708Y-99086397D01*
X131293486Y-99153329D01*
X131221903Y-99397298D01*
X128586694Y-99397298D01*
X128464759Y-99275363D01*
X128229727Y-99118320D01*
X127968574Y-99010147D01*
X127691335Y-98955000D01*
X127408665Y-98955000D01*
X127131426Y-99010147D01*
X126870273Y-99118320D01*
X126635241Y-99275363D01*
X126435363Y-99475241D01*
X126331957Y-99630000D01*
X124627325Y-99630000D01*
X124590000Y-99626324D01*
X124552675Y-99630000D01*
X124552667Y-99630000D01*
X124441014Y-99640997D01*
X124297753Y-99684454D01*
X124165724Y-99755026D01*
X124049999Y-99849999D01*
X124026201Y-99878997D01*
X120189003Y-103716196D01*
X120159999Y-103739999D01*
X120118965Y-103790000D01*
X120065026Y-103855724D01*
X120005903Y-103966335D01*
X119994454Y-103987754D01*
X119950997Y-104131015D01*
X119940000Y-104242668D01*
X119940000Y-104242678D01*
X119936324Y-104280000D01*
X119940000Y-104317322D01*
X119940001Y-120262667D01*
X119936324Y-120300000D01*
X119940001Y-120337333D01*
X119947380Y-120412247D01*
X119950998Y-120448985D01*
X119994454Y-120592246D01*
X120065026Y-120724276D01*
X120131297Y-120805026D01*
X120160000Y-120840001D01*
X120188998Y-120863799D01*
X122235198Y-122910000D01*
X119371023Y-122910000D01*
X119326100Y-122865367D01*
X119326100Y-94582499D01*
X128422106Y-94582499D01*
X128638228Y-94949258D01*
X129098105Y-95189938D01*
X129596098Y-95336275D01*
X130113071Y-95382648D01*
X130629159Y-95327273D01*
X131124526Y-95172279D01*
X131541772Y-94949258D01*
X131757894Y-94582499D01*
X130090000Y-92914605D01*
X128422106Y-94582499D01*
X119326100Y-94582499D01*
X119326100Y-92758071D01*
X127442352Y-92758071D01*
X127497727Y-93274159D01*
X127652721Y-93769526D01*
X127875742Y-94186772D01*
X128242501Y-94402894D01*
X129910395Y-92735000D01*
X130269605Y-92735000D01*
X131937499Y-94402894D01*
X132304258Y-94186772D01*
X132544938Y-93726895D01*
X132691275Y-93228902D01*
X132737648Y-92711929D01*
X132682273Y-92195841D01*
X132527279Y-91700474D01*
X132304258Y-91283228D01*
X131937499Y-91067106D01*
X130269605Y-92735000D01*
X129910395Y-92735000D01*
X128242501Y-91067106D01*
X127875742Y-91283228D01*
X127635062Y-91743105D01*
X127488725Y-92241098D01*
X127442352Y-92758071D01*
X119326100Y-92758071D01*
X119326100Y-90887501D01*
X128422106Y-90887501D01*
X130090000Y-92555395D01*
X131757894Y-90887501D01*
X131541772Y-90520742D01*
X131081895Y-90280062D01*
X130583902Y-90133725D01*
X130066929Y-90087352D01*
X129550841Y-90142727D01*
X129055474Y-90297721D01*
X128638228Y-90520742D01*
X128422106Y-90887501D01*
X119326100Y-90887501D01*
X119326100Y-87143380D01*
X119373379Y-87096100D01*
X140633387Y-87096100D01*
X140507439Y-87400166D01*
X140507439Y-87400166D01*
G37*
X140507439Y-87400166D02*
X140435000Y-87764344D01*
X140435000Y-88135656D01*
X140507439Y-88499834D01*
X140649534Y-88842882D01*
X140855825Y-89151618D01*
X141118382Y-89414175D01*
X141427118Y-89620466D01*
X141770166Y-89762561D01*
X142134344Y-89835000D01*
X142505656Y-89835000D01*
X142686529Y-89799022D01*
X142740147Y-90068574D01*
X142773875Y-90150000D01*
X136037322Y-90150000D01*
X135999999Y-90146324D01*
X135962676Y-90150000D01*
X135962667Y-90150000D01*
X135851014Y-90160997D01*
X135722433Y-90200001D01*
X135707753Y-90204454D01*
X135575723Y-90275026D01*
X135492083Y-90343668D01*
X135459999Y-90369999D01*
X135436201Y-90398997D01*
X134598998Y-91236201D01*
X134570000Y-91259999D01*
X134546202Y-91288997D01*
X134546201Y-91288998D01*
X134475026Y-91375724D01*
X134404454Y-91507754D01*
X134360998Y-91651015D01*
X134346324Y-91800000D01*
X134350001Y-91837332D01*
X134350000Y-103435198D01*
X133575199Y-104210000D01*
X133253043Y-104210000D01*
X133149637Y-104055241D01*
X132949759Y-103855363D01*
X132904317Y-103825000D01*
X132949759Y-103794637D01*
X133149637Y-103594759D01*
X133306680Y-103359727D01*
X133414853Y-103098574D01*
X133470000Y-102821335D01*
X133470000Y-102538665D01*
X133414853Y-102261426D01*
X133306680Y-102000273D01*
X133149637Y-101765241D01*
X132949759Y-101565363D01*
X132819951Y-101478628D01*
X132848097Y-101382702D01*
X132035000Y-100569605D01*
X132020858Y-100583748D01*
X131841253Y-100404143D01*
X131855395Y-100390000D01*
X132214605Y-100390000D01*
X133027702Y-101203097D01*
X133271671Y-101131514D01*
X133392571Y-100876004D01*
X133461300Y-100601816D01*
X133475217Y-100319488D01*
X133433787Y-100039870D01*
X133338603Y-99773708D01*
X133271671Y-99648486D01*
X133027702Y-99576903D01*
X132214605Y-100390000D01*
X131855395Y-100390000D01*
X131042298Y-99576903D01*
X130798329Y-99648486D01*
X130677429Y-99903996D01*
X130608700Y-100178184D01*
X130594783Y-100460512D01*
X130595480Y-100465213D01*
X130546514Y-100298329D01*
X130291004Y-100177429D01*
X130016816Y-100108700D01*
X129734488Y-100094783D01*
X129454870Y-100136213D01*
X129188708Y-100231397D01*
X129063486Y-100298329D01*
X128991903Y-100542296D01*
X128984327Y-100534720D01*
X128985000Y-100531335D01*
X128985000Y-100248665D01*
X128929853Y-99971426D01*
X128821680Y-99710273D01*
X128664637Y-99475241D01*
X128586694Y-99397298D01*
X131221903Y-99397298D01*
X132035000Y-100210395D01*
X132848097Y-99397298D01*
X132776514Y-99153329D01*
X132521004Y-99032429D01*
X132246816Y-98963700D01*
X131964488Y-98949783D01*
X131684870Y-98991213D01*
X131418708Y-99086397D01*
X131293486Y-99153329D01*
X131221903Y-99397298D01*
X128586694Y-99397298D01*
X128464759Y-99275363D01*
X128229727Y-99118320D01*
X127968574Y-99010147D01*
X127691335Y-98955000D01*
X127408665Y-98955000D01*
X127131426Y-99010147D01*
X126870273Y-99118320D01*
X126635241Y-99275363D01*
X126435363Y-99475241D01*
X126331957Y-99630000D01*
X124627325Y-99630000D01*
X124590000Y-99626324D01*
X124552675Y-99630000D01*
X124552667Y-99630000D01*
X124441014Y-99640997D01*
X124297753Y-99684454D01*
X124165724Y-99755026D01*
X124049999Y-99849999D01*
X124026201Y-99878997D01*
X120189003Y-103716196D01*
X120159999Y-103739999D01*
X120118965Y-103790000D01*
X120065026Y-103855724D01*
X120005903Y-103966335D01*
X119994454Y-103987754D01*
X119950997Y-104131015D01*
X119940000Y-104242668D01*
X119940000Y-104242678D01*
X119936324Y-104280000D01*
X119940000Y-104317322D01*
X119940001Y-120262667D01*
X119936324Y-120300000D01*
X119940001Y-120337333D01*
X119947380Y-120412247D01*
X119950998Y-120448985D01*
X119994454Y-120592246D01*
X120065026Y-120724276D01*
X120131297Y-120805026D01*
X120160000Y-120840001D01*
X120188998Y-120863799D01*
X122235198Y-122910000D01*
X119371023Y-122910000D01*
X119326100Y-122865367D01*
X119326100Y-94582499D01*
X128422106Y-94582499D01*
X128638228Y-94949258D01*
X129098105Y-95189938D01*
X129596098Y-95336275D01*
X130113071Y-95382648D01*
X130629159Y-95327273D01*
X131124526Y-95172279D01*
X131541772Y-94949258D01*
X131757894Y-94582499D01*
X130090000Y-92914605D01*
X128422106Y-94582499D01*
X119326100Y-94582499D01*
X119326100Y-92758071D01*
X127442352Y-92758071D01*
X127497727Y-93274159D01*
X127652721Y-93769526D01*
X127875742Y-94186772D01*
X128242501Y-94402894D01*
X129910395Y-92735000D01*
X130269605Y-92735000D01*
X131937499Y-94402894D01*
X132304258Y-94186772D01*
X132544938Y-93726895D01*
X132691275Y-93228902D01*
X132737648Y-92711929D01*
X132682273Y-92195841D01*
X132527279Y-91700474D01*
X132304258Y-91283228D01*
X131937499Y-91067106D01*
X130269605Y-92735000D01*
X129910395Y-92735000D01*
X128242501Y-91067106D01*
X127875742Y-91283228D01*
X127635062Y-91743105D01*
X127488725Y-92241098D01*
X127442352Y-92758071D01*
X119326100Y-92758071D01*
X119326100Y-90887501D01*
X128422106Y-90887501D01*
X130090000Y-92555395D01*
X131757894Y-90887501D01*
X131541772Y-90520742D01*
X131081895Y-90280062D01*
X130583902Y-90133725D01*
X130066929Y-90087352D01*
X129550841Y-90142727D01*
X129055474Y-90297721D01*
X128638228Y-90520742D01*
X128422106Y-90887501D01*
X119326100Y-90887501D01*
X119326100Y-87143380D01*
X119373379Y-87096100D01*
X140633387Y-87096100D01*
X140507439Y-87400166D01*
G36*
X126435363Y-105884759D02*
G01*
X126635241Y-106084637D01*
X126680683Y-106115000D01*
X126635241Y-106145363D01*
X126435363Y-106345241D01*
X126278320Y-106580273D01*
X126170147Y-106841426D01*
X126115000Y-107118665D01*
X126115000Y-107401335D01*
X126170147Y-107678574D01*
X126278320Y-107939727D01*
X126435363Y-108174759D01*
X126635241Y-108374637D01*
X126680683Y-108405000D01*
X126635241Y-108435363D01*
X126435363Y-108635241D01*
X126278320Y-108870273D01*
X126170147Y-109131426D01*
X126115000Y-109408665D01*
X126115000Y-109691335D01*
X126170147Y-109968574D01*
X126278320Y-110229727D01*
X126435363Y-110464759D01*
X126635241Y-110664637D01*
X126790001Y-110768044D01*
X126790001Y-111062668D01*
X126786324Y-111100000D01*
X126790001Y-111137333D01*
X126800998Y-111248986D01*
X126814180Y-111292442D01*
X126844454Y-111392246D01*
X126915026Y-111524276D01*
X126986201Y-111611002D01*
X127010000Y-111640001D01*
X127038998Y-111663799D01*
X127706202Y-112331003D01*
X127730000Y-112360002D01*
X127845725Y-112454975D01*
X127977754Y-112525547D01*
X128121015Y-112569004D01*
X128232668Y-112580001D01*
X128232677Y-112580001D01*
X128270000Y-112583677D01*
X128307323Y-112580001D01*
X134782677Y-112580001D01*
X134819999Y-112583677D01*
X134857321Y-112580001D01*
X134857332Y-112580001D01*
X134968985Y-112569004D01*
X135112246Y-112525547D01*
X135244275Y-112454975D01*
X135360000Y-112360002D01*
X135383803Y-112330998D01*
X136944802Y-110770000D01*
X137886289Y-110770000D01*
X137930226Y-110813937D01*
X137948830Y-110826368D01*
X136168998Y-112606201D01*
X136140000Y-112629999D01*
X136116202Y-112658997D01*
X136116201Y-112658998D01*
X136045026Y-112745724D01*
X136025674Y-112781928D01*
X135880000Y-112781928D01*
X135755518Y-112794188D01*
X135635820Y-112830498D01*
X135525506Y-112889463D01*
X135428815Y-112968815D01*
X135349463Y-113065506D01*
X135290498Y-113175820D01*
X135254188Y-113295518D01*
X135241928Y-113420000D01*
X135241928Y-115020000D01*
X135254188Y-115144482D01*
X135290498Y-115264180D01*
X135349463Y-115374494D01*
X135428815Y-115471185D01*
X135525506Y-115550537D01*
X135635820Y-115609502D01*
X135755518Y-115645812D01*
X135880000Y-115658072D01*
X137480000Y-115658072D01*
X137604482Y-115645812D01*
X137724180Y-115609502D01*
X137834494Y-115550537D01*
X137931185Y-115471185D01*
X138010537Y-115374494D01*
X138069502Y-115264180D01*
X138105812Y-115144482D01*
X138118072Y-115020000D01*
X138118072Y-113420000D01*
X138105812Y-113295518D01*
X138069502Y-113175820D01*
X138010537Y-113065506D01*
X137942364Y-112982437D01*
X141204802Y-109720000D01*
X143251928Y-109720000D01*
X143251928Y-109760000D01*
X143264188Y-109884482D01*
X143300498Y-110004180D01*
X143359463Y-110114494D01*
X143438815Y-110211185D01*
X143535506Y-110290537D01*
X143645820Y-110349502D01*
X143765518Y-110385812D01*
X143890000Y-110398072D01*
X145490000Y-110398072D01*
X145614482Y-110385812D01*
X145734180Y-110349502D01*
X145844494Y-110290537D01*
X145941185Y-110211185D01*
X146020537Y-110114494D01*
X146079502Y-110004180D01*
X146115812Y-109884482D01*
X146117581Y-109866518D01*
X146210392Y-109979608D01*
X146428899Y-110158932D01*
X146678192Y-110292182D01*
X146948691Y-110374236D01*
X147159508Y-110395000D01*
X147300492Y-110395000D01*
X147511309Y-110374236D01*
X147781808Y-110292182D01*
X148031101Y-110158932D01*
X148249608Y-109979608D01*
X148428932Y-109761101D01*
X148500000Y-109628142D01*
X148571068Y-109761101D01*
X148750392Y-109979608D01*
X148968899Y-110158932D01*
X149010000Y-110180901D01*
X149010000Y-110625198D01*
X148745199Y-110890000D01*
X141417323Y-110890000D01*
X141380000Y-110886324D01*
X141342677Y-110890000D01*
X141342667Y-110890000D01*
X141231014Y-110900997D01*
X141104078Y-110939502D01*
X141087753Y-110944454D01*
X140955723Y-111015026D01*
X140893948Y-111065724D01*
X140839999Y-111109999D01*
X140816201Y-111138997D01*
X139918998Y-112036201D01*
X139890000Y-112059999D01*
X139866202Y-112088997D01*
X139866201Y-112088998D01*
X139795026Y-112175724D01*
X139724454Y-112307754D01*
X139701387Y-112383800D01*
X139680998Y-112451014D01*
X139675627Y-112505546D01*
X139666324Y-112600000D01*
X139670001Y-112637332D01*
X139670000Y-115055198D01*
X136218998Y-118506201D01*
X136190000Y-118529999D01*
X136166202Y-118558997D01*
X136166201Y-118558998D01*
X136095026Y-118645724D01*
X136075674Y-118681928D01*
X135930000Y-118681928D01*
X135805518Y-118694188D01*
X135685820Y-118730498D01*
X135575506Y-118789463D01*
X135478815Y-118868815D01*
X135399463Y-118965506D01*
X135340498Y-119075820D01*
X135304188Y-119195518D01*
X135291928Y-119320000D01*
X135291928Y-120920000D01*
X135304188Y-121044482D01*
X135340498Y-121164180D01*
X135399463Y-121274494D01*
X135478815Y-121371185D01*
X135574852Y-121450000D01*
X126314802Y-121450000D01*
X125340000Y-120475199D01*
X125340000Y-119582499D01*
X128422106Y-119582499D01*
X128638228Y-119949258D01*
X129098105Y-120189938D01*
X129596098Y-120336275D01*
X130113071Y-120382648D01*
X130629159Y-120327273D01*
X131124526Y-120172279D01*
X131541772Y-119949258D01*
X131757894Y-119582499D01*
X130090000Y-117914605D01*
X128422106Y-119582499D01*
X125340000Y-119582499D01*
X125340000Y-117758071D01*
X127442352Y-117758071D01*
X127497727Y-118274159D01*
X127652721Y-118769526D01*
X127875742Y-119186772D01*
X128242501Y-119402894D01*
X129910395Y-117735000D01*
X130269605Y-117735000D01*
X131937499Y-119402894D01*
X132304258Y-119186772D01*
X132544938Y-118726895D01*
X132691275Y-118228902D01*
X132737648Y-117711929D01*
X132682273Y-117195841D01*
X132527279Y-116700474D01*
X132304258Y-116283228D01*
X131937499Y-116067106D01*
X130269605Y-117735000D01*
X129910395Y-117735000D01*
X128242501Y-116067106D01*
X127875742Y-116283228D01*
X127635062Y-116743105D01*
X127488725Y-117241098D01*
X127442352Y-117758071D01*
X125340000Y-117758071D01*
X125340000Y-115887501D01*
X128422106Y-115887501D01*
X130090000Y-117555395D01*
X131757894Y-115887501D01*
X131541772Y-115520742D01*
X131081895Y-115280062D01*
X130583902Y-115133725D01*
X130066929Y-115087352D01*
X129550841Y-115142727D01*
X129055474Y-115297721D01*
X128638228Y-115520742D01*
X128422106Y-115887501D01*
X125340000Y-115887501D01*
X125340000Y-106524801D01*
X126134802Y-105730000D01*
X126331957Y-105730000D01*
X126435363Y-105884759D01*
X126435363Y-105884759D01*
G37*
X126435363Y-105884759D02*
X126635241Y-106084637D01*
X126680683Y-106115000D01*
X126635241Y-106145363D01*
X126435363Y-106345241D01*
X126278320Y-106580273D01*
X126170147Y-106841426D01*
X126115000Y-107118665D01*
X126115000Y-107401335D01*
X126170147Y-107678574D01*
X126278320Y-107939727D01*
X126435363Y-108174759D01*
X126635241Y-108374637D01*
X126680683Y-108405000D01*
X126635241Y-108435363D01*
X126435363Y-108635241D01*
X126278320Y-108870273D01*
X126170147Y-109131426D01*
X126115000Y-109408665D01*
X126115000Y-109691335D01*
X126170147Y-109968574D01*
X126278320Y-110229727D01*
X126435363Y-110464759D01*
X126635241Y-110664637D01*
X126790001Y-110768044D01*
X126790001Y-111062668D01*
X126786324Y-111100000D01*
X126790001Y-111137333D01*
X126800998Y-111248986D01*
X126814180Y-111292442D01*
X126844454Y-111392246D01*
X126915026Y-111524276D01*
X126986201Y-111611002D01*
X127010000Y-111640001D01*
X127038998Y-111663799D01*
X127706202Y-112331003D01*
X127730000Y-112360002D01*
X127845725Y-112454975D01*
X127977754Y-112525547D01*
X128121015Y-112569004D01*
X128232668Y-112580001D01*
X128232677Y-112580001D01*
X128270000Y-112583677D01*
X128307323Y-112580001D01*
X134782677Y-112580001D01*
X134819999Y-112583677D01*
X134857321Y-112580001D01*
X134857332Y-112580001D01*
X134968985Y-112569004D01*
X135112246Y-112525547D01*
X135244275Y-112454975D01*
X135360000Y-112360002D01*
X135383803Y-112330998D01*
X136944802Y-110770000D01*
X137886289Y-110770000D01*
X137930226Y-110813937D01*
X137948830Y-110826368D01*
X136168998Y-112606201D01*
X136140000Y-112629999D01*
X136116202Y-112658997D01*
X136116201Y-112658998D01*
X136045026Y-112745724D01*
X136025674Y-112781928D01*
X135880000Y-112781928D01*
X135755518Y-112794188D01*
X135635820Y-112830498D01*
X135525506Y-112889463D01*
X135428815Y-112968815D01*
X135349463Y-113065506D01*
X135290498Y-113175820D01*
X135254188Y-113295518D01*
X135241928Y-113420000D01*
X135241928Y-115020000D01*
X135254188Y-115144482D01*
X135290498Y-115264180D01*
X135349463Y-115374494D01*
X135428815Y-115471185D01*
X135525506Y-115550537D01*
X135635820Y-115609502D01*
X135755518Y-115645812D01*
X135880000Y-115658072D01*
X137480000Y-115658072D01*
X137604482Y-115645812D01*
X137724180Y-115609502D01*
X137834494Y-115550537D01*
X137931185Y-115471185D01*
X138010537Y-115374494D01*
X138069502Y-115264180D01*
X138105812Y-115144482D01*
X138118072Y-115020000D01*
X138118072Y-113420000D01*
X138105812Y-113295518D01*
X138069502Y-113175820D01*
X138010537Y-113065506D01*
X137942364Y-112982437D01*
X141204802Y-109720000D01*
X143251928Y-109720000D01*
X143251928Y-109760000D01*
X143264188Y-109884482D01*
X143300498Y-110004180D01*
X143359463Y-110114494D01*
X143438815Y-110211185D01*
X143535506Y-110290537D01*
X143645820Y-110349502D01*
X143765518Y-110385812D01*
X143890000Y-110398072D01*
X145490000Y-110398072D01*
X145614482Y-110385812D01*
X145734180Y-110349502D01*
X145844494Y-110290537D01*
X145941185Y-110211185D01*
X146020537Y-110114494D01*
X146079502Y-110004180D01*
X146115812Y-109884482D01*
X146117581Y-109866518D01*
X146210392Y-109979608D01*
X146428899Y-110158932D01*
X146678192Y-110292182D01*
X146948691Y-110374236D01*
X147159508Y-110395000D01*
X147300492Y-110395000D01*
X147511309Y-110374236D01*
X147781808Y-110292182D01*
X148031101Y-110158932D01*
X148249608Y-109979608D01*
X148428932Y-109761101D01*
X148500000Y-109628142D01*
X148571068Y-109761101D01*
X148750392Y-109979608D01*
X148968899Y-110158932D01*
X149010000Y-110180901D01*
X149010000Y-110625198D01*
X148745199Y-110890000D01*
X141417323Y-110890000D01*
X141380000Y-110886324D01*
X141342677Y-110890000D01*
X141342667Y-110890000D01*
X141231014Y-110900997D01*
X141104078Y-110939502D01*
X141087753Y-110944454D01*
X140955723Y-111015026D01*
X140893948Y-111065724D01*
X140839999Y-111109999D01*
X140816201Y-111138997D01*
X139918998Y-112036201D01*
X139890000Y-112059999D01*
X139866202Y-112088997D01*
X139866201Y-112088998D01*
X139795026Y-112175724D01*
X139724454Y-112307754D01*
X139701387Y-112383800D01*
X139680998Y-112451014D01*
X139675627Y-112505546D01*
X139666324Y-112600000D01*
X139670001Y-112637332D01*
X139670000Y-115055198D01*
X136218998Y-118506201D01*
X136190000Y-118529999D01*
X136166202Y-118558997D01*
X136166201Y-118558998D01*
X136095026Y-118645724D01*
X136075674Y-118681928D01*
X135930000Y-118681928D01*
X135805518Y-118694188D01*
X135685820Y-118730498D01*
X135575506Y-118789463D01*
X135478815Y-118868815D01*
X135399463Y-118965506D01*
X135340498Y-119075820D01*
X135304188Y-119195518D01*
X135291928Y-119320000D01*
X135291928Y-120920000D01*
X135304188Y-121044482D01*
X135340498Y-121164180D01*
X135399463Y-121274494D01*
X135478815Y-121371185D01*
X135574852Y-121450000D01*
X126314802Y-121450000D01*
X125340000Y-120475199D01*
X125340000Y-119582499D01*
X128422106Y-119582499D01*
X128638228Y-119949258D01*
X129098105Y-120189938D01*
X129596098Y-120336275D01*
X130113071Y-120382648D01*
X130629159Y-120327273D01*
X131124526Y-120172279D01*
X131541772Y-119949258D01*
X131757894Y-119582499D01*
X130090000Y-117914605D01*
X128422106Y-119582499D01*
X125340000Y-119582499D01*
X125340000Y-117758071D01*
X127442352Y-117758071D01*
X127497727Y-118274159D01*
X127652721Y-118769526D01*
X127875742Y-119186772D01*
X128242501Y-119402894D01*
X129910395Y-117735000D01*
X130269605Y-117735000D01*
X131937499Y-119402894D01*
X132304258Y-119186772D01*
X132544938Y-118726895D01*
X132691275Y-118228902D01*
X132737648Y-117711929D01*
X132682273Y-117195841D01*
X132527279Y-116700474D01*
X132304258Y-116283228D01*
X131937499Y-116067106D01*
X130269605Y-117735000D01*
X129910395Y-117735000D01*
X128242501Y-116067106D01*
X127875742Y-116283228D01*
X127635062Y-116743105D01*
X127488725Y-117241098D01*
X127442352Y-117758071D01*
X125340000Y-117758071D01*
X125340000Y-115887501D01*
X128422106Y-115887501D01*
X130090000Y-117555395D01*
X131757894Y-115887501D01*
X131541772Y-115520742D01*
X131081895Y-115280062D01*
X130583902Y-115133725D01*
X130066929Y-115087352D01*
X129550841Y-115142727D01*
X129055474Y-115297721D01*
X128638228Y-115520742D01*
X128422106Y-115887501D01*
X125340000Y-115887501D01*
X125340000Y-106524801D01*
X126134802Y-105730000D01*
X126331957Y-105730000D01*
X126435363Y-105884759D01*
G36*
X163528700Y-109798184D02*
G01*
X163514783Y-110080512D01*
X163556213Y-110360130D01*
X163651397Y-110626292D01*
X163718329Y-110751514D01*
X163962298Y-110823097D01*
X164775395Y-110010000D01*
X164761253Y-109995858D01*
X164940858Y-109816253D01*
X164955000Y-109830395D01*
X164969143Y-109816253D01*
X165148748Y-109995858D01*
X165134605Y-110010000D01*
X165947702Y-110823097D01*
X166191671Y-110751514D01*
X166312571Y-110496004D01*
X166381300Y-110221816D01*
X166395217Y-109939488D01*
X166394520Y-109934787D01*
X166443486Y-110101671D01*
X166698996Y-110222571D01*
X166973184Y-110291300D01*
X167255512Y-110305217D01*
X167535130Y-110263787D01*
X167801292Y-110168603D01*
X167926514Y-110101671D01*
X167998097Y-109857704D01*
X168005673Y-109865280D01*
X168005000Y-109868665D01*
X168005000Y-110151335D01*
X168060147Y-110428574D01*
X168168320Y-110689727D01*
X168325363Y-110924759D01*
X168525241Y-111124637D01*
X168760273Y-111281680D01*
X169021426Y-111389853D01*
X169298665Y-111445000D01*
X169581335Y-111445000D01*
X169858574Y-111389853D01*
X170119727Y-111281680D01*
X170354759Y-111124637D01*
X170554637Y-110924759D01*
X170620000Y-110826936D01*
X170620001Y-119135196D01*
X168305199Y-121450000D01*
X159990103Y-121450000D01*
X160081808Y-121422182D01*
X160331101Y-121288932D01*
X160549608Y-121109608D01*
X160728932Y-120891101D01*
X160862182Y-120641808D01*
X160944236Y-120371309D01*
X160971943Y-120090000D01*
X160944236Y-119808691D01*
X160862182Y-119538192D01*
X160848449Y-119512499D01*
X165232106Y-119512499D01*
X165448228Y-119879258D01*
X165908105Y-120119938D01*
X166406098Y-120266275D01*
X166923071Y-120312648D01*
X167439159Y-120257273D01*
X167934526Y-120102279D01*
X168351772Y-119879258D01*
X168567894Y-119512499D01*
X166900000Y-117844605D01*
X165232106Y-119512499D01*
X160848449Y-119512499D01*
X160728932Y-119288899D01*
X160549608Y-119070392D01*
X160331101Y-118891068D01*
X160081808Y-118757818D01*
X159811309Y-118675764D01*
X159600492Y-118655000D01*
X159459508Y-118655000D01*
X159248691Y-118675764D01*
X158978192Y-118757818D01*
X158728899Y-118891068D01*
X158510392Y-119070392D01*
X158331068Y-119288899D01*
X158197818Y-119538192D01*
X158115764Y-119808691D01*
X158088057Y-120090000D01*
X158115764Y-120371309D01*
X158197818Y-120641808D01*
X158331068Y-120891101D01*
X158510392Y-121109608D01*
X158728899Y-121288932D01*
X158978192Y-121422182D01*
X159069897Y-121450000D01*
X153009373Y-121450000D01*
X153064494Y-121420537D01*
X153161185Y-121341185D01*
X153240537Y-121244494D01*
X153299502Y-121134180D01*
X153335812Y-121014482D01*
X153348072Y-120890000D01*
X153348072Y-119290000D01*
X153335812Y-119165518D01*
X153299502Y-119045820D01*
X153240537Y-118935506D01*
X153172364Y-118852437D01*
X154336730Y-117688071D01*
X164252352Y-117688071D01*
X164307727Y-118204159D01*
X164462721Y-118699526D01*
X164685742Y-119116772D01*
X165052501Y-119332894D01*
X166720395Y-117665000D01*
X167079605Y-117665000D01*
X168747499Y-119332894D01*
X169114258Y-119116772D01*
X169354938Y-118656895D01*
X169501275Y-118158902D01*
X169547648Y-117641929D01*
X169492273Y-117125841D01*
X169337279Y-116630474D01*
X169114258Y-116213228D01*
X168747499Y-115997106D01*
X167079605Y-117665000D01*
X166720395Y-117665000D01*
X165052501Y-115997106D01*
X164685742Y-116213228D01*
X164445062Y-116673105D01*
X164298725Y-117171098D01*
X164252352Y-117688071D01*
X154336730Y-117688071D01*
X156161004Y-115863798D01*
X156190001Y-115840001D01*
X156208466Y-115817501D01*
X165232106Y-115817501D01*
X166900000Y-117485395D01*
X168567894Y-115817501D01*
X168351772Y-115450742D01*
X167891895Y-115210062D01*
X167393902Y-115063725D01*
X166876929Y-115017352D01*
X166360841Y-115072727D01*
X165865474Y-115227721D01*
X165448228Y-115450742D01*
X165232106Y-115817501D01*
X156208466Y-115817501D01*
X156284974Y-115724276D01*
X156355546Y-115592247D01*
X156399003Y-115448986D01*
X156410000Y-115337333D01*
X156410000Y-115337325D01*
X156413676Y-115300000D01*
X156410000Y-115262675D01*
X156410000Y-114250000D01*
X158068057Y-114250000D01*
X158095764Y-114531309D01*
X158177818Y-114801808D01*
X158311068Y-115051101D01*
X158490392Y-115269608D01*
X158708899Y-115448932D01*
X158958192Y-115582182D01*
X159228691Y-115664236D01*
X159439508Y-115685000D01*
X159580492Y-115685000D01*
X159791309Y-115664236D01*
X160061808Y-115582182D01*
X160311101Y-115448932D01*
X160529608Y-115269608D01*
X160708932Y-115051101D01*
X160842182Y-114801808D01*
X160924236Y-114531309D01*
X160951943Y-114250000D01*
X160924236Y-113968691D01*
X160842182Y-113698192D01*
X160708932Y-113448899D01*
X160529608Y-113230392D01*
X160311101Y-113051068D01*
X160061808Y-112917818D01*
X159791309Y-112835764D01*
X159580492Y-112815000D01*
X159439508Y-112815000D01*
X159228691Y-112835764D01*
X158958192Y-112917818D01*
X158708899Y-113051068D01*
X158490392Y-113230392D01*
X158311068Y-113448899D01*
X158177818Y-113698192D01*
X158095764Y-113968691D01*
X158068057Y-114250000D01*
X156410000Y-114250000D01*
X156410000Y-111002702D01*
X164141903Y-111002702D01*
X164213486Y-111246671D01*
X164468996Y-111367571D01*
X164743184Y-111436300D01*
X165025512Y-111450217D01*
X165305130Y-111408787D01*
X165571292Y-111313603D01*
X165696514Y-111246671D01*
X165768097Y-111002702D01*
X164955000Y-110189605D01*
X164141903Y-111002702D01*
X156410000Y-111002702D01*
X156410000Y-110400000D01*
X161122678Y-110400000D01*
X161160000Y-110403676D01*
X161197322Y-110400000D01*
X161197333Y-110400000D01*
X161308986Y-110389003D01*
X161452247Y-110345546D01*
X161584276Y-110274974D01*
X161700001Y-110180001D01*
X161723803Y-110150998D01*
X162229803Y-109644999D01*
X163567098Y-109644999D01*
X163528700Y-109798184D01*
X163528700Y-109798184D01*
G37*
X163528700Y-109798184D02*
X163514783Y-110080512D01*
X163556213Y-110360130D01*
X163651397Y-110626292D01*
X163718329Y-110751514D01*
X163962298Y-110823097D01*
X164775395Y-110010000D01*
X164761253Y-109995858D01*
X164940858Y-109816253D01*
X164955000Y-109830395D01*
X164969143Y-109816253D01*
X165148748Y-109995858D01*
X165134605Y-110010000D01*
X165947702Y-110823097D01*
X166191671Y-110751514D01*
X166312571Y-110496004D01*
X166381300Y-110221816D01*
X166395217Y-109939488D01*
X166394520Y-109934787D01*
X166443486Y-110101671D01*
X166698996Y-110222571D01*
X166973184Y-110291300D01*
X167255512Y-110305217D01*
X167535130Y-110263787D01*
X167801292Y-110168603D01*
X167926514Y-110101671D01*
X167998097Y-109857704D01*
X168005673Y-109865280D01*
X168005000Y-109868665D01*
X168005000Y-110151335D01*
X168060147Y-110428574D01*
X168168320Y-110689727D01*
X168325363Y-110924759D01*
X168525241Y-111124637D01*
X168760273Y-111281680D01*
X169021426Y-111389853D01*
X169298665Y-111445000D01*
X169581335Y-111445000D01*
X169858574Y-111389853D01*
X170119727Y-111281680D01*
X170354759Y-111124637D01*
X170554637Y-110924759D01*
X170620000Y-110826936D01*
X170620001Y-119135196D01*
X168305199Y-121450000D01*
X159990103Y-121450000D01*
X160081808Y-121422182D01*
X160331101Y-121288932D01*
X160549608Y-121109608D01*
X160728932Y-120891101D01*
X160862182Y-120641808D01*
X160944236Y-120371309D01*
X160971943Y-120090000D01*
X160944236Y-119808691D01*
X160862182Y-119538192D01*
X160848449Y-119512499D01*
X165232106Y-119512499D01*
X165448228Y-119879258D01*
X165908105Y-120119938D01*
X166406098Y-120266275D01*
X166923071Y-120312648D01*
X167439159Y-120257273D01*
X167934526Y-120102279D01*
X168351772Y-119879258D01*
X168567894Y-119512499D01*
X166900000Y-117844605D01*
X165232106Y-119512499D01*
X160848449Y-119512499D01*
X160728932Y-119288899D01*
X160549608Y-119070392D01*
X160331101Y-118891068D01*
X160081808Y-118757818D01*
X159811309Y-118675764D01*
X159600492Y-118655000D01*
X159459508Y-118655000D01*
X159248691Y-118675764D01*
X158978192Y-118757818D01*
X158728899Y-118891068D01*
X158510392Y-119070392D01*
X158331068Y-119288899D01*
X158197818Y-119538192D01*
X158115764Y-119808691D01*
X158088057Y-120090000D01*
X158115764Y-120371309D01*
X158197818Y-120641808D01*
X158331068Y-120891101D01*
X158510392Y-121109608D01*
X158728899Y-121288932D01*
X158978192Y-121422182D01*
X159069897Y-121450000D01*
X153009373Y-121450000D01*
X153064494Y-121420537D01*
X153161185Y-121341185D01*
X153240537Y-121244494D01*
X153299502Y-121134180D01*
X153335812Y-121014482D01*
X153348072Y-120890000D01*
X153348072Y-119290000D01*
X153335812Y-119165518D01*
X153299502Y-119045820D01*
X153240537Y-118935506D01*
X153172364Y-118852437D01*
X154336730Y-117688071D01*
X164252352Y-117688071D01*
X164307727Y-118204159D01*
X164462721Y-118699526D01*
X164685742Y-119116772D01*
X165052501Y-119332894D01*
X166720395Y-117665000D01*
X167079605Y-117665000D01*
X168747499Y-119332894D01*
X169114258Y-119116772D01*
X169354938Y-118656895D01*
X169501275Y-118158902D01*
X169547648Y-117641929D01*
X169492273Y-117125841D01*
X169337279Y-116630474D01*
X169114258Y-116213228D01*
X168747499Y-115997106D01*
X167079605Y-117665000D01*
X166720395Y-117665000D01*
X165052501Y-115997106D01*
X164685742Y-116213228D01*
X164445062Y-116673105D01*
X164298725Y-117171098D01*
X164252352Y-117688071D01*
X154336730Y-117688071D01*
X156161004Y-115863798D01*
X156190001Y-115840001D01*
X156208466Y-115817501D01*
X165232106Y-115817501D01*
X166900000Y-117485395D01*
X168567894Y-115817501D01*
X168351772Y-115450742D01*
X167891895Y-115210062D01*
X167393902Y-115063725D01*
X166876929Y-115017352D01*
X166360841Y-115072727D01*
X165865474Y-115227721D01*
X165448228Y-115450742D01*
X165232106Y-115817501D01*
X156208466Y-115817501D01*
X156284974Y-115724276D01*
X156355546Y-115592247D01*
X156399003Y-115448986D01*
X156410000Y-115337333D01*
X156410000Y-115337325D01*
X156413676Y-115300000D01*
X156410000Y-115262675D01*
X156410000Y-114250000D01*
X158068057Y-114250000D01*
X158095764Y-114531309D01*
X158177818Y-114801808D01*
X158311068Y-115051101D01*
X158490392Y-115269608D01*
X158708899Y-115448932D01*
X158958192Y-115582182D01*
X159228691Y-115664236D01*
X159439508Y-115685000D01*
X159580492Y-115685000D01*
X159791309Y-115664236D01*
X160061808Y-115582182D01*
X160311101Y-115448932D01*
X160529608Y-115269608D01*
X160708932Y-115051101D01*
X160842182Y-114801808D01*
X160924236Y-114531309D01*
X160951943Y-114250000D01*
X160924236Y-113968691D01*
X160842182Y-113698192D01*
X160708932Y-113448899D01*
X160529608Y-113230392D01*
X160311101Y-113051068D01*
X160061808Y-112917818D01*
X159791309Y-112835764D01*
X159580492Y-112815000D01*
X159439508Y-112815000D01*
X159228691Y-112835764D01*
X158958192Y-112917818D01*
X158708899Y-113051068D01*
X158490392Y-113230392D01*
X158311068Y-113448899D01*
X158177818Y-113698192D01*
X158095764Y-113968691D01*
X158068057Y-114250000D01*
X156410000Y-114250000D01*
X156410000Y-111002702D01*
X164141903Y-111002702D01*
X164213486Y-111246671D01*
X164468996Y-111367571D01*
X164743184Y-111436300D01*
X165025512Y-111450217D01*
X165305130Y-111408787D01*
X165571292Y-111313603D01*
X165696514Y-111246671D01*
X165768097Y-111002702D01*
X164955000Y-110189605D01*
X164141903Y-111002702D01*
X156410000Y-111002702D01*
X156410000Y-110400000D01*
X161122678Y-110400000D01*
X161160000Y-110403676D01*
X161197322Y-110400000D01*
X161197333Y-110400000D01*
X161308986Y-110389003D01*
X161452247Y-110345546D01*
X161584276Y-110274974D01*
X161700001Y-110180001D01*
X161723803Y-110150998D01*
X162229803Y-109644999D01*
X163567098Y-109644999D01*
X163528700Y-109798184D01*
G36*
X129998748Y-110680858D02*
G01*
X129984605Y-110695000D01*
X129998748Y-110709143D01*
X129819143Y-110888748D01*
X129805000Y-110874605D01*
X129790858Y-110888748D01*
X129611253Y-110709143D01*
X129625395Y-110695000D01*
X129611253Y-110680858D01*
X129790858Y-110501253D01*
X129805000Y-110515395D01*
X129819143Y-110501253D01*
X129998748Y-110680858D01*
X129998748Y-110680858D01*
G37*
X129998748Y-110680858D02*
X129984605Y-110695000D01*
X129998748Y-110709143D01*
X129819143Y-110888748D01*
X129805000Y-110874605D01*
X129790858Y-110888748D01*
X129611253Y-110709143D01*
X129625395Y-110695000D01*
X129611253Y-110680858D01*
X129790858Y-110501253D01*
X129805000Y-110515395D01*
X129819143Y-110501253D01*
X129998748Y-110680858D01*
G36*
X167378748Y-108850858D02*
G01*
X167364605Y-108865000D01*
X167378748Y-108879143D01*
X167199143Y-109058748D01*
X167185000Y-109044605D01*
X167170858Y-109058748D01*
X166991253Y-108879143D01*
X167005395Y-108865000D01*
X166991253Y-108850858D01*
X167170858Y-108671253D01*
X167185000Y-108685395D01*
X167199143Y-108671253D01*
X167378748Y-108850858D01*
X167378748Y-108850858D01*
G37*
X167378748Y-108850858D02*
X167364605Y-108865000D01*
X167378748Y-108879143D01*
X167199143Y-109058748D01*
X167185000Y-109044605D01*
X167170858Y-109058748D01*
X166991253Y-108879143D01*
X167005395Y-108865000D01*
X166991253Y-108850858D01*
X167170858Y-108671253D01*
X167185000Y-108685395D01*
X167199143Y-108671253D01*
X167378748Y-108850858D01*
G36*
X129998748Y-108390858D02*
G01*
X129984605Y-108405000D01*
X129998748Y-108419143D01*
X129819143Y-108598748D01*
X129805000Y-108584605D01*
X129790858Y-108598748D01*
X129611253Y-108419143D01*
X129625395Y-108405000D01*
X129611253Y-108390858D01*
X129790858Y-108211253D01*
X129805000Y-108225395D01*
X129819143Y-108211253D01*
X129998748Y-108390858D01*
X129998748Y-108390858D01*
G37*
X129998748Y-108390858D02*
X129984605Y-108405000D01*
X129998748Y-108419143D01*
X129819143Y-108598748D01*
X129805000Y-108584605D01*
X129790858Y-108598748D01*
X129611253Y-108419143D01*
X129625395Y-108405000D01*
X129611253Y-108390858D01*
X129790858Y-108211253D01*
X129805000Y-108225395D01*
X129819143Y-108211253D01*
X129998748Y-108390858D01*
G36*
X129998748Y-106100858D02*
G01*
X129984605Y-106115000D01*
X129998748Y-106129143D01*
X129819143Y-106308748D01*
X129805000Y-106294605D01*
X129790858Y-106308748D01*
X129611253Y-106129143D01*
X129625395Y-106115000D01*
X129611253Y-106100858D01*
X129790858Y-105921253D01*
X129805000Y-105935395D01*
X129819143Y-105921253D01*
X129998748Y-106100858D01*
X129998748Y-106100858D01*
G37*
X129998748Y-106100858D02*
X129984605Y-106115000D01*
X129998748Y-106129143D01*
X129819143Y-106308748D01*
X129805000Y-106294605D01*
X129790858Y-106308748D01*
X129611253Y-106129143D01*
X129625395Y-106115000D01*
X129611253Y-106100858D01*
X129790858Y-105921253D01*
X129805000Y-105935395D01*
X129819143Y-105921253D01*
X129998748Y-106100858D01*
G36*
X167378748Y-104270858D02*
G01*
X167364605Y-104285000D01*
X167378748Y-104299143D01*
X167199143Y-104478748D01*
X167185000Y-104464605D01*
X167170858Y-104478748D01*
X166991253Y-104299143D01*
X167005395Y-104285000D01*
X166991253Y-104270858D01*
X167170858Y-104091253D01*
X167185000Y-104105395D01*
X167199143Y-104091253D01*
X167378748Y-104270858D01*
X167378748Y-104270858D01*
G37*
X167378748Y-104270858D02*
X167364605Y-104285000D01*
X167378748Y-104299143D01*
X167199143Y-104478748D01*
X167185000Y-104464605D01*
X167170858Y-104478748D01*
X166991253Y-104299143D01*
X167005395Y-104285000D01*
X166991253Y-104270858D01*
X167170858Y-104091253D01*
X167185000Y-104105395D01*
X167199143Y-104091253D01*
X167378748Y-104270858D01*
G36*
X167378748Y-101980858D02*
G01*
X167364605Y-101995000D01*
X167378748Y-102009143D01*
X167199143Y-102188748D01*
X167185000Y-102174605D01*
X167170858Y-102188748D01*
X166991253Y-102009143D01*
X167005395Y-101995000D01*
X166991253Y-101980858D01*
X167170858Y-101801253D01*
X167185000Y-101815395D01*
X167199143Y-101801253D01*
X167378748Y-101980858D01*
X167378748Y-101980858D01*
G37*
X167378748Y-101980858D02*
X167364605Y-101995000D01*
X167378748Y-102009143D01*
X167199143Y-102188748D01*
X167185000Y-102174605D01*
X167170858Y-102188748D01*
X166991253Y-102009143D01*
X167005395Y-101995000D01*
X166991253Y-101980858D01*
X167170858Y-101801253D01*
X167185000Y-101815395D01*
X167199143Y-101801253D01*
X167378748Y-101980858D01*
G36*
X129998748Y-101520858D02*
G01*
X129984605Y-101535000D01*
X129998748Y-101549143D01*
X129819143Y-101728748D01*
X129805000Y-101714605D01*
X129790858Y-101728748D01*
X129611253Y-101549143D01*
X129625395Y-101535000D01*
X129611253Y-101520858D01*
X129790858Y-101341253D01*
X129805000Y-101355395D01*
X129819143Y-101341253D01*
X129998748Y-101520858D01*
X129998748Y-101520858D01*
G37*
X129998748Y-101520858D02*
X129984605Y-101535000D01*
X129998748Y-101549143D01*
X129819143Y-101728748D01*
X129805000Y-101714605D01*
X129790858Y-101728748D01*
X129611253Y-101549143D01*
X129625395Y-101535000D01*
X129611253Y-101520858D01*
X129790858Y-101341253D01*
X129805000Y-101355395D01*
X129819143Y-101341253D01*
X129998748Y-101520858D01*
M02*
