G04 #@! TF.GenerationSoftware,KiCad,Pcbnew,(5.1.4)-1*
G04 #@! TF.CreationDate,2020-11-25T10:34:19+01:00*
G04 #@! TF.ProjectId,MonochromeVGA,4d6f6e6f-6368-4726-9f6d-655647412e6b,rev?*
G04 #@! TF.SameCoordinates,Original*
G04 #@! TF.FileFunction,Copper,L1,Top*
G04 #@! TF.FilePolarity,Positive*
%FSLAX46Y46*%
G04 Gerber Fmt 4.6, Leading zero omitted, Abs format (unit mm)*
G04 Created by KiCad (PCBNEW (5.1.4)-1) date 2020-11-25 10:34:19*
%MOMM*%
%LPD*%
G04 APERTURE LIST*
%ADD10C,4.000000*%
%ADD11C,1.600000*%
%ADD12R,1.600000X1.600000*%
%ADD13O,1.600000X1.600000*%
%ADD14R,0.900000X1.200000*%
%ADD15C,2.500000*%
%ADD16C,0.100000*%
%ADD17C,0.875000*%
%ADD18O,1.400000X1.400000*%
%ADD19C,1.400000*%
%ADD20C,0.800000*%
%ADD21C,0.250000*%
%ADD22C,0.254000*%
G04 APERTURE END LIST*
D10*
X130090000Y-117735000D03*
X130090000Y-92735000D03*
D11*
X127550000Y-100390000D03*
X127550000Y-102680000D03*
X127550000Y-104970000D03*
X127550000Y-107260000D03*
X127550000Y-109550000D03*
X129805000Y-101535000D03*
X129805000Y-103825000D03*
X129805000Y-106115000D03*
X129805000Y-108405000D03*
X129805000Y-110695000D03*
X132035000Y-100390000D03*
X132035000Y-102680000D03*
X132035000Y-104970000D03*
X132035000Y-107260000D03*
D12*
X132035000Y-109550000D03*
D10*
X166900000Y-92665000D03*
X166900000Y-117665000D03*
D11*
X169440000Y-110010000D03*
X169440000Y-107720000D03*
X169440000Y-105430000D03*
X169440000Y-103140000D03*
X169440000Y-100850000D03*
X167185000Y-108865000D03*
X167185000Y-106575000D03*
X167185000Y-104285000D03*
X167185000Y-101995000D03*
X167185000Y-99705000D03*
X164955000Y-110010000D03*
X164955000Y-107720000D03*
X164955000Y-105430000D03*
X164955000Y-103140000D03*
D12*
X164955000Y-100850000D03*
X151910000Y-120090000D03*
D13*
X159530000Y-120090000D03*
D14*
X154110000Y-120090000D03*
X157410000Y-120090000D03*
D12*
X136730000Y-120120000D03*
D13*
X144350000Y-120120000D03*
D14*
X138920000Y-120090000D03*
X142220000Y-120090000D03*
X138940000Y-114220000D03*
X142240000Y-114220000D03*
D12*
X136680000Y-114220000D03*
D13*
X144300000Y-114220000D03*
D12*
X151890000Y-114250000D03*
D13*
X159510000Y-114250000D03*
D14*
X154070000Y-114200000D03*
X157370000Y-114200000D03*
D13*
X144690000Y-101340000D03*
X152310000Y-108960000D03*
X147230000Y-101340000D03*
X149770000Y-108960000D03*
X149770000Y-101340000D03*
X147230000Y-108960000D03*
X152310000Y-101340000D03*
D12*
X144690000Y-108960000D03*
D11*
X144120000Y-89650000D03*
X146120000Y-89650000D03*
X148120000Y-89650000D03*
X150120000Y-89650000D03*
X152120000Y-89650000D03*
X154120000Y-89650000D03*
X144120000Y-92150000D03*
X146120000Y-92150000D03*
X148120000Y-92150000D03*
X150120000Y-92150000D03*
X152120000Y-92150000D03*
X154120000Y-92150000D03*
D15*
X142320000Y-87950000D03*
X155920000Y-93850000D03*
D16*
G36*
X157977691Y-104276053D02*
G01*
X157998926Y-104279203D01*
X158019750Y-104284419D01*
X158039962Y-104291651D01*
X158059368Y-104300830D01*
X158077781Y-104311866D01*
X158095024Y-104324654D01*
X158110930Y-104339070D01*
X158125346Y-104354976D01*
X158138134Y-104372219D01*
X158149170Y-104390632D01*
X158158349Y-104410038D01*
X158165581Y-104430250D01*
X158170797Y-104451074D01*
X158173947Y-104472309D01*
X158175000Y-104493750D01*
X158175000Y-104931250D01*
X158173947Y-104952691D01*
X158170797Y-104973926D01*
X158165581Y-104994750D01*
X158158349Y-105014962D01*
X158149170Y-105034368D01*
X158138134Y-105052781D01*
X158125346Y-105070024D01*
X158110930Y-105085930D01*
X158095024Y-105100346D01*
X158077781Y-105113134D01*
X158059368Y-105124170D01*
X158039962Y-105133349D01*
X158019750Y-105140581D01*
X157998926Y-105145797D01*
X157977691Y-105148947D01*
X157956250Y-105150000D01*
X157443750Y-105150000D01*
X157422309Y-105148947D01*
X157401074Y-105145797D01*
X157380250Y-105140581D01*
X157360038Y-105133349D01*
X157340632Y-105124170D01*
X157322219Y-105113134D01*
X157304976Y-105100346D01*
X157289070Y-105085930D01*
X157274654Y-105070024D01*
X157261866Y-105052781D01*
X157250830Y-105034368D01*
X157241651Y-105014962D01*
X157234419Y-104994750D01*
X157229203Y-104973926D01*
X157226053Y-104952691D01*
X157225000Y-104931250D01*
X157225000Y-104493750D01*
X157226053Y-104472309D01*
X157229203Y-104451074D01*
X157234419Y-104430250D01*
X157241651Y-104410038D01*
X157250830Y-104390632D01*
X157261866Y-104372219D01*
X157274654Y-104354976D01*
X157289070Y-104339070D01*
X157304976Y-104324654D01*
X157322219Y-104311866D01*
X157340632Y-104300830D01*
X157360038Y-104291651D01*
X157380250Y-104284419D01*
X157401074Y-104279203D01*
X157422309Y-104276053D01*
X157443750Y-104275000D01*
X157956250Y-104275000D01*
X157977691Y-104276053D01*
X157977691Y-104276053D01*
G37*
D17*
X157700000Y-104712500D03*
D16*
G36*
X157977691Y-105851053D02*
G01*
X157998926Y-105854203D01*
X158019750Y-105859419D01*
X158039962Y-105866651D01*
X158059368Y-105875830D01*
X158077781Y-105886866D01*
X158095024Y-105899654D01*
X158110930Y-105914070D01*
X158125346Y-105929976D01*
X158138134Y-105947219D01*
X158149170Y-105965632D01*
X158158349Y-105985038D01*
X158165581Y-106005250D01*
X158170797Y-106026074D01*
X158173947Y-106047309D01*
X158175000Y-106068750D01*
X158175000Y-106506250D01*
X158173947Y-106527691D01*
X158170797Y-106548926D01*
X158165581Y-106569750D01*
X158158349Y-106589962D01*
X158149170Y-106609368D01*
X158138134Y-106627781D01*
X158125346Y-106645024D01*
X158110930Y-106660930D01*
X158095024Y-106675346D01*
X158077781Y-106688134D01*
X158059368Y-106699170D01*
X158039962Y-106708349D01*
X158019750Y-106715581D01*
X157998926Y-106720797D01*
X157977691Y-106723947D01*
X157956250Y-106725000D01*
X157443750Y-106725000D01*
X157422309Y-106723947D01*
X157401074Y-106720797D01*
X157380250Y-106715581D01*
X157360038Y-106708349D01*
X157340632Y-106699170D01*
X157322219Y-106688134D01*
X157304976Y-106675346D01*
X157289070Y-106660930D01*
X157274654Y-106645024D01*
X157261866Y-106627781D01*
X157250830Y-106609368D01*
X157241651Y-106589962D01*
X157234419Y-106569750D01*
X157229203Y-106548926D01*
X157226053Y-106527691D01*
X157225000Y-106506250D01*
X157225000Y-106068750D01*
X157226053Y-106047309D01*
X157229203Y-106026074D01*
X157234419Y-106005250D01*
X157241651Y-105985038D01*
X157250830Y-105965632D01*
X157261866Y-105947219D01*
X157274654Y-105929976D01*
X157289070Y-105914070D01*
X157304976Y-105899654D01*
X157322219Y-105886866D01*
X157340632Y-105875830D01*
X157360038Y-105866651D01*
X157380250Y-105859419D01*
X157401074Y-105854203D01*
X157422309Y-105851053D01*
X157443750Y-105850000D01*
X157956250Y-105850000D01*
X157977691Y-105851053D01*
X157977691Y-105851053D01*
G37*
D17*
X157700000Y-106287500D03*
D16*
G36*
X157937691Y-97446053D02*
G01*
X157958926Y-97449203D01*
X157979750Y-97454419D01*
X157999962Y-97461651D01*
X158019368Y-97470830D01*
X158037781Y-97481866D01*
X158055024Y-97494654D01*
X158070930Y-97509070D01*
X158085346Y-97524976D01*
X158098134Y-97542219D01*
X158109170Y-97560632D01*
X158118349Y-97580038D01*
X158125581Y-97600250D01*
X158130797Y-97621074D01*
X158133947Y-97642309D01*
X158135000Y-97663750D01*
X158135000Y-98176250D01*
X158133947Y-98197691D01*
X158130797Y-98218926D01*
X158125581Y-98239750D01*
X158118349Y-98259962D01*
X158109170Y-98279368D01*
X158098134Y-98297781D01*
X158085346Y-98315024D01*
X158070930Y-98330930D01*
X158055024Y-98345346D01*
X158037781Y-98358134D01*
X158019368Y-98369170D01*
X157999962Y-98378349D01*
X157979750Y-98385581D01*
X157958926Y-98390797D01*
X157937691Y-98393947D01*
X157916250Y-98395000D01*
X157478750Y-98395000D01*
X157457309Y-98393947D01*
X157436074Y-98390797D01*
X157415250Y-98385581D01*
X157395038Y-98378349D01*
X157375632Y-98369170D01*
X157357219Y-98358134D01*
X157339976Y-98345346D01*
X157324070Y-98330930D01*
X157309654Y-98315024D01*
X157296866Y-98297781D01*
X157285830Y-98279368D01*
X157276651Y-98259962D01*
X157269419Y-98239750D01*
X157264203Y-98218926D01*
X157261053Y-98197691D01*
X157260000Y-98176250D01*
X157260000Y-97663750D01*
X157261053Y-97642309D01*
X157264203Y-97621074D01*
X157269419Y-97600250D01*
X157276651Y-97580038D01*
X157285830Y-97560632D01*
X157296866Y-97542219D01*
X157309654Y-97524976D01*
X157324070Y-97509070D01*
X157339976Y-97494654D01*
X157357219Y-97481866D01*
X157375632Y-97470830D01*
X157395038Y-97461651D01*
X157415250Y-97454419D01*
X157436074Y-97449203D01*
X157457309Y-97446053D01*
X157478750Y-97445000D01*
X157916250Y-97445000D01*
X157937691Y-97446053D01*
X157937691Y-97446053D01*
G37*
D17*
X157697500Y-97920000D03*
D16*
G36*
X156362691Y-97446053D02*
G01*
X156383926Y-97449203D01*
X156404750Y-97454419D01*
X156424962Y-97461651D01*
X156444368Y-97470830D01*
X156462781Y-97481866D01*
X156480024Y-97494654D01*
X156495930Y-97509070D01*
X156510346Y-97524976D01*
X156523134Y-97542219D01*
X156534170Y-97560632D01*
X156543349Y-97580038D01*
X156550581Y-97600250D01*
X156555797Y-97621074D01*
X156558947Y-97642309D01*
X156560000Y-97663750D01*
X156560000Y-98176250D01*
X156558947Y-98197691D01*
X156555797Y-98218926D01*
X156550581Y-98239750D01*
X156543349Y-98259962D01*
X156534170Y-98279368D01*
X156523134Y-98297781D01*
X156510346Y-98315024D01*
X156495930Y-98330930D01*
X156480024Y-98345346D01*
X156462781Y-98358134D01*
X156444368Y-98369170D01*
X156424962Y-98378349D01*
X156404750Y-98385581D01*
X156383926Y-98390797D01*
X156362691Y-98393947D01*
X156341250Y-98395000D01*
X155903750Y-98395000D01*
X155882309Y-98393947D01*
X155861074Y-98390797D01*
X155840250Y-98385581D01*
X155820038Y-98378349D01*
X155800632Y-98369170D01*
X155782219Y-98358134D01*
X155764976Y-98345346D01*
X155749070Y-98330930D01*
X155734654Y-98315024D01*
X155721866Y-98297781D01*
X155710830Y-98279368D01*
X155701651Y-98259962D01*
X155694419Y-98239750D01*
X155689203Y-98218926D01*
X155686053Y-98197691D01*
X155685000Y-98176250D01*
X155685000Y-97663750D01*
X155686053Y-97642309D01*
X155689203Y-97621074D01*
X155694419Y-97600250D01*
X155701651Y-97580038D01*
X155710830Y-97560632D01*
X155721866Y-97542219D01*
X155734654Y-97524976D01*
X155749070Y-97509070D01*
X155764976Y-97494654D01*
X155782219Y-97481866D01*
X155800632Y-97470830D01*
X155820038Y-97461651D01*
X155840250Y-97454419D01*
X155861074Y-97449203D01*
X155882309Y-97446053D01*
X155903750Y-97445000D01*
X156341250Y-97445000D01*
X156362691Y-97446053D01*
X156362691Y-97446053D01*
G37*
D17*
X156122500Y-97920000D03*
D16*
G36*
X141287691Y-97346053D02*
G01*
X141308926Y-97349203D01*
X141329750Y-97354419D01*
X141349962Y-97361651D01*
X141369368Y-97370830D01*
X141387781Y-97381866D01*
X141405024Y-97394654D01*
X141420930Y-97409070D01*
X141435346Y-97424976D01*
X141448134Y-97442219D01*
X141459170Y-97460632D01*
X141468349Y-97480038D01*
X141475581Y-97500250D01*
X141480797Y-97521074D01*
X141483947Y-97542309D01*
X141485000Y-97563750D01*
X141485000Y-98076250D01*
X141483947Y-98097691D01*
X141480797Y-98118926D01*
X141475581Y-98139750D01*
X141468349Y-98159962D01*
X141459170Y-98179368D01*
X141448134Y-98197781D01*
X141435346Y-98215024D01*
X141420930Y-98230930D01*
X141405024Y-98245346D01*
X141387781Y-98258134D01*
X141369368Y-98269170D01*
X141349962Y-98278349D01*
X141329750Y-98285581D01*
X141308926Y-98290797D01*
X141287691Y-98293947D01*
X141266250Y-98295000D01*
X140828750Y-98295000D01*
X140807309Y-98293947D01*
X140786074Y-98290797D01*
X140765250Y-98285581D01*
X140745038Y-98278349D01*
X140725632Y-98269170D01*
X140707219Y-98258134D01*
X140689976Y-98245346D01*
X140674070Y-98230930D01*
X140659654Y-98215024D01*
X140646866Y-98197781D01*
X140635830Y-98179368D01*
X140626651Y-98159962D01*
X140619419Y-98139750D01*
X140614203Y-98118926D01*
X140611053Y-98097691D01*
X140610000Y-98076250D01*
X140610000Y-97563750D01*
X140611053Y-97542309D01*
X140614203Y-97521074D01*
X140619419Y-97500250D01*
X140626651Y-97480038D01*
X140635830Y-97460632D01*
X140646866Y-97442219D01*
X140659654Y-97424976D01*
X140674070Y-97409070D01*
X140689976Y-97394654D01*
X140707219Y-97381866D01*
X140725632Y-97370830D01*
X140745038Y-97361651D01*
X140765250Y-97354419D01*
X140786074Y-97349203D01*
X140807309Y-97346053D01*
X140828750Y-97345000D01*
X141266250Y-97345000D01*
X141287691Y-97346053D01*
X141287691Y-97346053D01*
G37*
D17*
X141047500Y-97820000D03*
D16*
G36*
X139712691Y-97346053D02*
G01*
X139733926Y-97349203D01*
X139754750Y-97354419D01*
X139774962Y-97361651D01*
X139794368Y-97370830D01*
X139812781Y-97381866D01*
X139830024Y-97394654D01*
X139845930Y-97409070D01*
X139860346Y-97424976D01*
X139873134Y-97442219D01*
X139884170Y-97460632D01*
X139893349Y-97480038D01*
X139900581Y-97500250D01*
X139905797Y-97521074D01*
X139908947Y-97542309D01*
X139910000Y-97563750D01*
X139910000Y-98076250D01*
X139908947Y-98097691D01*
X139905797Y-98118926D01*
X139900581Y-98139750D01*
X139893349Y-98159962D01*
X139884170Y-98179368D01*
X139873134Y-98197781D01*
X139860346Y-98215024D01*
X139845930Y-98230930D01*
X139830024Y-98245346D01*
X139812781Y-98258134D01*
X139794368Y-98269170D01*
X139774962Y-98278349D01*
X139754750Y-98285581D01*
X139733926Y-98290797D01*
X139712691Y-98293947D01*
X139691250Y-98295000D01*
X139253750Y-98295000D01*
X139232309Y-98293947D01*
X139211074Y-98290797D01*
X139190250Y-98285581D01*
X139170038Y-98278349D01*
X139150632Y-98269170D01*
X139132219Y-98258134D01*
X139114976Y-98245346D01*
X139099070Y-98230930D01*
X139084654Y-98215024D01*
X139071866Y-98197781D01*
X139060830Y-98179368D01*
X139051651Y-98159962D01*
X139044419Y-98139750D01*
X139039203Y-98118926D01*
X139036053Y-98097691D01*
X139035000Y-98076250D01*
X139035000Y-97563750D01*
X139036053Y-97542309D01*
X139039203Y-97521074D01*
X139044419Y-97500250D01*
X139051651Y-97480038D01*
X139060830Y-97460632D01*
X139071866Y-97442219D01*
X139084654Y-97424976D01*
X139099070Y-97409070D01*
X139114976Y-97394654D01*
X139132219Y-97381866D01*
X139150632Y-97370830D01*
X139170038Y-97361651D01*
X139190250Y-97354419D01*
X139211074Y-97349203D01*
X139232309Y-97346053D01*
X139253750Y-97345000D01*
X139691250Y-97345000D01*
X139712691Y-97346053D01*
X139712691Y-97346053D01*
G37*
D17*
X139472500Y-97820000D03*
D16*
G36*
X149687691Y-97346053D02*
G01*
X149708926Y-97349203D01*
X149729750Y-97354419D01*
X149749962Y-97361651D01*
X149769368Y-97370830D01*
X149787781Y-97381866D01*
X149805024Y-97394654D01*
X149820930Y-97409070D01*
X149835346Y-97424976D01*
X149848134Y-97442219D01*
X149859170Y-97460632D01*
X149868349Y-97480038D01*
X149875581Y-97500250D01*
X149880797Y-97521074D01*
X149883947Y-97542309D01*
X149885000Y-97563750D01*
X149885000Y-98076250D01*
X149883947Y-98097691D01*
X149880797Y-98118926D01*
X149875581Y-98139750D01*
X149868349Y-98159962D01*
X149859170Y-98179368D01*
X149848134Y-98197781D01*
X149835346Y-98215024D01*
X149820930Y-98230930D01*
X149805024Y-98245346D01*
X149787781Y-98258134D01*
X149769368Y-98269170D01*
X149749962Y-98278349D01*
X149729750Y-98285581D01*
X149708926Y-98290797D01*
X149687691Y-98293947D01*
X149666250Y-98295000D01*
X149228750Y-98295000D01*
X149207309Y-98293947D01*
X149186074Y-98290797D01*
X149165250Y-98285581D01*
X149145038Y-98278349D01*
X149125632Y-98269170D01*
X149107219Y-98258134D01*
X149089976Y-98245346D01*
X149074070Y-98230930D01*
X149059654Y-98215024D01*
X149046866Y-98197781D01*
X149035830Y-98179368D01*
X149026651Y-98159962D01*
X149019419Y-98139750D01*
X149014203Y-98118926D01*
X149011053Y-98097691D01*
X149010000Y-98076250D01*
X149010000Y-97563750D01*
X149011053Y-97542309D01*
X149014203Y-97521074D01*
X149019419Y-97500250D01*
X149026651Y-97480038D01*
X149035830Y-97460632D01*
X149046866Y-97442219D01*
X149059654Y-97424976D01*
X149074070Y-97409070D01*
X149089976Y-97394654D01*
X149107219Y-97381866D01*
X149125632Y-97370830D01*
X149145038Y-97361651D01*
X149165250Y-97354419D01*
X149186074Y-97349203D01*
X149207309Y-97346053D01*
X149228750Y-97345000D01*
X149666250Y-97345000D01*
X149687691Y-97346053D01*
X149687691Y-97346053D01*
G37*
D17*
X149447500Y-97820000D03*
D16*
G36*
X148112691Y-97346053D02*
G01*
X148133926Y-97349203D01*
X148154750Y-97354419D01*
X148174962Y-97361651D01*
X148194368Y-97370830D01*
X148212781Y-97381866D01*
X148230024Y-97394654D01*
X148245930Y-97409070D01*
X148260346Y-97424976D01*
X148273134Y-97442219D01*
X148284170Y-97460632D01*
X148293349Y-97480038D01*
X148300581Y-97500250D01*
X148305797Y-97521074D01*
X148308947Y-97542309D01*
X148310000Y-97563750D01*
X148310000Y-98076250D01*
X148308947Y-98097691D01*
X148305797Y-98118926D01*
X148300581Y-98139750D01*
X148293349Y-98159962D01*
X148284170Y-98179368D01*
X148273134Y-98197781D01*
X148260346Y-98215024D01*
X148245930Y-98230930D01*
X148230024Y-98245346D01*
X148212781Y-98258134D01*
X148194368Y-98269170D01*
X148174962Y-98278349D01*
X148154750Y-98285581D01*
X148133926Y-98290797D01*
X148112691Y-98293947D01*
X148091250Y-98295000D01*
X147653750Y-98295000D01*
X147632309Y-98293947D01*
X147611074Y-98290797D01*
X147590250Y-98285581D01*
X147570038Y-98278349D01*
X147550632Y-98269170D01*
X147532219Y-98258134D01*
X147514976Y-98245346D01*
X147499070Y-98230930D01*
X147484654Y-98215024D01*
X147471866Y-98197781D01*
X147460830Y-98179368D01*
X147451651Y-98159962D01*
X147444419Y-98139750D01*
X147439203Y-98118926D01*
X147436053Y-98097691D01*
X147435000Y-98076250D01*
X147435000Y-97563750D01*
X147436053Y-97542309D01*
X147439203Y-97521074D01*
X147444419Y-97500250D01*
X147451651Y-97480038D01*
X147460830Y-97460632D01*
X147471866Y-97442219D01*
X147484654Y-97424976D01*
X147499070Y-97409070D01*
X147514976Y-97394654D01*
X147532219Y-97381866D01*
X147550632Y-97370830D01*
X147570038Y-97361651D01*
X147590250Y-97354419D01*
X147611074Y-97349203D01*
X147632309Y-97346053D01*
X147653750Y-97345000D01*
X148091250Y-97345000D01*
X148112691Y-97346053D01*
X148112691Y-97346053D01*
G37*
D17*
X147872500Y-97820000D03*
D18*
X157690000Y-102950000D03*
D19*
X157690000Y-108030000D03*
D18*
X159450000Y-97870000D03*
D19*
X154370000Y-97870000D03*
D18*
X142870000Y-97840000D03*
D19*
X137790000Y-97840000D03*
D18*
X151220000Y-97840000D03*
D19*
X146140000Y-97840000D03*
D20*
X123490000Y-111800000D03*
X138590000Y-110010000D03*
X135100000Y-109220000D03*
X138880000Y-107940000D03*
X172310000Y-111490000D03*
D21*
X144300000Y-114220000D02*
X142240000Y-114220000D01*
X142250000Y-120120000D02*
X142220000Y-120090000D01*
X144350000Y-120120000D02*
X142250000Y-120120000D01*
X159530000Y-120090000D02*
X157410000Y-120090000D01*
X157420000Y-114250000D02*
X157370000Y-114200000D01*
X159510000Y-114250000D02*
X157420000Y-114250000D01*
X154420000Y-97920000D02*
X154370000Y-97870000D01*
X156122500Y-97920000D02*
X154420000Y-97920000D01*
X144350000Y-120120000D02*
X144350000Y-114270000D01*
X159510000Y-114250000D02*
X159510000Y-120070000D01*
X144300000Y-112060000D02*
X144300000Y-114220000D01*
X143910000Y-111670000D02*
X144300000Y-112060000D01*
X143910000Y-111670000D02*
X159200000Y-111670000D01*
X159510000Y-111980000D02*
X159510000Y-114250000D01*
X159200000Y-111670000D02*
X159510000Y-111980000D01*
X137790000Y-96850051D02*
X138480051Y-96160000D01*
X137790000Y-97840000D02*
X137790000Y-96850051D01*
X138480051Y-96160000D02*
X145500000Y-96160000D01*
X146140000Y-96800000D02*
X146140000Y-97830000D01*
X145500000Y-96160000D02*
X146140000Y-96800000D01*
X145500000Y-96160000D02*
X153890000Y-96160000D01*
X154370000Y-96640000D02*
X154370000Y-97870000D01*
X153890000Y-96160000D02*
X154370000Y-96640000D01*
X138850000Y-111670000D02*
X143910000Y-111670000D01*
X137790000Y-97840000D02*
X137790000Y-110610000D01*
X137790000Y-110610000D02*
X138850000Y-111670000D01*
X139452500Y-97840000D02*
X139472500Y-97820000D01*
X137790000Y-97840000D02*
X139452500Y-97840000D01*
X147852500Y-97840000D02*
X147872500Y-97820000D01*
X146140000Y-97840000D02*
X147852500Y-97840000D01*
X136680000Y-114220000D02*
X138940000Y-114220000D01*
X154020000Y-114250000D02*
X154070000Y-114200000D01*
X151890000Y-114250000D02*
X154020000Y-114250000D01*
X138890000Y-120120000D02*
X138920000Y-120090000D01*
X136730000Y-120120000D02*
X138890000Y-120120000D01*
X151910000Y-120090000D02*
X154110000Y-120090000D01*
X152120000Y-93960000D02*
X152120000Y-92150000D01*
X132035000Y-109550000D02*
X133085000Y-109550000D01*
X136540010Y-106094990D02*
X136540010Y-95499990D01*
X136540010Y-95499990D02*
X137420000Y-94620000D01*
X137420000Y-94620000D02*
X151460000Y-94620000D01*
X133085000Y-109550000D02*
X136540010Y-106094990D01*
X151460000Y-94620000D02*
X152120000Y-93960000D01*
X133166370Y-107260000D02*
X136090000Y-104336370D01*
X132035000Y-107260000D02*
X133166370Y-107260000D01*
X136090000Y-104336370D02*
X136090000Y-92390000D01*
X136090000Y-92390000D02*
X137620000Y-90860000D01*
X144830000Y-90860000D02*
X146120000Y-92150000D01*
X137620000Y-90860000D02*
X144830000Y-90860000D01*
X164955000Y-107720000D02*
X161380000Y-111295000D01*
X161380000Y-111295000D02*
X161380000Y-120820000D01*
X161380000Y-120820000D02*
X160570000Y-121630000D01*
X160570000Y-121630000D02*
X135070000Y-121630000D01*
X135070000Y-121630000D02*
X134240000Y-120800000D01*
X134240000Y-120800000D02*
X134240000Y-116160000D01*
X134240000Y-116160000D02*
X132160000Y-114080000D01*
X132160000Y-114080000D02*
X125770000Y-114080000D01*
X125770000Y-114080000D02*
X123890000Y-112200000D01*
X123890000Y-112200000D02*
X123490000Y-111800000D01*
X123490000Y-111800000D02*
X123490000Y-111800000D01*
X167185000Y-92950000D02*
X166900000Y-92665000D01*
X167185000Y-99705000D02*
X167185000Y-101995000D01*
X167185000Y-104285000D02*
X167185000Y-101995000D01*
X164955000Y-110010000D02*
X166900000Y-111955000D01*
X166900000Y-110281370D02*
X166900000Y-112040000D01*
X167185000Y-109996370D02*
X166900000Y-110281370D01*
X167185000Y-108865000D02*
X167185000Y-109996370D01*
X166900000Y-111955000D02*
X166900000Y-112040000D01*
X166900000Y-112040000D02*
X166900000Y-117665000D01*
X130090000Y-110980000D02*
X129805000Y-110695000D01*
X129805000Y-108405000D02*
X129805000Y-110695000D01*
X129805000Y-106115000D02*
X129805000Y-108405000D01*
X130950000Y-100390000D02*
X132035000Y-100390000D01*
X130090000Y-100120000D02*
X130655000Y-100685000D01*
X130090000Y-92735000D02*
X130090000Y-100120000D01*
X129805000Y-101535000D02*
X130655000Y-100685000D01*
X130655000Y-100685000D02*
X130950000Y-100390000D01*
X125495000Y-92735000D02*
X130090000Y-92735000D01*
X123350000Y-94880000D02*
X125495000Y-92735000D01*
X130090000Y-120563427D02*
X131776573Y-122250000D01*
X130090000Y-117735000D02*
X130090000Y-120563427D01*
X131776573Y-122250000D02*
X165320000Y-122250000D01*
X166900000Y-120670000D02*
X166900000Y-117665000D01*
X165320000Y-122250000D02*
X166900000Y-120670000D01*
X124435000Y-106115000D02*
X123350000Y-105030000D01*
X129805000Y-106115000D02*
X124435000Y-106115000D01*
X123350000Y-105030000D02*
X123350000Y-94880000D01*
X122050000Y-106330000D02*
X123350000Y-105030000D01*
X122050000Y-115270000D02*
X122050000Y-106330000D01*
X130090000Y-117735000D02*
X124515000Y-117735000D01*
X124515000Y-117735000D02*
X122050000Y-115270000D01*
X170225000Y-92665000D02*
X166900000Y-92665000D01*
X169728427Y-117665000D02*
X172880000Y-114513427D01*
X166900000Y-117665000D02*
X169728427Y-117665000D01*
X172880000Y-114513427D02*
X172886573Y-114513427D01*
X172886573Y-114513427D02*
X173630000Y-113770000D01*
X173630000Y-113770000D02*
X173630000Y-96070000D01*
X173630000Y-96070000D02*
X170225000Y-92665000D01*
X138989999Y-110409999D02*
X138999999Y-110409999D01*
X138590000Y-110010000D02*
X138989999Y-110409999D01*
X138999999Y-110409999D02*
X139610000Y-111020000D01*
X168640001Y-101649999D02*
X169440000Y-100850000D01*
X168310001Y-101979999D02*
X168640001Y-101649999D01*
X168310001Y-104825001D02*
X168310001Y-101979999D01*
X167725001Y-105410001D02*
X168310001Y-104825001D01*
X166684997Y-105410001D02*
X167725001Y-105410001D01*
X164454997Y-106555001D02*
X165539997Y-106555001D01*
X165539997Y-106555001D02*
X166684997Y-105410001D01*
X159989998Y-111020000D02*
X164454997Y-106555001D01*
X139610000Y-111020000D02*
X159989998Y-111020000D01*
X128679999Y-111235001D02*
X129294998Y-111850000D01*
X127550000Y-107260000D02*
X128679999Y-108389999D01*
X128679999Y-108389999D02*
X128679999Y-111235001D01*
X132470000Y-111850000D02*
X135100000Y-109220000D01*
X129294998Y-111850000D02*
X132470000Y-111850000D01*
X138880000Y-107940000D02*
X138880000Y-105800000D01*
X138880000Y-105110000D02*
X144800000Y-99190000D01*
X138880000Y-105800000D02*
X138880000Y-105110000D01*
X144800000Y-99190000D02*
X163100000Y-99190000D01*
X163100000Y-99190000D02*
X165400000Y-96890000D01*
X170571370Y-103140000D02*
X171090000Y-102621370D01*
X169440000Y-103140000D02*
X170571370Y-103140000D01*
X171090000Y-102621370D02*
X171090000Y-97600000D01*
X170380000Y-96890000D02*
X165400000Y-96890000D01*
X171090000Y-97600000D02*
X170380000Y-96890000D01*
X170830000Y-110010000D02*
X172310000Y-111490000D01*
X169440000Y-110010000D02*
X170830000Y-110010000D01*
X144690000Y-101340000D02*
X146330000Y-99700000D01*
X163905000Y-100850000D02*
X164955000Y-100850000D01*
X162755000Y-99700000D02*
X163905000Y-100850000D01*
X146330000Y-99700000D02*
X152080000Y-99700000D01*
X152080000Y-99700000D02*
X162755000Y-99700000D01*
X157690000Y-106297500D02*
X157700000Y-106287500D01*
X157690000Y-108030000D02*
X157690000Y-106297500D01*
X152310000Y-101340000D02*
X158780000Y-101340000D01*
X158780000Y-101340000D02*
X159430000Y-101990000D01*
X159430000Y-101990000D02*
X159430000Y-107580000D01*
X158980000Y-108030000D02*
X157690000Y-108030000D01*
X159430000Y-107580000D02*
X158980000Y-108030000D01*
X159430000Y-101990000D02*
X161440000Y-101990000D01*
X162590000Y-103140000D02*
X164955000Y-103140000D01*
X161440000Y-101990000D02*
X162590000Y-103140000D01*
X149467500Y-97840000D02*
X149447500Y-97820000D01*
X151220000Y-97840000D02*
X149467500Y-97840000D01*
X141067500Y-97840000D02*
X141047500Y-97820000D01*
X142870000Y-97840000D02*
X141067500Y-97840000D01*
X157747500Y-97870000D02*
X157697500Y-97920000D01*
X159450000Y-97870000D02*
X157747500Y-97870000D01*
X150120000Y-90781370D02*
X150298630Y-90960000D01*
X150120000Y-89650000D02*
X150120000Y-90781370D01*
X150298630Y-90960000D02*
X158740000Y-90960000D01*
X159450000Y-91670000D02*
X159450000Y-97870000D01*
X158740000Y-90960000D02*
X159450000Y-91670000D01*
X157690000Y-104702500D02*
X157700000Y-104712500D01*
X157690000Y-102950000D02*
X157690000Y-104702500D01*
X147708630Y-102950000D02*
X157690000Y-102950000D01*
X147230000Y-101340000D02*
X147230000Y-102471370D01*
X147230000Y-102471370D02*
X147708630Y-102950000D01*
D22*
G36*
X140507439Y-87400166D02*
G01*
X140435000Y-87764344D01*
X140435000Y-88135656D01*
X140507439Y-88499834D01*
X140649534Y-88842882D01*
X140855825Y-89151618D01*
X141118382Y-89414175D01*
X141427118Y-89620466D01*
X141770166Y-89762561D01*
X142134344Y-89835000D01*
X142505656Y-89835000D01*
X142686529Y-89799022D01*
X142740147Y-90068574D01*
X142753164Y-90100000D01*
X137657325Y-90100000D01*
X137620000Y-90096324D01*
X137582675Y-90100000D01*
X137582667Y-90100000D01*
X137471014Y-90110997D01*
X137327753Y-90154454D01*
X137195724Y-90225026D01*
X137079999Y-90319999D01*
X137056201Y-90348997D01*
X135578998Y-91826201D01*
X135550000Y-91849999D01*
X135526202Y-91878997D01*
X135526201Y-91878998D01*
X135455026Y-91965724D01*
X135384454Y-92097754D01*
X135340998Y-92241015D01*
X135326324Y-92390000D01*
X135330001Y-92427332D01*
X135330000Y-104021568D01*
X133077982Y-106273586D01*
X132949759Y-106145363D01*
X132904317Y-106115000D01*
X132949759Y-106084637D01*
X133149637Y-105884759D01*
X133306680Y-105649727D01*
X133414853Y-105388574D01*
X133470000Y-105111335D01*
X133470000Y-104828665D01*
X133414853Y-104551426D01*
X133306680Y-104290273D01*
X133149637Y-104055241D01*
X132949759Y-103855363D01*
X132904317Y-103825000D01*
X132949759Y-103794637D01*
X133149637Y-103594759D01*
X133306680Y-103359727D01*
X133414853Y-103098574D01*
X133470000Y-102821335D01*
X133470000Y-102538665D01*
X133414853Y-102261426D01*
X133306680Y-102000273D01*
X133149637Y-101765241D01*
X132949759Y-101565363D01*
X132819951Y-101478628D01*
X132848097Y-101382702D01*
X132035000Y-100569605D01*
X132020858Y-100583748D01*
X131841253Y-100404143D01*
X131855395Y-100390000D01*
X132214605Y-100390000D01*
X133027702Y-101203097D01*
X133271671Y-101131514D01*
X133392571Y-100876004D01*
X133461300Y-100601816D01*
X133475217Y-100319488D01*
X133433787Y-100039870D01*
X133338603Y-99773708D01*
X133271671Y-99648486D01*
X133027702Y-99576903D01*
X132214605Y-100390000D01*
X131855395Y-100390000D01*
X131042298Y-99576903D01*
X130798329Y-99648486D01*
X130677429Y-99903996D01*
X130608700Y-100178184D01*
X130594783Y-100460512D01*
X130595480Y-100465213D01*
X130546514Y-100298329D01*
X130291004Y-100177429D01*
X130016816Y-100108700D01*
X129734488Y-100094783D01*
X129454870Y-100136213D01*
X129188708Y-100231397D01*
X129063486Y-100298329D01*
X128991903Y-100542296D01*
X128984327Y-100534720D01*
X128985000Y-100531335D01*
X128985000Y-100248665D01*
X128929853Y-99971426D01*
X128821680Y-99710273D01*
X128664637Y-99475241D01*
X128586694Y-99397298D01*
X131221903Y-99397298D01*
X132035000Y-100210395D01*
X132848097Y-99397298D01*
X132776514Y-99153329D01*
X132521004Y-99032429D01*
X132246816Y-98963700D01*
X131964488Y-98949783D01*
X131684870Y-98991213D01*
X131418708Y-99086397D01*
X131293486Y-99153329D01*
X131221903Y-99397298D01*
X128586694Y-99397298D01*
X128464759Y-99275363D01*
X128229727Y-99118320D01*
X127968574Y-99010147D01*
X127691335Y-98955000D01*
X127408665Y-98955000D01*
X127131426Y-99010147D01*
X126870273Y-99118320D01*
X126635241Y-99275363D01*
X126435363Y-99475241D01*
X126278320Y-99710273D01*
X126170147Y-99971426D01*
X126115000Y-100248665D01*
X126115000Y-100531335D01*
X126170147Y-100808574D01*
X126278320Y-101069727D01*
X126435363Y-101304759D01*
X126635241Y-101504637D01*
X126680683Y-101535000D01*
X126635241Y-101565363D01*
X126435363Y-101765241D01*
X126278320Y-102000273D01*
X126170147Y-102261426D01*
X126115000Y-102538665D01*
X126115000Y-102821335D01*
X126170147Y-103098574D01*
X126278320Y-103359727D01*
X126435363Y-103594759D01*
X126635241Y-103794637D01*
X126680683Y-103825000D01*
X126635241Y-103855363D01*
X126435363Y-104055241D01*
X126278320Y-104290273D01*
X126170147Y-104551426D01*
X126115000Y-104828665D01*
X126115000Y-105111335D01*
X126170147Y-105388574D01*
X126278320Y-105649727D01*
X126435363Y-105884759D01*
X126635241Y-106084637D01*
X126680683Y-106115000D01*
X126635241Y-106145363D01*
X126435363Y-106345241D01*
X126278320Y-106580273D01*
X126170147Y-106841426D01*
X126115000Y-107118665D01*
X126115000Y-107401335D01*
X126170147Y-107678574D01*
X126278320Y-107939727D01*
X126435363Y-108174759D01*
X126635241Y-108374637D01*
X126680683Y-108405000D01*
X126635241Y-108435363D01*
X126435363Y-108635241D01*
X126278320Y-108870273D01*
X126170147Y-109131426D01*
X126115000Y-109408665D01*
X126115000Y-109691335D01*
X126170147Y-109968574D01*
X126278320Y-110229727D01*
X126435363Y-110464759D01*
X126635241Y-110664637D01*
X126870273Y-110821680D01*
X127131426Y-110929853D01*
X127408665Y-110985000D01*
X127691335Y-110985000D01*
X127920000Y-110939515D01*
X127920000Y-111197669D01*
X127916323Y-111235001D01*
X127920000Y-111272334D01*
X127930997Y-111383987D01*
X127938520Y-111408787D01*
X127974453Y-111527247D01*
X128045025Y-111659277D01*
X128116200Y-111746003D01*
X128139999Y-111775002D01*
X128168997Y-111798800D01*
X128731198Y-112361002D01*
X128754997Y-112390001D01*
X128783995Y-112413799D01*
X128870721Y-112484974D01*
X128945604Y-112525000D01*
X129002751Y-112555546D01*
X129146012Y-112599003D01*
X129257665Y-112610000D01*
X129257675Y-112610000D01*
X129294998Y-112613676D01*
X129332321Y-112610000D01*
X132432678Y-112610000D01*
X132470000Y-112613676D01*
X132507322Y-112610000D01*
X132507333Y-112610000D01*
X132618986Y-112599003D01*
X132762247Y-112555546D01*
X132894276Y-112484974D01*
X133010001Y-112390001D01*
X133033804Y-112360997D01*
X135139802Y-110255000D01*
X135201939Y-110255000D01*
X135401898Y-110215226D01*
X135590256Y-110137205D01*
X135759774Y-110023937D01*
X135903937Y-109879774D01*
X136017205Y-109710256D01*
X136095226Y-109521898D01*
X136135000Y-109321939D01*
X136135000Y-109118061D01*
X136095226Y-108918102D01*
X136017205Y-108729744D01*
X135903937Y-108560226D01*
X135759774Y-108416063D01*
X135590256Y-108302795D01*
X135460679Y-108249122D01*
X137030001Y-106679801D01*
X137030001Y-110572668D01*
X137026324Y-110610000D01*
X137030001Y-110647333D01*
X137040998Y-110758986D01*
X137042978Y-110765512D01*
X137084454Y-110902246D01*
X137155026Y-111034276D01*
X137209783Y-111100997D01*
X137250000Y-111150001D01*
X137278998Y-111173799D01*
X138286205Y-112181008D01*
X138309999Y-112210001D01*
X138338992Y-112233795D01*
X138338996Y-112233799D01*
X138388318Y-112274276D01*
X138425724Y-112304974D01*
X138557753Y-112375546D01*
X138701014Y-112419003D01*
X138812667Y-112430000D01*
X138812676Y-112430000D01*
X138849999Y-112433676D01*
X138887322Y-112430000D01*
X143540000Y-112430000D01*
X143540000Y-112999099D01*
X143498899Y-113021068D01*
X143280392Y-113200392D01*
X143223068Y-113270241D01*
X143220537Y-113265506D01*
X143141185Y-113168815D01*
X143044494Y-113089463D01*
X142934180Y-113030498D01*
X142814482Y-112994188D01*
X142690000Y-112981928D01*
X141790000Y-112981928D01*
X141665518Y-112994188D01*
X141545820Y-113030498D01*
X141435506Y-113089463D01*
X141338815Y-113168815D01*
X141259463Y-113265506D01*
X141200498Y-113375820D01*
X141164188Y-113495518D01*
X141151928Y-113620000D01*
X141151928Y-114820000D01*
X141164188Y-114944482D01*
X141200498Y-115064180D01*
X141259463Y-115174494D01*
X141338815Y-115271185D01*
X141435506Y-115350537D01*
X141545820Y-115409502D01*
X141665518Y-115445812D01*
X141790000Y-115458072D01*
X142690000Y-115458072D01*
X142814482Y-115445812D01*
X142934180Y-115409502D01*
X143044494Y-115350537D01*
X143141185Y-115271185D01*
X143220537Y-115174494D01*
X143223068Y-115169759D01*
X143280392Y-115239608D01*
X143498899Y-115418932D01*
X143590001Y-115467627D01*
X143590000Y-118899099D01*
X143548899Y-118921068D01*
X143330392Y-119100392D01*
X143240388Y-119210062D01*
X143200537Y-119135506D01*
X143121185Y-119038815D01*
X143024494Y-118959463D01*
X142914180Y-118900498D01*
X142794482Y-118864188D01*
X142670000Y-118851928D01*
X141770000Y-118851928D01*
X141645518Y-118864188D01*
X141525820Y-118900498D01*
X141415506Y-118959463D01*
X141318815Y-119038815D01*
X141239463Y-119135506D01*
X141180498Y-119245820D01*
X141144188Y-119365518D01*
X141131928Y-119490000D01*
X141131928Y-120690000D01*
X141144188Y-120814482D01*
X141161029Y-120870000D01*
X139978971Y-120870000D01*
X139995812Y-120814482D01*
X140008072Y-120690000D01*
X140008072Y-119490000D01*
X139995812Y-119365518D01*
X139959502Y-119245820D01*
X139900537Y-119135506D01*
X139821185Y-119038815D01*
X139724494Y-118959463D01*
X139614180Y-118900498D01*
X139494482Y-118864188D01*
X139370000Y-118851928D01*
X138470000Y-118851928D01*
X138345518Y-118864188D01*
X138225820Y-118900498D01*
X138115506Y-118959463D01*
X138075053Y-118992662D01*
X138060537Y-118965506D01*
X137981185Y-118868815D01*
X137884494Y-118789463D01*
X137774180Y-118730498D01*
X137654482Y-118694188D01*
X137530000Y-118681928D01*
X135930000Y-118681928D01*
X135805518Y-118694188D01*
X135685820Y-118730498D01*
X135575506Y-118789463D01*
X135478815Y-118868815D01*
X135399463Y-118965506D01*
X135340498Y-119075820D01*
X135304188Y-119195518D01*
X135291928Y-119320000D01*
X135291928Y-120777126D01*
X135000000Y-120485199D01*
X135000000Y-116197322D01*
X135003676Y-116159999D01*
X135000000Y-116122676D01*
X135000000Y-116122667D01*
X134989003Y-116011014D01*
X134945546Y-115867753D01*
X134874974Y-115735724D01*
X134780001Y-115619999D01*
X134751003Y-115596201D01*
X132723804Y-113569003D01*
X132700001Y-113539999D01*
X132584276Y-113445026D01*
X132537457Y-113420000D01*
X135241928Y-113420000D01*
X135241928Y-115020000D01*
X135254188Y-115144482D01*
X135290498Y-115264180D01*
X135349463Y-115374494D01*
X135428815Y-115471185D01*
X135525506Y-115550537D01*
X135635820Y-115609502D01*
X135755518Y-115645812D01*
X135880000Y-115658072D01*
X137480000Y-115658072D01*
X137604482Y-115645812D01*
X137724180Y-115609502D01*
X137834494Y-115550537D01*
X137931185Y-115471185D01*
X138010537Y-115374494D01*
X138057543Y-115286554D01*
X138135506Y-115350537D01*
X138245820Y-115409502D01*
X138365518Y-115445812D01*
X138490000Y-115458072D01*
X139390000Y-115458072D01*
X139514482Y-115445812D01*
X139634180Y-115409502D01*
X139744494Y-115350537D01*
X139841185Y-115271185D01*
X139920537Y-115174494D01*
X139979502Y-115064180D01*
X140015812Y-114944482D01*
X140028072Y-114820000D01*
X140028072Y-113620000D01*
X140015812Y-113495518D01*
X139979502Y-113375820D01*
X139920537Y-113265506D01*
X139841185Y-113168815D01*
X139744494Y-113089463D01*
X139634180Y-113030498D01*
X139514482Y-112994188D01*
X139390000Y-112981928D01*
X138490000Y-112981928D01*
X138365518Y-112994188D01*
X138245820Y-113030498D01*
X138135506Y-113089463D01*
X138057543Y-113153446D01*
X138010537Y-113065506D01*
X137931185Y-112968815D01*
X137834494Y-112889463D01*
X137724180Y-112830498D01*
X137604482Y-112794188D01*
X137480000Y-112781928D01*
X135880000Y-112781928D01*
X135755518Y-112794188D01*
X135635820Y-112830498D01*
X135525506Y-112889463D01*
X135428815Y-112968815D01*
X135349463Y-113065506D01*
X135290498Y-113175820D01*
X135254188Y-113295518D01*
X135241928Y-113420000D01*
X132537457Y-113420000D01*
X132452247Y-113374454D01*
X132308986Y-113330997D01*
X132197333Y-113320000D01*
X132197322Y-113320000D01*
X132160000Y-113316324D01*
X132122678Y-113320000D01*
X126084803Y-113320000D01*
X124525000Y-111760199D01*
X124525000Y-111698061D01*
X124485226Y-111498102D01*
X124407205Y-111309744D01*
X124293937Y-111140226D01*
X124149774Y-110996063D01*
X123980256Y-110882795D01*
X123791898Y-110804774D01*
X123591939Y-110765000D01*
X123388061Y-110765000D01*
X123188102Y-110804774D01*
X122999744Y-110882795D01*
X122830226Y-110996063D01*
X122686063Y-111140226D01*
X122572795Y-111309744D01*
X122494774Y-111498102D01*
X122455000Y-111698061D01*
X122455000Y-111901939D01*
X122494774Y-112101898D01*
X122572795Y-112290256D01*
X122686063Y-112459774D01*
X122830226Y-112603937D01*
X122999744Y-112717205D01*
X123188102Y-112795226D01*
X123388061Y-112835000D01*
X123450199Y-112835000D01*
X125206205Y-114591008D01*
X125229999Y-114620001D01*
X125258992Y-114643795D01*
X125258996Y-114643799D01*
X125296133Y-114674276D01*
X125345724Y-114714974D01*
X125477753Y-114785546D01*
X125621014Y-114829003D01*
X125732667Y-114840000D01*
X125732676Y-114840000D01*
X125769999Y-114843676D01*
X125807322Y-114840000D01*
X131845199Y-114840000D01*
X133480001Y-116474803D01*
X133480000Y-120762677D01*
X133476324Y-120800000D01*
X133480000Y-120837322D01*
X133480000Y-120837332D01*
X133490997Y-120948985D01*
X133519969Y-121044494D01*
X133534454Y-121092246D01*
X133605026Y-121224276D01*
X133621440Y-121244276D01*
X133699999Y-121340001D01*
X133729002Y-121363803D01*
X134506201Y-122141002D01*
X134529999Y-122170001D01*
X134645724Y-122264974D01*
X134777753Y-122335546D01*
X134921014Y-122379003D01*
X135032667Y-122390000D01*
X135032676Y-122390000D01*
X135069999Y-122393676D01*
X135107322Y-122390000D01*
X160532678Y-122390000D01*
X160570000Y-122393676D01*
X160607322Y-122390000D01*
X160607333Y-122390000D01*
X160718986Y-122379003D01*
X160862247Y-122335546D01*
X160994276Y-122264974D01*
X161110001Y-122170001D01*
X161133803Y-122140998D01*
X161891002Y-121383799D01*
X161920001Y-121360001D01*
X161946332Y-121327917D01*
X162014974Y-121244277D01*
X162085546Y-121112247D01*
X162129003Y-120968986D01*
X162140000Y-120857333D01*
X162140000Y-120857323D01*
X162143676Y-120820000D01*
X162140000Y-120782678D01*
X162140000Y-119512499D01*
X165232106Y-119512499D01*
X165448228Y-119879258D01*
X165908105Y-120119938D01*
X166406098Y-120266275D01*
X166923071Y-120312648D01*
X167439159Y-120257273D01*
X167934526Y-120102279D01*
X168351772Y-119879258D01*
X168567894Y-119512499D01*
X166900000Y-117844605D01*
X165232106Y-119512499D01*
X162140000Y-119512499D01*
X162140000Y-117688071D01*
X164252352Y-117688071D01*
X164307727Y-118204159D01*
X164462721Y-118699526D01*
X164685742Y-119116772D01*
X165052501Y-119332894D01*
X166720395Y-117665000D01*
X167079605Y-117665000D01*
X168747499Y-119332894D01*
X169114258Y-119116772D01*
X169354938Y-118656895D01*
X169501275Y-118158902D01*
X169547648Y-117641929D01*
X169492273Y-117125841D01*
X169337279Y-116630474D01*
X169114258Y-116213228D01*
X168747499Y-115997106D01*
X167079605Y-117665000D01*
X166720395Y-117665000D01*
X165052501Y-115997106D01*
X164685742Y-116213228D01*
X164445062Y-116673105D01*
X164298725Y-117171098D01*
X164252352Y-117688071D01*
X162140000Y-117688071D01*
X162140000Y-115817501D01*
X165232106Y-115817501D01*
X166900000Y-117485395D01*
X168567894Y-115817501D01*
X168351772Y-115450742D01*
X167891895Y-115210062D01*
X167393902Y-115063725D01*
X166876929Y-115017352D01*
X166360841Y-115072727D01*
X165865474Y-115227721D01*
X165448228Y-115450742D01*
X165232106Y-115817501D01*
X162140000Y-115817501D01*
X162140000Y-111609801D01*
X162747099Y-111002702D01*
X164141903Y-111002702D01*
X164213486Y-111246671D01*
X164468996Y-111367571D01*
X164743184Y-111436300D01*
X165025512Y-111450217D01*
X165305130Y-111408787D01*
X165571292Y-111313603D01*
X165696514Y-111246671D01*
X165768097Y-111002702D01*
X164955000Y-110189605D01*
X164141903Y-111002702D01*
X162747099Y-111002702D01*
X163534722Y-110215080D01*
X163556213Y-110360130D01*
X163651397Y-110626292D01*
X163718329Y-110751514D01*
X163962298Y-110823097D01*
X164775395Y-110010000D01*
X164761253Y-109995858D01*
X164940858Y-109816253D01*
X164955000Y-109830395D01*
X164969143Y-109816253D01*
X165148748Y-109995858D01*
X165134605Y-110010000D01*
X165947702Y-110823097D01*
X166191671Y-110751514D01*
X166312571Y-110496004D01*
X166381300Y-110221816D01*
X166395217Y-109939488D01*
X166394520Y-109934787D01*
X166443486Y-110101671D01*
X166698996Y-110222571D01*
X166973184Y-110291300D01*
X167255512Y-110305217D01*
X167535130Y-110263787D01*
X167801292Y-110168603D01*
X167926514Y-110101671D01*
X167998097Y-109857704D01*
X168005673Y-109865280D01*
X168005000Y-109868665D01*
X168005000Y-110151335D01*
X168060147Y-110428574D01*
X168168320Y-110689727D01*
X168325363Y-110924759D01*
X168525241Y-111124637D01*
X168760273Y-111281680D01*
X169021426Y-111389853D01*
X169298665Y-111445000D01*
X169581335Y-111445000D01*
X169858574Y-111389853D01*
X170119727Y-111281680D01*
X170354759Y-111124637D01*
X170554637Y-110924759D01*
X170600828Y-110855629D01*
X171275000Y-111529802D01*
X171275000Y-111591939D01*
X171314774Y-111791898D01*
X171392795Y-111980256D01*
X171506063Y-112149774D01*
X171650226Y-112293937D01*
X171819744Y-112407205D01*
X172008102Y-112485226D01*
X172208061Y-112525000D01*
X172411939Y-112525000D01*
X172611898Y-112485226D01*
X172800256Y-112407205D01*
X172969774Y-112293937D01*
X173113937Y-112149774D01*
X173227205Y-111980256D01*
X173305226Y-111791898D01*
X173345000Y-111591939D01*
X173345000Y-111388061D01*
X173305226Y-111188102D01*
X173227205Y-110999744D01*
X173113937Y-110830226D01*
X172969774Y-110686063D01*
X172800256Y-110572795D01*
X172611898Y-110494774D01*
X172411939Y-110455000D01*
X172349802Y-110455000D01*
X171393804Y-109499003D01*
X171370001Y-109469999D01*
X171254276Y-109375026D01*
X171122247Y-109304454D01*
X170978986Y-109260997D01*
X170867333Y-109250000D01*
X170867322Y-109250000D01*
X170830000Y-109246324D01*
X170792678Y-109250000D01*
X170658043Y-109250000D01*
X170554637Y-109095241D01*
X170354759Y-108895363D01*
X170309317Y-108865000D01*
X170354759Y-108834637D01*
X170554637Y-108634759D01*
X170711680Y-108399727D01*
X170819853Y-108138574D01*
X170875000Y-107861335D01*
X170875000Y-107578665D01*
X170819853Y-107301426D01*
X170711680Y-107040273D01*
X170554637Y-106805241D01*
X170354759Y-106605363D01*
X170309317Y-106575000D01*
X170354759Y-106544637D01*
X170554637Y-106344759D01*
X170711680Y-106109727D01*
X170819853Y-105848574D01*
X170875000Y-105571335D01*
X170875000Y-105288665D01*
X170819853Y-105011426D01*
X170711680Y-104750273D01*
X170554637Y-104515241D01*
X170354759Y-104315363D01*
X170309317Y-104285000D01*
X170354759Y-104254637D01*
X170554637Y-104054759D01*
X170661519Y-103894798D01*
X170720356Y-103889003D01*
X170863617Y-103845546D01*
X170995646Y-103774974D01*
X171111371Y-103680001D01*
X171135173Y-103650998D01*
X171601003Y-103185168D01*
X171630001Y-103161371D01*
X171724974Y-103045646D01*
X171795546Y-102913617D01*
X171839003Y-102770356D01*
X171850000Y-102658703D01*
X171850000Y-102658702D01*
X171853677Y-102621370D01*
X171850000Y-102584037D01*
X171850000Y-97637333D01*
X171853677Y-97600000D01*
X171839003Y-97451014D01*
X171795546Y-97307753D01*
X171724974Y-97175724D01*
X171653799Y-97088997D01*
X171630001Y-97059999D01*
X171601002Y-97036201D01*
X170943803Y-96379002D01*
X170920001Y-96349999D01*
X170804276Y-96255026D01*
X170672247Y-96184454D01*
X170528986Y-96140997D01*
X170417333Y-96130000D01*
X170417322Y-96130000D01*
X170380000Y-96126324D01*
X170342678Y-96130000D01*
X165437322Y-96130000D01*
X165399999Y-96126324D01*
X165362676Y-96130000D01*
X165362667Y-96130000D01*
X165251014Y-96140997D01*
X165107753Y-96184454D01*
X164975724Y-96255026D01*
X164859999Y-96349999D01*
X164836201Y-96378997D01*
X162785199Y-98430000D01*
X160664414Y-98430000D01*
X160689347Y-98383354D01*
X160765683Y-98131706D01*
X160791459Y-97870000D01*
X160765683Y-97608294D01*
X160689347Y-97356646D01*
X160565382Y-97124725D01*
X160398555Y-96921445D01*
X160210000Y-96766702D01*
X160210000Y-94512499D01*
X165232106Y-94512499D01*
X165448228Y-94879258D01*
X165908105Y-95119938D01*
X166406098Y-95266275D01*
X166923071Y-95312648D01*
X167439159Y-95257273D01*
X167934526Y-95102279D01*
X168351772Y-94879258D01*
X168567894Y-94512499D01*
X166900000Y-92844605D01*
X165232106Y-94512499D01*
X160210000Y-94512499D01*
X160210000Y-92688071D01*
X164252352Y-92688071D01*
X164307727Y-93204159D01*
X164462721Y-93699526D01*
X164685742Y-94116772D01*
X165052501Y-94332894D01*
X166720395Y-92665000D01*
X167079605Y-92665000D01*
X168747499Y-94332894D01*
X169114258Y-94116772D01*
X169354938Y-93656895D01*
X169501275Y-93158902D01*
X169547648Y-92641929D01*
X169492273Y-92125841D01*
X169337279Y-91630474D01*
X169114258Y-91213228D01*
X168747499Y-90997106D01*
X167079605Y-92665000D01*
X166720395Y-92665000D01*
X165052501Y-90997106D01*
X164685742Y-91213228D01*
X164445062Y-91673105D01*
X164298725Y-92171098D01*
X164252352Y-92688071D01*
X160210000Y-92688071D01*
X160210000Y-91707333D01*
X160213677Y-91670000D01*
X160199003Y-91521014D01*
X160155546Y-91377753D01*
X160084974Y-91245724D01*
X160013799Y-91158997D01*
X159990001Y-91129999D01*
X159961004Y-91106202D01*
X159672303Y-90817501D01*
X165232106Y-90817501D01*
X166900000Y-92485395D01*
X168567894Y-90817501D01*
X168351772Y-90450742D01*
X167891895Y-90210062D01*
X167393902Y-90063725D01*
X166876929Y-90017352D01*
X166360841Y-90072727D01*
X165865474Y-90227721D01*
X165448228Y-90450742D01*
X165232106Y-90817501D01*
X159672303Y-90817501D01*
X159303803Y-90449002D01*
X159280001Y-90419999D01*
X159164276Y-90325026D01*
X159032247Y-90254454D01*
X158888986Y-90210997D01*
X158777333Y-90200000D01*
X158777322Y-90200000D01*
X158740000Y-90196324D01*
X158702678Y-90200000D01*
X155445415Y-90200000D01*
X155499853Y-90068574D01*
X155555000Y-89791335D01*
X155555000Y-89508665D01*
X155499853Y-89231426D01*
X155391680Y-88970273D01*
X155234637Y-88735241D01*
X155034759Y-88535363D01*
X154799727Y-88378320D01*
X154538574Y-88270147D01*
X154261335Y-88215000D01*
X153978665Y-88215000D01*
X153701426Y-88270147D01*
X153440273Y-88378320D01*
X153205241Y-88535363D01*
X153120000Y-88620604D01*
X153034759Y-88535363D01*
X152799727Y-88378320D01*
X152538574Y-88270147D01*
X152261335Y-88215000D01*
X151978665Y-88215000D01*
X151701426Y-88270147D01*
X151440273Y-88378320D01*
X151205241Y-88535363D01*
X151120000Y-88620604D01*
X151034759Y-88535363D01*
X150799727Y-88378320D01*
X150538574Y-88270147D01*
X150261335Y-88215000D01*
X149978665Y-88215000D01*
X149701426Y-88270147D01*
X149440273Y-88378320D01*
X149205241Y-88535363D01*
X149120000Y-88620604D01*
X149034759Y-88535363D01*
X148799727Y-88378320D01*
X148538574Y-88270147D01*
X148261335Y-88215000D01*
X147978665Y-88215000D01*
X147701426Y-88270147D01*
X147440273Y-88378320D01*
X147205241Y-88535363D01*
X147120000Y-88620604D01*
X147034759Y-88535363D01*
X146799727Y-88378320D01*
X146538574Y-88270147D01*
X146261335Y-88215000D01*
X145978665Y-88215000D01*
X145701426Y-88270147D01*
X145440273Y-88378320D01*
X145205241Y-88535363D01*
X145120000Y-88620604D01*
X145034759Y-88535363D01*
X144799727Y-88378320D01*
X144538574Y-88270147D01*
X144261335Y-88215000D01*
X144189218Y-88215000D01*
X144205000Y-88135656D01*
X144205000Y-87764344D01*
X144132561Y-87400166D01*
X144006613Y-87096100D01*
X177633107Y-87096100D01*
X177676055Y-87139834D01*
X177670046Y-122866574D01*
X177626620Y-122910000D01*
X119371023Y-122910000D01*
X119326100Y-122865367D01*
X119326100Y-119582499D01*
X128422106Y-119582499D01*
X128638228Y-119949258D01*
X129098105Y-120189938D01*
X129596098Y-120336275D01*
X130113071Y-120382648D01*
X130629159Y-120327273D01*
X131124526Y-120172279D01*
X131541772Y-119949258D01*
X131757894Y-119582499D01*
X130090000Y-117914605D01*
X128422106Y-119582499D01*
X119326100Y-119582499D01*
X119326100Y-117758071D01*
X127442352Y-117758071D01*
X127497727Y-118274159D01*
X127652721Y-118769526D01*
X127875742Y-119186772D01*
X128242501Y-119402894D01*
X129910395Y-117735000D01*
X130269605Y-117735000D01*
X131937499Y-119402894D01*
X132304258Y-119186772D01*
X132544938Y-118726895D01*
X132691275Y-118228902D01*
X132737648Y-117711929D01*
X132682273Y-117195841D01*
X132527279Y-116700474D01*
X132304258Y-116283228D01*
X131937499Y-116067106D01*
X130269605Y-117735000D01*
X129910395Y-117735000D01*
X128242501Y-116067106D01*
X127875742Y-116283228D01*
X127635062Y-116743105D01*
X127488725Y-117241098D01*
X127442352Y-117758071D01*
X119326100Y-117758071D01*
X119326100Y-115887501D01*
X128422106Y-115887501D01*
X130090000Y-117555395D01*
X131757894Y-115887501D01*
X131541772Y-115520742D01*
X131081895Y-115280062D01*
X130583902Y-115133725D01*
X130066929Y-115087352D01*
X129550841Y-115142727D01*
X129055474Y-115297721D01*
X128638228Y-115520742D01*
X128422106Y-115887501D01*
X119326100Y-115887501D01*
X119326100Y-94582499D01*
X128422106Y-94582499D01*
X128638228Y-94949258D01*
X129098105Y-95189938D01*
X129596098Y-95336275D01*
X130113071Y-95382648D01*
X130629159Y-95327273D01*
X131124526Y-95172279D01*
X131541772Y-94949258D01*
X131757894Y-94582499D01*
X130090000Y-92914605D01*
X128422106Y-94582499D01*
X119326100Y-94582499D01*
X119326100Y-92758071D01*
X127442352Y-92758071D01*
X127497727Y-93274159D01*
X127652721Y-93769526D01*
X127875742Y-94186772D01*
X128242501Y-94402894D01*
X129910395Y-92735000D01*
X130269605Y-92735000D01*
X131937499Y-94402894D01*
X132304258Y-94186772D01*
X132544938Y-93726895D01*
X132691275Y-93228902D01*
X132737648Y-92711929D01*
X132682273Y-92195841D01*
X132527279Y-91700474D01*
X132304258Y-91283228D01*
X131937499Y-91067106D01*
X130269605Y-92735000D01*
X129910395Y-92735000D01*
X128242501Y-91067106D01*
X127875742Y-91283228D01*
X127635062Y-91743105D01*
X127488725Y-92241098D01*
X127442352Y-92758071D01*
X119326100Y-92758071D01*
X119326100Y-90887501D01*
X128422106Y-90887501D01*
X130090000Y-92555395D01*
X131757894Y-90887501D01*
X131541772Y-90520742D01*
X131081895Y-90280062D01*
X130583902Y-90133725D01*
X130066929Y-90087352D01*
X129550841Y-90142727D01*
X129055474Y-90297721D01*
X128638228Y-90520742D01*
X128422106Y-90887501D01*
X119326100Y-90887501D01*
X119326100Y-87143380D01*
X119373379Y-87096100D01*
X140633387Y-87096100D01*
X140507439Y-87400166D01*
X140507439Y-87400166D01*
G37*
X140507439Y-87400166D02*
X140435000Y-87764344D01*
X140435000Y-88135656D01*
X140507439Y-88499834D01*
X140649534Y-88842882D01*
X140855825Y-89151618D01*
X141118382Y-89414175D01*
X141427118Y-89620466D01*
X141770166Y-89762561D01*
X142134344Y-89835000D01*
X142505656Y-89835000D01*
X142686529Y-89799022D01*
X142740147Y-90068574D01*
X142753164Y-90100000D01*
X137657325Y-90100000D01*
X137620000Y-90096324D01*
X137582675Y-90100000D01*
X137582667Y-90100000D01*
X137471014Y-90110997D01*
X137327753Y-90154454D01*
X137195724Y-90225026D01*
X137079999Y-90319999D01*
X137056201Y-90348997D01*
X135578998Y-91826201D01*
X135550000Y-91849999D01*
X135526202Y-91878997D01*
X135526201Y-91878998D01*
X135455026Y-91965724D01*
X135384454Y-92097754D01*
X135340998Y-92241015D01*
X135326324Y-92390000D01*
X135330001Y-92427332D01*
X135330000Y-104021568D01*
X133077982Y-106273586D01*
X132949759Y-106145363D01*
X132904317Y-106115000D01*
X132949759Y-106084637D01*
X133149637Y-105884759D01*
X133306680Y-105649727D01*
X133414853Y-105388574D01*
X133470000Y-105111335D01*
X133470000Y-104828665D01*
X133414853Y-104551426D01*
X133306680Y-104290273D01*
X133149637Y-104055241D01*
X132949759Y-103855363D01*
X132904317Y-103825000D01*
X132949759Y-103794637D01*
X133149637Y-103594759D01*
X133306680Y-103359727D01*
X133414853Y-103098574D01*
X133470000Y-102821335D01*
X133470000Y-102538665D01*
X133414853Y-102261426D01*
X133306680Y-102000273D01*
X133149637Y-101765241D01*
X132949759Y-101565363D01*
X132819951Y-101478628D01*
X132848097Y-101382702D01*
X132035000Y-100569605D01*
X132020858Y-100583748D01*
X131841253Y-100404143D01*
X131855395Y-100390000D01*
X132214605Y-100390000D01*
X133027702Y-101203097D01*
X133271671Y-101131514D01*
X133392571Y-100876004D01*
X133461300Y-100601816D01*
X133475217Y-100319488D01*
X133433787Y-100039870D01*
X133338603Y-99773708D01*
X133271671Y-99648486D01*
X133027702Y-99576903D01*
X132214605Y-100390000D01*
X131855395Y-100390000D01*
X131042298Y-99576903D01*
X130798329Y-99648486D01*
X130677429Y-99903996D01*
X130608700Y-100178184D01*
X130594783Y-100460512D01*
X130595480Y-100465213D01*
X130546514Y-100298329D01*
X130291004Y-100177429D01*
X130016816Y-100108700D01*
X129734488Y-100094783D01*
X129454870Y-100136213D01*
X129188708Y-100231397D01*
X129063486Y-100298329D01*
X128991903Y-100542296D01*
X128984327Y-100534720D01*
X128985000Y-100531335D01*
X128985000Y-100248665D01*
X128929853Y-99971426D01*
X128821680Y-99710273D01*
X128664637Y-99475241D01*
X128586694Y-99397298D01*
X131221903Y-99397298D01*
X132035000Y-100210395D01*
X132848097Y-99397298D01*
X132776514Y-99153329D01*
X132521004Y-99032429D01*
X132246816Y-98963700D01*
X131964488Y-98949783D01*
X131684870Y-98991213D01*
X131418708Y-99086397D01*
X131293486Y-99153329D01*
X131221903Y-99397298D01*
X128586694Y-99397298D01*
X128464759Y-99275363D01*
X128229727Y-99118320D01*
X127968574Y-99010147D01*
X127691335Y-98955000D01*
X127408665Y-98955000D01*
X127131426Y-99010147D01*
X126870273Y-99118320D01*
X126635241Y-99275363D01*
X126435363Y-99475241D01*
X126278320Y-99710273D01*
X126170147Y-99971426D01*
X126115000Y-100248665D01*
X126115000Y-100531335D01*
X126170147Y-100808574D01*
X126278320Y-101069727D01*
X126435363Y-101304759D01*
X126635241Y-101504637D01*
X126680683Y-101535000D01*
X126635241Y-101565363D01*
X126435363Y-101765241D01*
X126278320Y-102000273D01*
X126170147Y-102261426D01*
X126115000Y-102538665D01*
X126115000Y-102821335D01*
X126170147Y-103098574D01*
X126278320Y-103359727D01*
X126435363Y-103594759D01*
X126635241Y-103794637D01*
X126680683Y-103825000D01*
X126635241Y-103855363D01*
X126435363Y-104055241D01*
X126278320Y-104290273D01*
X126170147Y-104551426D01*
X126115000Y-104828665D01*
X126115000Y-105111335D01*
X126170147Y-105388574D01*
X126278320Y-105649727D01*
X126435363Y-105884759D01*
X126635241Y-106084637D01*
X126680683Y-106115000D01*
X126635241Y-106145363D01*
X126435363Y-106345241D01*
X126278320Y-106580273D01*
X126170147Y-106841426D01*
X126115000Y-107118665D01*
X126115000Y-107401335D01*
X126170147Y-107678574D01*
X126278320Y-107939727D01*
X126435363Y-108174759D01*
X126635241Y-108374637D01*
X126680683Y-108405000D01*
X126635241Y-108435363D01*
X126435363Y-108635241D01*
X126278320Y-108870273D01*
X126170147Y-109131426D01*
X126115000Y-109408665D01*
X126115000Y-109691335D01*
X126170147Y-109968574D01*
X126278320Y-110229727D01*
X126435363Y-110464759D01*
X126635241Y-110664637D01*
X126870273Y-110821680D01*
X127131426Y-110929853D01*
X127408665Y-110985000D01*
X127691335Y-110985000D01*
X127920000Y-110939515D01*
X127920000Y-111197669D01*
X127916323Y-111235001D01*
X127920000Y-111272334D01*
X127930997Y-111383987D01*
X127938520Y-111408787D01*
X127974453Y-111527247D01*
X128045025Y-111659277D01*
X128116200Y-111746003D01*
X128139999Y-111775002D01*
X128168997Y-111798800D01*
X128731198Y-112361002D01*
X128754997Y-112390001D01*
X128783995Y-112413799D01*
X128870721Y-112484974D01*
X128945604Y-112525000D01*
X129002751Y-112555546D01*
X129146012Y-112599003D01*
X129257665Y-112610000D01*
X129257675Y-112610000D01*
X129294998Y-112613676D01*
X129332321Y-112610000D01*
X132432678Y-112610000D01*
X132470000Y-112613676D01*
X132507322Y-112610000D01*
X132507333Y-112610000D01*
X132618986Y-112599003D01*
X132762247Y-112555546D01*
X132894276Y-112484974D01*
X133010001Y-112390001D01*
X133033804Y-112360997D01*
X135139802Y-110255000D01*
X135201939Y-110255000D01*
X135401898Y-110215226D01*
X135590256Y-110137205D01*
X135759774Y-110023937D01*
X135903937Y-109879774D01*
X136017205Y-109710256D01*
X136095226Y-109521898D01*
X136135000Y-109321939D01*
X136135000Y-109118061D01*
X136095226Y-108918102D01*
X136017205Y-108729744D01*
X135903937Y-108560226D01*
X135759774Y-108416063D01*
X135590256Y-108302795D01*
X135460679Y-108249122D01*
X137030001Y-106679801D01*
X137030001Y-110572668D01*
X137026324Y-110610000D01*
X137030001Y-110647333D01*
X137040998Y-110758986D01*
X137042978Y-110765512D01*
X137084454Y-110902246D01*
X137155026Y-111034276D01*
X137209783Y-111100997D01*
X137250000Y-111150001D01*
X137278998Y-111173799D01*
X138286205Y-112181008D01*
X138309999Y-112210001D01*
X138338992Y-112233795D01*
X138338996Y-112233799D01*
X138388318Y-112274276D01*
X138425724Y-112304974D01*
X138557753Y-112375546D01*
X138701014Y-112419003D01*
X138812667Y-112430000D01*
X138812676Y-112430000D01*
X138849999Y-112433676D01*
X138887322Y-112430000D01*
X143540000Y-112430000D01*
X143540000Y-112999099D01*
X143498899Y-113021068D01*
X143280392Y-113200392D01*
X143223068Y-113270241D01*
X143220537Y-113265506D01*
X143141185Y-113168815D01*
X143044494Y-113089463D01*
X142934180Y-113030498D01*
X142814482Y-112994188D01*
X142690000Y-112981928D01*
X141790000Y-112981928D01*
X141665518Y-112994188D01*
X141545820Y-113030498D01*
X141435506Y-113089463D01*
X141338815Y-113168815D01*
X141259463Y-113265506D01*
X141200498Y-113375820D01*
X141164188Y-113495518D01*
X141151928Y-113620000D01*
X141151928Y-114820000D01*
X141164188Y-114944482D01*
X141200498Y-115064180D01*
X141259463Y-115174494D01*
X141338815Y-115271185D01*
X141435506Y-115350537D01*
X141545820Y-115409502D01*
X141665518Y-115445812D01*
X141790000Y-115458072D01*
X142690000Y-115458072D01*
X142814482Y-115445812D01*
X142934180Y-115409502D01*
X143044494Y-115350537D01*
X143141185Y-115271185D01*
X143220537Y-115174494D01*
X143223068Y-115169759D01*
X143280392Y-115239608D01*
X143498899Y-115418932D01*
X143590001Y-115467627D01*
X143590000Y-118899099D01*
X143548899Y-118921068D01*
X143330392Y-119100392D01*
X143240388Y-119210062D01*
X143200537Y-119135506D01*
X143121185Y-119038815D01*
X143024494Y-118959463D01*
X142914180Y-118900498D01*
X142794482Y-118864188D01*
X142670000Y-118851928D01*
X141770000Y-118851928D01*
X141645518Y-118864188D01*
X141525820Y-118900498D01*
X141415506Y-118959463D01*
X141318815Y-119038815D01*
X141239463Y-119135506D01*
X141180498Y-119245820D01*
X141144188Y-119365518D01*
X141131928Y-119490000D01*
X141131928Y-120690000D01*
X141144188Y-120814482D01*
X141161029Y-120870000D01*
X139978971Y-120870000D01*
X139995812Y-120814482D01*
X140008072Y-120690000D01*
X140008072Y-119490000D01*
X139995812Y-119365518D01*
X139959502Y-119245820D01*
X139900537Y-119135506D01*
X139821185Y-119038815D01*
X139724494Y-118959463D01*
X139614180Y-118900498D01*
X139494482Y-118864188D01*
X139370000Y-118851928D01*
X138470000Y-118851928D01*
X138345518Y-118864188D01*
X138225820Y-118900498D01*
X138115506Y-118959463D01*
X138075053Y-118992662D01*
X138060537Y-118965506D01*
X137981185Y-118868815D01*
X137884494Y-118789463D01*
X137774180Y-118730498D01*
X137654482Y-118694188D01*
X137530000Y-118681928D01*
X135930000Y-118681928D01*
X135805518Y-118694188D01*
X135685820Y-118730498D01*
X135575506Y-118789463D01*
X135478815Y-118868815D01*
X135399463Y-118965506D01*
X135340498Y-119075820D01*
X135304188Y-119195518D01*
X135291928Y-119320000D01*
X135291928Y-120777126D01*
X135000000Y-120485199D01*
X135000000Y-116197322D01*
X135003676Y-116159999D01*
X135000000Y-116122676D01*
X135000000Y-116122667D01*
X134989003Y-116011014D01*
X134945546Y-115867753D01*
X134874974Y-115735724D01*
X134780001Y-115619999D01*
X134751003Y-115596201D01*
X132723804Y-113569003D01*
X132700001Y-113539999D01*
X132584276Y-113445026D01*
X132537457Y-113420000D01*
X135241928Y-113420000D01*
X135241928Y-115020000D01*
X135254188Y-115144482D01*
X135290498Y-115264180D01*
X135349463Y-115374494D01*
X135428815Y-115471185D01*
X135525506Y-115550537D01*
X135635820Y-115609502D01*
X135755518Y-115645812D01*
X135880000Y-115658072D01*
X137480000Y-115658072D01*
X137604482Y-115645812D01*
X137724180Y-115609502D01*
X137834494Y-115550537D01*
X137931185Y-115471185D01*
X138010537Y-115374494D01*
X138057543Y-115286554D01*
X138135506Y-115350537D01*
X138245820Y-115409502D01*
X138365518Y-115445812D01*
X138490000Y-115458072D01*
X139390000Y-115458072D01*
X139514482Y-115445812D01*
X139634180Y-115409502D01*
X139744494Y-115350537D01*
X139841185Y-115271185D01*
X139920537Y-115174494D01*
X139979502Y-115064180D01*
X140015812Y-114944482D01*
X140028072Y-114820000D01*
X140028072Y-113620000D01*
X140015812Y-113495518D01*
X139979502Y-113375820D01*
X139920537Y-113265506D01*
X139841185Y-113168815D01*
X139744494Y-113089463D01*
X139634180Y-113030498D01*
X139514482Y-112994188D01*
X139390000Y-112981928D01*
X138490000Y-112981928D01*
X138365518Y-112994188D01*
X138245820Y-113030498D01*
X138135506Y-113089463D01*
X138057543Y-113153446D01*
X138010537Y-113065506D01*
X137931185Y-112968815D01*
X137834494Y-112889463D01*
X137724180Y-112830498D01*
X137604482Y-112794188D01*
X137480000Y-112781928D01*
X135880000Y-112781928D01*
X135755518Y-112794188D01*
X135635820Y-112830498D01*
X135525506Y-112889463D01*
X135428815Y-112968815D01*
X135349463Y-113065506D01*
X135290498Y-113175820D01*
X135254188Y-113295518D01*
X135241928Y-113420000D01*
X132537457Y-113420000D01*
X132452247Y-113374454D01*
X132308986Y-113330997D01*
X132197333Y-113320000D01*
X132197322Y-113320000D01*
X132160000Y-113316324D01*
X132122678Y-113320000D01*
X126084803Y-113320000D01*
X124525000Y-111760199D01*
X124525000Y-111698061D01*
X124485226Y-111498102D01*
X124407205Y-111309744D01*
X124293937Y-111140226D01*
X124149774Y-110996063D01*
X123980256Y-110882795D01*
X123791898Y-110804774D01*
X123591939Y-110765000D01*
X123388061Y-110765000D01*
X123188102Y-110804774D01*
X122999744Y-110882795D01*
X122830226Y-110996063D01*
X122686063Y-111140226D01*
X122572795Y-111309744D01*
X122494774Y-111498102D01*
X122455000Y-111698061D01*
X122455000Y-111901939D01*
X122494774Y-112101898D01*
X122572795Y-112290256D01*
X122686063Y-112459774D01*
X122830226Y-112603937D01*
X122999744Y-112717205D01*
X123188102Y-112795226D01*
X123388061Y-112835000D01*
X123450199Y-112835000D01*
X125206205Y-114591008D01*
X125229999Y-114620001D01*
X125258992Y-114643795D01*
X125258996Y-114643799D01*
X125296133Y-114674276D01*
X125345724Y-114714974D01*
X125477753Y-114785546D01*
X125621014Y-114829003D01*
X125732667Y-114840000D01*
X125732676Y-114840000D01*
X125769999Y-114843676D01*
X125807322Y-114840000D01*
X131845199Y-114840000D01*
X133480001Y-116474803D01*
X133480000Y-120762677D01*
X133476324Y-120800000D01*
X133480000Y-120837322D01*
X133480000Y-120837332D01*
X133490997Y-120948985D01*
X133519969Y-121044494D01*
X133534454Y-121092246D01*
X133605026Y-121224276D01*
X133621440Y-121244276D01*
X133699999Y-121340001D01*
X133729002Y-121363803D01*
X134506201Y-122141002D01*
X134529999Y-122170001D01*
X134645724Y-122264974D01*
X134777753Y-122335546D01*
X134921014Y-122379003D01*
X135032667Y-122390000D01*
X135032676Y-122390000D01*
X135069999Y-122393676D01*
X135107322Y-122390000D01*
X160532678Y-122390000D01*
X160570000Y-122393676D01*
X160607322Y-122390000D01*
X160607333Y-122390000D01*
X160718986Y-122379003D01*
X160862247Y-122335546D01*
X160994276Y-122264974D01*
X161110001Y-122170001D01*
X161133803Y-122140998D01*
X161891002Y-121383799D01*
X161920001Y-121360001D01*
X161946332Y-121327917D01*
X162014974Y-121244277D01*
X162085546Y-121112247D01*
X162129003Y-120968986D01*
X162140000Y-120857333D01*
X162140000Y-120857323D01*
X162143676Y-120820000D01*
X162140000Y-120782678D01*
X162140000Y-119512499D01*
X165232106Y-119512499D01*
X165448228Y-119879258D01*
X165908105Y-120119938D01*
X166406098Y-120266275D01*
X166923071Y-120312648D01*
X167439159Y-120257273D01*
X167934526Y-120102279D01*
X168351772Y-119879258D01*
X168567894Y-119512499D01*
X166900000Y-117844605D01*
X165232106Y-119512499D01*
X162140000Y-119512499D01*
X162140000Y-117688071D01*
X164252352Y-117688071D01*
X164307727Y-118204159D01*
X164462721Y-118699526D01*
X164685742Y-119116772D01*
X165052501Y-119332894D01*
X166720395Y-117665000D01*
X167079605Y-117665000D01*
X168747499Y-119332894D01*
X169114258Y-119116772D01*
X169354938Y-118656895D01*
X169501275Y-118158902D01*
X169547648Y-117641929D01*
X169492273Y-117125841D01*
X169337279Y-116630474D01*
X169114258Y-116213228D01*
X168747499Y-115997106D01*
X167079605Y-117665000D01*
X166720395Y-117665000D01*
X165052501Y-115997106D01*
X164685742Y-116213228D01*
X164445062Y-116673105D01*
X164298725Y-117171098D01*
X164252352Y-117688071D01*
X162140000Y-117688071D01*
X162140000Y-115817501D01*
X165232106Y-115817501D01*
X166900000Y-117485395D01*
X168567894Y-115817501D01*
X168351772Y-115450742D01*
X167891895Y-115210062D01*
X167393902Y-115063725D01*
X166876929Y-115017352D01*
X166360841Y-115072727D01*
X165865474Y-115227721D01*
X165448228Y-115450742D01*
X165232106Y-115817501D01*
X162140000Y-115817501D01*
X162140000Y-111609801D01*
X162747099Y-111002702D01*
X164141903Y-111002702D01*
X164213486Y-111246671D01*
X164468996Y-111367571D01*
X164743184Y-111436300D01*
X165025512Y-111450217D01*
X165305130Y-111408787D01*
X165571292Y-111313603D01*
X165696514Y-111246671D01*
X165768097Y-111002702D01*
X164955000Y-110189605D01*
X164141903Y-111002702D01*
X162747099Y-111002702D01*
X163534722Y-110215080D01*
X163556213Y-110360130D01*
X163651397Y-110626292D01*
X163718329Y-110751514D01*
X163962298Y-110823097D01*
X164775395Y-110010000D01*
X164761253Y-109995858D01*
X164940858Y-109816253D01*
X164955000Y-109830395D01*
X164969143Y-109816253D01*
X165148748Y-109995858D01*
X165134605Y-110010000D01*
X165947702Y-110823097D01*
X166191671Y-110751514D01*
X166312571Y-110496004D01*
X166381300Y-110221816D01*
X166395217Y-109939488D01*
X166394520Y-109934787D01*
X166443486Y-110101671D01*
X166698996Y-110222571D01*
X166973184Y-110291300D01*
X167255512Y-110305217D01*
X167535130Y-110263787D01*
X167801292Y-110168603D01*
X167926514Y-110101671D01*
X167998097Y-109857704D01*
X168005673Y-109865280D01*
X168005000Y-109868665D01*
X168005000Y-110151335D01*
X168060147Y-110428574D01*
X168168320Y-110689727D01*
X168325363Y-110924759D01*
X168525241Y-111124637D01*
X168760273Y-111281680D01*
X169021426Y-111389853D01*
X169298665Y-111445000D01*
X169581335Y-111445000D01*
X169858574Y-111389853D01*
X170119727Y-111281680D01*
X170354759Y-111124637D01*
X170554637Y-110924759D01*
X170600828Y-110855629D01*
X171275000Y-111529802D01*
X171275000Y-111591939D01*
X171314774Y-111791898D01*
X171392795Y-111980256D01*
X171506063Y-112149774D01*
X171650226Y-112293937D01*
X171819744Y-112407205D01*
X172008102Y-112485226D01*
X172208061Y-112525000D01*
X172411939Y-112525000D01*
X172611898Y-112485226D01*
X172800256Y-112407205D01*
X172969774Y-112293937D01*
X173113937Y-112149774D01*
X173227205Y-111980256D01*
X173305226Y-111791898D01*
X173345000Y-111591939D01*
X173345000Y-111388061D01*
X173305226Y-111188102D01*
X173227205Y-110999744D01*
X173113937Y-110830226D01*
X172969774Y-110686063D01*
X172800256Y-110572795D01*
X172611898Y-110494774D01*
X172411939Y-110455000D01*
X172349802Y-110455000D01*
X171393804Y-109499003D01*
X171370001Y-109469999D01*
X171254276Y-109375026D01*
X171122247Y-109304454D01*
X170978986Y-109260997D01*
X170867333Y-109250000D01*
X170867322Y-109250000D01*
X170830000Y-109246324D01*
X170792678Y-109250000D01*
X170658043Y-109250000D01*
X170554637Y-109095241D01*
X170354759Y-108895363D01*
X170309317Y-108865000D01*
X170354759Y-108834637D01*
X170554637Y-108634759D01*
X170711680Y-108399727D01*
X170819853Y-108138574D01*
X170875000Y-107861335D01*
X170875000Y-107578665D01*
X170819853Y-107301426D01*
X170711680Y-107040273D01*
X170554637Y-106805241D01*
X170354759Y-106605363D01*
X170309317Y-106575000D01*
X170354759Y-106544637D01*
X170554637Y-106344759D01*
X170711680Y-106109727D01*
X170819853Y-105848574D01*
X170875000Y-105571335D01*
X170875000Y-105288665D01*
X170819853Y-105011426D01*
X170711680Y-104750273D01*
X170554637Y-104515241D01*
X170354759Y-104315363D01*
X170309317Y-104285000D01*
X170354759Y-104254637D01*
X170554637Y-104054759D01*
X170661519Y-103894798D01*
X170720356Y-103889003D01*
X170863617Y-103845546D01*
X170995646Y-103774974D01*
X171111371Y-103680001D01*
X171135173Y-103650998D01*
X171601003Y-103185168D01*
X171630001Y-103161371D01*
X171724974Y-103045646D01*
X171795546Y-102913617D01*
X171839003Y-102770356D01*
X171850000Y-102658703D01*
X171850000Y-102658702D01*
X171853677Y-102621370D01*
X171850000Y-102584037D01*
X171850000Y-97637333D01*
X171853677Y-97600000D01*
X171839003Y-97451014D01*
X171795546Y-97307753D01*
X171724974Y-97175724D01*
X171653799Y-97088997D01*
X171630001Y-97059999D01*
X171601002Y-97036201D01*
X170943803Y-96379002D01*
X170920001Y-96349999D01*
X170804276Y-96255026D01*
X170672247Y-96184454D01*
X170528986Y-96140997D01*
X170417333Y-96130000D01*
X170417322Y-96130000D01*
X170380000Y-96126324D01*
X170342678Y-96130000D01*
X165437322Y-96130000D01*
X165399999Y-96126324D01*
X165362676Y-96130000D01*
X165362667Y-96130000D01*
X165251014Y-96140997D01*
X165107753Y-96184454D01*
X164975724Y-96255026D01*
X164859999Y-96349999D01*
X164836201Y-96378997D01*
X162785199Y-98430000D01*
X160664414Y-98430000D01*
X160689347Y-98383354D01*
X160765683Y-98131706D01*
X160791459Y-97870000D01*
X160765683Y-97608294D01*
X160689347Y-97356646D01*
X160565382Y-97124725D01*
X160398555Y-96921445D01*
X160210000Y-96766702D01*
X160210000Y-94512499D01*
X165232106Y-94512499D01*
X165448228Y-94879258D01*
X165908105Y-95119938D01*
X166406098Y-95266275D01*
X166923071Y-95312648D01*
X167439159Y-95257273D01*
X167934526Y-95102279D01*
X168351772Y-94879258D01*
X168567894Y-94512499D01*
X166900000Y-92844605D01*
X165232106Y-94512499D01*
X160210000Y-94512499D01*
X160210000Y-92688071D01*
X164252352Y-92688071D01*
X164307727Y-93204159D01*
X164462721Y-93699526D01*
X164685742Y-94116772D01*
X165052501Y-94332894D01*
X166720395Y-92665000D01*
X167079605Y-92665000D01*
X168747499Y-94332894D01*
X169114258Y-94116772D01*
X169354938Y-93656895D01*
X169501275Y-93158902D01*
X169547648Y-92641929D01*
X169492273Y-92125841D01*
X169337279Y-91630474D01*
X169114258Y-91213228D01*
X168747499Y-90997106D01*
X167079605Y-92665000D01*
X166720395Y-92665000D01*
X165052501Y-90997106D01*
X164685742Y-91213228D01*
X164445062Y-91673105D01*
X164298725Y-92171098D01*
X164252352Y-92688071D01*
X160210000Y-92688071D01*
X160210000Y-91707333D01*
X160213677Y-91670000D01*
X160199003Y-91521014D01*
X160155546Y-91377753D01*
X160084974Y-91245724D01*
X160013799Y-91158997D01*
X159990001Y-91129999D01*
X159961004Y-91106202D01*
X159672303Y-90817501D01*
X165232106Y-90817501D01*
X166900000Y-92485395D01*
X168567894Y-90817501D01*
X168351772Y-90450742D01*
X167891895Y-90210062D01*
X167393902Y-90063725D01*
X166876929Y-90017352D01*
X166360841Y-90072727D01*
X165865474Y-90227721D01*
X165448228Y-90450742D01*
X165232106Y-90817501D01*
X159672303Y-90817501D01*
X159303803Y-90449002D01*
X159280001Y-90419999D01*
X159164276Y-90325026D01*
X159032247Y-90254454D01*
X158888986Y-90210997D01*
X158777333Y-90200000D01*
X158777322Y-90200000D01*
X158740000Y-90196324D01*
X158702678Y-90200000D01*
X155445415Y-90200000D01*
X155499853Y-90068574D01*
X155555000Y-89791335D01*
X155555000Y-89508665D01*
X155499853Y-89231426D01*
X155391680Y-88970273D01*
X155234637Y-88735241D01*
X155034759Y-88535363D01*
X154799727Y-88378320D01*
X154538574Y-88270147D01*
X154261335Y-88215000D01*
X153978665Y-88215000D01*
X153701426Y-88270147D01*
X153440273Y-88378320D01*
X153205241Y-88535363D01*
X153120000Y-88620604D01*
X153034759Y-88535363D01*
X152799727Y-88378320D01*
X152538574Y-88270147D01*
X152261335Y-88215000D01*
X151978665Y-88215000D01*
X151701426Y-88270147D01*
X151440273Y-88378320D01*
X151205241Y-88535363D01*
X151120000Y-88620604D01*
X151034759Y-88535363D01*
X150799727Y-88378320D01*
X150538574Y-88270147D01*
X150261335Y-88215000D01*
X149978665Y-88215000D01*
X149701426Y-88270147D01*
X149440273Y-88378320D01*
X149205241Y-88535363D01*
X149120000Y-88620604D01*
X149034759Y-88535363D01*
X148799727Y-88378320D01*
X148538574Y-88270147D01*
X148261335Y-88215000D01*
X147978665Y-88215000D01*
X147701426Y-88270147D01*
X147440273Y-88378320D01*
X147205241Y-88535363D01*
X147120000Y-88620604D01*
X147034759Y-88535363D01*
X146799727Y-88378320D01*
X146538574Y-88270147D01*
X146261335Y-88215000D01*
X145978665Y-88215000D01*
X145701426Y-88270147D01*
X145440273Y-88378320D01*
X145205241Y-88535363D01*
X145120000Y-88620604D01*
X145034759Y-88535363D01*
X144799727Y-88378320D01*
X144538574Y-88270147D01*
X144261335Y-88215000D01*
X144189218Y-88215000D01*
X144205000Y-88135656D01*
X144205000Y-87764344D01*
X144132561Y-87400166D01*
X144006613Y-87096100D01*
X177633107Y-87096100D01*
X177676055Y-87139834D01*
X177670046Y-122866574D01*
X177626620Y-122910000D01*
X119371023Y-122910000D01*
X119326100Y-122865367D01*
X119326100Y-119582499D01*
X128422106Y-119582499D01*
X128638228Y-119949258D01*
X129098105Y-120189938D01*
X129596098Y-120336275D01*
X130113071Y-120382648D01*
X130629159Y-120327273D01*
X131124526Y-120172279D01*
X131541772Y-119949258D01*
X131757894Y-119582499D01*
X130090000Y-117914605D01*
X128422106Y-119582499D01*
X119326100Y-119582499D01*
X119326100Y-117758071D01*
X127442352Y-117758071D01*
X127497727Y-118274159D01*
X127652721Y-118769526D01*
X127875742Y-119186772D01*
X128242501Y-119402894D01*
X129910395Y-117735000D01*
X130269605Y-117735000D01*
X131937499Y-119402894D01*
X132304258Y-119186772D01*
X132544938Y-118726895D01*
X132691275Y-118228902D01*
X132737648Y-117711929D01*
X132682273Y-117195841D01*
X132527279Y-116700474D01*
X132304258Y-116283228D01*
X131937499Y-116067106D01*
X130269605Y-117735000D01*
X129910395Y-117735000D01*
X128242501Y-116067106D01*
X127875742Y-116283228D01*
X127635062Y-116743105D01*
X127488725Y-117241098D01*
X127442352Y-117758071D01*
X119326100Y-117758071D01*
X119326100Y-115887501D01*
X128422106Y-115887501D01*
X130090000Y-117555395D01*
X131757894Y-115887501D01*
X131541772Y-115520742D01*
X131081895Y-115280062D01*
X130583902Y-115133725D01*
X130066929Y-115087352D01*
X129550841Y-115142727D01*
X129055474Y-115297721D01*
X128638228Y-115520742D01*
X128422106Y-115887501D01*
X119326100Y-115887501D01*
X119326100Y-94582499D01*
X128422106Y-94582499D01*
X128638228Y-94949258D01*
X129098105Y-95189938D01*
X129596098Y-95336275D01*
X130113071Y-95382648D01*
X130629159Y-95327273D01*
X131124526Y-95172279D01*
X131541772Y-94949258D01*
X131757894Y-94582499D01*
X130090000Y-92914605D01*
X128422106Y-94582499D01*
X119326100Y-94582499D01*
X119326100Y-92758071D01*
X127442352Y-92758071D01*
X127497727Y-93274159D01*
X127652721Y-93769526D01*
X127875742Y-94186772D01*
X128242501Y-94402894D01*
X129910395Y-92735000D01*
X130269605Y-92735000D01*
X131937499Y-94402894D01*
X132304258Y-94186772D01*
X132544938Y-93726895D01*
X132691275Y-93228902D01*
X132737648Y-92711929D01*
X132682273Y-92195841D01*
X132527279Y-91700474D01*
X132304258Y-91283228D01*
X131937499Y-91067106D01*
X130269605Y-92735000D01*
X129910395Y-92735000D01*
X128242501Y-91067106D01*
X127875742Y-91283228D01*
X127635062Y-91743105D01*
X127488725Y-92241098D01*
X127442352Y-92758071D01*
X119326100Y-92758071D01*
X119326100Y-90887501D01*
X128422106Y-90887501D01*
X130090000Y-92555395D01*
X131757894Y-90887501D01*
X131541772Y-90520742D01*
X131081895Y-90280062D01*
X130583902Y-90133725D01*
X130066929Y-90087352D01*
X129550841Y-90142727D01*
X129055474Y-90297721D01*
X128638228Y-90520742D01*
X128422106Y-90887501D01*
X119326100Y-90887501D01*
X119326100Y-87143380D01*
X119373379Y-87096100D01*
X140633387Y-87096100D01*
X140507439Y-87400166D01*
G36*
X129998748Y-110680858D02*
G01*
X129984605Y-110695000D01*
X129998748Y-110709143D01*
X129819143Y-110888748D01*
X129805000Y-110874605D01*
X129790858Y-110888748D01*
X129611253Y-110709143D01*
X129625395Y-110695000D01*
X129611253Y-110680858D01*
X129790858Y-110501253D01*
X129805000Y-110515395D01*
X129819143Y-110501253D01*
X129998748Y-110680858D01*
X129998748Y-110680858D01*
G37*
X129998748Y-110680858D02*
X129984605Y-110695000D01*
X129998748Y-110709143D01*
X129819143Y-110888748D01*
X129805000Y-110874605D01*
X129790858Y-110888748D01*
X129611253Y-110709143D01*
X129625395Y-110695000D01*
X129611253Y-110680858D01*
X129790858Y-110501253D01*
X129805000Y-110515395D01*
X129819143Y-110501253D01*
X129998748Y-110680858D01*
G36*
X167378748Y-108850858D02*
G01*
X167364605Y-108865000D01*
X167378748Y-108879143D01*
X167199143Y-109058748D01*
X167185000Y-109044605D01*
X167170858Y-109058748D01*
X166991253Y-108879143D01*
X167005395Y-108865000D01*
X166991253Y-108850858D01*
X167170858Y-108671253D01*
X167185000Y-108685395D01*
X167199143Y-108671253D01*
X167378748Y-108850858D01*
X167378748Y-108850858D01*
G37*
X167378748Y-108850858D02*
X167364605Y-108865000D01*
X167378748Y-108879143D01*
X167199143Y-109058748D01*
X167185000Y-109044605D01*
X167170858Y-109058748D01*
X166991253Y-108879143D01*
X167005395Y-108865000D01*
X166991253Y-108850858D01*
X167170858Y-108671253D01*
X167185000Y-108685395D01*
X167199143Y-108671253D01*
X167378748Y-108850858D01*
G36*
X129998748Y-108390858D02*
G01*
X129984605Y-108405000D01*
X129998748Y-108419143D01*
X129819143Y-108598748D01*
X129805000Y-108584605D01*
X129790858Y-108598748D01*
X129611253Y-108419143D01*
X129625395Y-108405000D01*
X129611253Y-108390858D01*
X129790858Y-108211253D01*
X129805000Y-108225395D01*
X129819143Y-108211253D01*
X129998748Y-108390858D01*
X129998748Y-108390858D01*
G37*
X129998748Y-108390858D02*
X129984605Y-108405000D01*
X129998748Y-108419143D01*
X129819143Y-108598748D01*
X129805000Y-108584605D01*
X129790858Y-108598748D01*
X129611253Y-108419143D01*
X129625395Y-108405000D01*
X129611253Y-108390858D01*
X129790858Y-108211253D01*
X129805000Y-108225395D01*
X129819143Y-108211253D01*
X129998748Y-108390858D01*
G36*
X129998748Y-106100858D02*
G01*
X129984605Y-106115000D01*
X129998748Y-106129143D01*
X129819143Y-106308748D01*
X129805000Y-106294605D01*
X129790858Y-106308748D01*
X129611253Y-106129143D01*
X129625395Y-106115000D01*
X129611253Y-106100858D01*
X129790858Y-105921253D01*
X129805000Y-105935395D01*
X129819143Y-105921253D01*
X129998748Y-106100858D01*
X129998748Y-106100858D01*
G37*
X129998748Y-106100858D02*
X129984605Y-106115000D01*
X129998748Y-106129143D01*
X129819143Y-106308748D01*
X129805000Y-106294605D01*
X129790858Y-106308748D01*
X129611253Y-106129143D01*
X129625395Y-106115000D01*
X129611253Y-106100858D01*
X129790858Y-105921253D01*
X129805000Y-105935395D01*
X129819143Y-105921253D01*
X129998748Y-106100858D01*
G36*
X167378748Y-104270858D02*
G01*
X167364605Y-104285000D01*
X167378748Y-104299143D01*
X167199143Y-104478748D01*
X167185000Y-104464605D01*
X167170858Y-104478748D01*
X166991253Y-104299143D01*
X167005395Y-104285000D01*
X166991253Y-104270858D01*
X167170858Y-104091253D01*
X167185000Y-104105395D01*
X167199143Y-104091253D01*
X167378748Y-104270858D01*
X167378748Y-104270858D01*
G37*
X167378748Y-104270858D02*
X167364605Y-104285000D01*
X167378748Y-104299143D01*
X167199143Y-104478748D01*
X167185000Y-104464605D01*
X167170858Y-104478748D01*
X166991253Y-104299143D01*
X167005395Y-104285000D01*
X166991253Y-104270858D01*
X167170858Y-104091253D01*
X167185000Y-104105395D01*
X167199143Y-104091253D01*
X167378748Y-104270858D01*
G36*
X167378748Y-101980858D02*
G01*
X167364605Y-101995000D01*
X167378748Y-102009143D01*
X167199143Y-102188748D01*
X167185000Y-102174605D01*
X167170858Y-102188748D01*
X166991253Y-102009143D01*
X167005395Y-101995000D01*
X166991253Y-101980858D01*
X167170858Y-101801253D01*
X167185000Y-101815395D01*
X167199143Y-101801253D01*
X167378748Y-101980858D01*
X167378748Y-101980858D01*
G37*
X167378748Y-101980858D02*
X167364605Y-101995000D01*
X167378748Y-102009143D01*
X167199143Y-102188748D01*
X167185000Y-102174605D01*
X167170858Y-102188748D01*
X166991253Y-102009143D01*
X167005395Y-101995000D01*
X166991253Y-101980858D01*
X167170858Y-101801253D01*
X167185000Y-101815395D01*
X167199143Y-101801253D01*
X167378748Y-101980858D01*
G36*
X129998748Y-101520858D02*
G01*
X129984605Y-101535000D01*
X129998748Y-101549143D01*
X129819143Y-101728748D01*
X129805000Y-101714605D01*
X129790858Y-101728748D01*
X129611253Y-101549143D01*
X129625395Y-101535000D01*
X129611253Y-101520858D01*
X129790858Y-101341253D01*
X129805000Y-101355395D01*
X129819143Y-101341253D01*
X129998748Y-101520858D01*
X129998748Y-101520858D01*
G37*
X129998748Y-101520858D02*
X129984605Y-101535000D01*
X129998748Y-101549143D01*
X129819143Y-101728748D01*
X129805000Y-101714605D01*
X129790858Y-101728748D01*
X129611253Y-101549143D01*
X129625395Y-101535000D01*
X129611253Y-101520858D01*
X129790858Y-101341253D01*
X129805000Y-101355395D01*
X129819143Y-101341253D01*
X129998748Y-101520858D01*
G36*
X170330001Y-97914803D02*
G01*
X170330001Y-99718820D01*
X170119727Y-99578320D01*
X169858574Y-99470147D01*
X169581335Y-99415000D01*
X169298665Y-99415000D01*
X169021426Y-99470147D01*
X168760273Y-99578320D01*
X168623480Y-99669722D01*
X168625217Y-99634488D01*
X168583787Y-99354870D01*
X168488603Y-99088708D01*
X168421671Y-98963486D01*
X168177702Y-98891903D01*
X167364605Y-99705000D01*
X167378748Y-99719143D01*
X167199143Y-99898748D01*
X167185000Y-99884605D01*
X167170858Y-99898748D01*
X166991253Y-99719143D01*
X167005395Y-99705000D01*
X166192298Y-98891903D01*
X165948329Y-98963486D01*
X165827429Y-99218996D01*
X165778488Y-99414241D01*
X165755000Y-99411928D01*
X164155000Y-99411928D01*
X164030518Y-99424188D01*
X163910820Y-99460498D01*
X163896820Y-99467981D01*
X164652503Y-98712298D01*
X166371903Y-98712298D01*
X167185000Y-99525395D01*
X167998097Y-98712298D01*
X167926514Y-98468329D01*
X167671004Y-98347429D01*
X167396816Y-98278700D01*
X167114488Y-98264783D01*
X166834870Y-98306213D01*
X166568708Y-98401397D01*
X166443486Y-98468329D01*
X166371903Y-98712298D01*
X164652503Y-98712298D01*
X165714802Y-97650000D01*
X170065199Y-97650000D01*
X170330001Y-97914803D01*
X170330001Y-97914803D01*
G37*
X170330001Y-97914803D02*
X170330001Y-99718820D01*
X170119727Y-99578320D01*
X169858574Y-99470147D01*
X169581335Y-99415000D01*
X169298665Y-99415000D01*
X169021426Y-99470147D01*
X168760273Y-99578320D01*
X168623480Y-99669722D01*
X168625217Y-99634488D01*
X168583787Y-99354870D01*
X168488603Y-99088708D01*
X168421671Y-98963486D01*
X168177702Y-98891903D01*
X167364605Y-99705000D01*
X167378748Y-99719143D01*
X167199143Y-99898748D01*
X167185000Y-99884605D01*
X167170858Y-99898748D01*
X166991253Y-99719143D01*
X167005395Y-99705000D01*
X166192298Y-98891903D01*
X165948329Y-98963486D01*
X165827429Y-99218996D01*
X165778488Y-99414241D01*
X165755000Y-99411928D01*
X164155000Y-99411928D01*
X164030518Y-99424188D01*
X163910820Y-99460498D01*
X163896820Y-99467981D01*
X164652503Y-98712298D01*
X166371903Y-98712298D01*
X167185000Y-99525395D01*
X167998097Y-98712298D01*
X167926514Y-98468329D01*
X167671004Y-98347429D01*
X167396816Y-98278700D01*
X167114488Y-98264783D01*
X166834870Y-98306213D01*
X166568708Y-98401397D01*
X166443486Y-98468329D01*
X166371903Y-98712298D01*
X164652503Y-98712298D01*
X165714802Y-97650000D01*
X170065199Y-97650000D01*
X170330001Y-97914803D01*
M02*
