G04 #@! TF.GenerationSoftware,KiCad,Pcbnew,(5.1.4)-1*
G04 #@! TF.CreationDate,2020-11-25T10:34:19+01:00*
G04 #@! TF.ProjectId,MonochromeVGA,4d6f6e6f-6368-4726-9f6d-655647412e6b,rev?*
G04 #@! TF.SameCoordinates,Original*
G04 #@! TF.FileFunction,Paste,Top*
G04 #@! TF.FilePolarity,Positive*
%FSLAX46Y46*%
G04 Gerber Fmt 4.6, Leading zero omitted, Abs format (unit mm)*
G04 Created by KiCad (PCBNEW (5.1.4)-1) date 2020-11-25 10:34:19*
%MOMM*%
%LPD*%
G04 APERTURE LIST*
%ADD10R,0.900000X1.200000*%
%ADD11C,0.100000*%
%ADD12C,0.875000*%
G04 APERTURE END LIST*
D10*
X154110000Y-120090000D03*
X157410000Y-120090000D03*
X138920000Y-120090000D03*
X142220000Y-120090000D03*
X138940000Y-114220000D03*
X142240000Y-114220000D03*
X154070000Y-114200000D03*
X157370000Y-114200000D03*
D11*
G36*
X157977691Y-104276053D02*
G01*
X157998926Y-104279203D01*
X158019750Y-104284419D01*
X158039962Y-104291651D01*
X158059368Y-104300830D01*
X158077781Y-104311866D01*
X158095024Y-104324654D01*
X158110930Y-104339070D01*
X158125346Y-104354976D01*
X158138134Y-104372219D01*
X158149170Y-104390632D01*
X158158349Y-104410038D01*
X158165581Y-104430250D01*
X158170797Y-104451074D01*
X158173947Y-104472309D01*
X158175000Y-104493750D01*
X158175000Y-104931250D01*
X158173947Y-104952691D01*
X158170797Y-104973926D01*
X158165581Y-104994750D01*
X158158349Y-105014962D01*
X158149170Y-105034368D01*
X158138134Y-105052781D01*
X158125346Y-105070024D01*
X158110930Y-105085930D01*
X158095024Y-105100346D01*
X158077781Y-105113134D01*
X158059368Y-105124170D01*
X158039962Y-105133349D01*
X158019750Y-105140581D01*
X157998926Y-105145797D01*
X157977691Y-105148947D01*
X157956250Y-105150000D01*
X157443750Y-105150000D01*
X157422309Y-105148947D01*
X157401074Y-105145797D01*
X157380250Y-105140581D01*
X157360038Y-105133349D01*
X157340632Y-105124170D01*
X157322219Y-105113134D01*
X157304976Y-105100346D01*
X157289070Y-105085930D01*
X157274654Y-105070024D01*
X157261866Y-105052781D01*
X157250830Y-105034368D01*
X157241651Y-105014962D01*
X157234419Y-104994750D01*
X157229203Y-104973926D01*
X157226053Y-104952691D01*
X157225000Y-104931250D01*
X157225000Y-104493750D01*
X157226053Y-104472309D01*
X157229203Y-104451074D01*
X157234419Y-104430250D01*
X157241651Y-104410038D01*
X157250830Y-104390632D01*
X157261866Y-104372219D01*
X157274654Y-104354976D01*
X157289070Y-104339070D01*
X157304976Y-104324654D01*
X157322219Y-104311866D01*
X157340632Y-104300830D01*
X157360038Y-104291651D01*
X157380250Y-104284419D01*
X157401074Y-104279203D01*
X157422309Y-104276053D01*
X157443750Y-104275000D01*
X157956250Y-104275000D01*
X157977691Y-104276053D01*
X157977691Y-104276053D01*
G37*
D12*
X157700000Y-104712500D03*
D11*
G36*
X157977691Y-105851053D02*
G01*
X157998926Y-105854203D01*
X158019750Y-105859419D01*
X158039962Y-105866651D01*
X158059368Y-105875830D01*
X158077781Y-105886866D01*
X158095024Y-105899654D01*
X158110930Y-105914070D01*
X158125346Y-105929976D01*
X158138134Y-105947219D01*
X158149170Y-105965632D01*
X158158349Y-105985038D01*
X158165581Y-106005250D01*
X158170797Y-106026074D01*
X158173947Y-106047309D01*
X158175000Y-106068750D01*
X158175000Y-106506250D01*
X158173947Y-106527691D01*
X158170797Y-106548926D01*
X158165581Y-106569750D01*
X158158349Y-106589962D01*
X158149170Y-106609368D01*
X158138134Y-106627781D01*
X158125346Y-106645024D01*
X158110930Y-106660930D01*
X158095024Y-106675346D01*
X158077781Y-106688134D01*
X158059368Y-106699170D01*
X158039962Y-106708349D01*
X158019750Y-106715581D01*
X157998926Y-106720797D01*
X157977691Y-106723947D01*
X157956250Y-106725000D01*
X157443750Y-106725000D01*
X157422309Y-106723947D01*
X157401074Y-106720797D01*
X157380250Y-106715581D01*
X157360038Y-106708349D01*
X157340632Y-106699170D01*
X157322219Y-106688134D01*
X157304976Y-106675346D01*
X157289070Y-106660930D01*
X157274654Y-106645024D01*
X157261866Y-106627781D01*
X157250830Y-106609368D01*
X157241651Y-106589962D01*
X157234419Y-106569750D01*
X157229203Y-106548926D01*
X157226053Y-106527691D01*
X157225000Y-106506250D01*
X157225000Y-106068750D01*
X157226053Y-106047309D01*
X157229203Y-106026074D01*
X157234419Y-106005250D01*
X157241651Y-105985038D01*
X157250830Y-105965632D01*
X157261866Y-105947219D01*
X157274654Y-105929976D01*
X157289070Y-105914070D01*
X157304976Y-105899654D01*
X157322219Y-105886866D01*
X157340632Y-105875830D01*
X157360038Y-105866651D01*
X157380250Y-105859419D01*
X157401074Y-105854203D01*
X157422309Y-105851053D01*
X157443750Y-105850000D01*
X157956250Y-105850000D01*
X157977691Y-105851053D01*
X157977691Y-105851053D01*
G37*
D12*
X157700000Y-106287500D03*
D11*
G36*
X157937691Y-97446053D02*
G01*
X157958926Y-97449203D01*
X157979750Y-97454419D01*
X157999962Y-97461651D01*
X158019368Y-97470830D01*
X158037781Y-97481866D01*
X158055024Y-97494654D01*
X158070930Y-97509070D01*
X158085346Y-97524976D01*
X158098134Y-97542219D01*
X158109170Y-97560632D01*
X158118349Y-97580038D01*
X158125581Y-97600250D01*
X158130797Y-97621074D01*
X158133947Y-97642309D01*
X158135000Y-97663750D01*
X158135000Y-98176250D01*
X158133947Y-98197691D01*
X158130797Y-98218926D01*
X158125581Y-98239750D01*
X158118349Y-98259962D01*
X158109170Y-98279368D01*
X158098134Y-98297781D01*
X158085346Y-98315024D01*
X158070930Y-98330930D01*
X158055024Y-98345346D01*
X158037781Y-98358134D01*
X158019368Y-98369170D01*
X157999962Y-98378349D01*
X157979750Y-98385581D01*
X157958926Y-98390797D01*
X157937691Y-98393947D01*
X157916250Y-98395000D01*
X157478750Y-98395000D01*
X157457309Y-98393947D01*
X157436074Y-98390797D01*
X157415250Y-98385581D01*
X157395038Y-98378349D01*
X157375632Y-98369170D01*
X157357219Y-98358134D01*
X157339976Y-98345346D01*
X157324070Y-98330930D01*
X157309654Y-98315024D01*
X157296866Y-98297781D01*
X157285830Y-98279368D01*
X157276651Y-98259962D01*
X157269419Y-98239750D01*
X157264203Y-98218926D01*
X157261053Y-98197691D01*
X157260000Y-98176250D01*
X157260000Y-97663750D01*
X157261053Y-97642309D01*
X157264203Y-97621074D01*
X157269419Y-97600250D01*
X157276651Y-97580038D01*
X157285830Y-97560632D01*
X157296866Y-97542219D01*
X157309654Y-97524976D01*
X157324070Y-97509070D01*
X157339976Y-97494654D01*
X157357219Y-97481866D01*
X157375632Y-97470830D01*
X157395038Y-97461651D01*
X157415250Y-97454419D01*
X157436074Y-97449203D01*
X157457309Y-97446053D01*
X157478750Y-97445000D01*
X157916250Y-97445000D01*
X157937691Y-97446053D01*
X157937691Y-97446053D01*
G37*
D12*
X157697500Y-97920000D03*
D11*
G36*
X156362691Y-97446053D02*
G01*
X156383926Y-97449203D01*
X156404750Y-97454419D01*
X156424962Y-97461651D01*
X156444368Y-97470830D01*
X156462781Y-97481866D01*
X156480024Y-97494654D01*
X156495930Y-97509070D01*
X156510346Y-97524976D01*
X156523134Y-97542219D01*
X156534170Y-97560632D01*
X156543349Y-97580038D01*
X156550581Y-97600250D01*
X156555797Y-97621074D01*
X156558947Y-97642309D01*
X156560000Y-97663750D01*
X156560000Y-98176250D01*
X156558947Y-98197691D01*
X156555797Y-98218926D01*
X156550581Y-98239750D01*
X156543349Y-98259962D01*
X156534170Y-98279368D01*
X156523134Y-98297781D01*
X156510346Y-98315024D01*
X156495930Y-98330930D01*
X156480024Y-98345346D01*
X156462781Y-98358134D01*
X156444368Y-98369170D01*
X156424962Y-98378349D01*
X156404750Y-98385581D01*
X156383926Y-98390797D01*
X156362691Y-98393947D01*
X156341250Y-98395000D01*
X155903750Y-98395000D01*
X155882309Y-98393947D01*
X155861074Y-98390797D01*
X155840250Y-98385581D01*
X155820038Y-98378349D01*
X155800632Y-98369170D01*
X155782219Y-98358134D01*
X155764976Y-98345346D01*
X155749070Y-98330930D01*
X155734654Y-98315024D01*
X155721866Y-98297781D01*
X155710830Y-98279368D01*
X155701651Y-98259962D01*
X155694419Y-98239750D01*
X155689203Y-98218926D01*
X155686053Y-98197691D01*
X155685000Y-98176250D01*
X155685000Y-97663750D01*
X155686053Y-97642309D01*
X155689203Y-97621074D01*
X155694419Y-97600250D01*
X155701651Y-97580038D01*
X155710830Y-97560632D01*
X155721866Y-97542219D01*
X155734654Y-97524976D01*
X155749070Y-97509070D01*
X155764976Y-97494654D01*
X155782219Y-97481866D01*
X155800632Y-97470830D01*
X155820038Y-97461651D01*
X155840250Y-97454419D01*
X155861074Y-97449203D01*
X155882309Y-97446053D01*
X155903750Y-97445000D01*
X156341250Y-97445000D01*
X156362691Y-97446053D01*
X156362691Y-97446053D01*
G37*
D12*
X156122500Y-97920000D03*
D11*
G36*
X141287691Y-97346053D02*
G01*
X141308926Y-97349203D01*
X141329750Y-97354419D01*
X141349962Y-97361651D01*
X141369368Y-97370830D01*
X141387781Y-97381866D01*
X141405024Y-97394654D01*
X141420930Y-97409070D01*
X141435346Y-97424976D01*
X141448134Y-97442219D01*
X141459170Y-97460632D01*
X141468349Y-97480038D01*
X141475581Y-97500250D01*
X141480797Y-97521074D01*
X141483947Y-97542309D01*
X141485000Y-97563750D01*
X141485000Y-98076250D01*
X141483947Y-98097691D01*
X141480797Y-98118926D01*
X141475581Y-98139750D01*
X141468349Y-98159962D01*
X141459170Y-98179368D01*
X141448134Y-98197781D01*
X141435346Y-98215024D01*
X141420930Y-98230930D01*
X141405024Y-98245346D01*
X141387781Y-98258134D01*
X141369368Y-98269170D01*
X141349962Y-98278349D01*
X141329750Y-98285581D01*
X141308926Y-98290797D01*
X141287691Y-98293947D01*
X141266250Y-98295000D01*
X140828750Y-98295000D01*
X140807309Y-98293947D01*
X140786074Y-98290797D01*
X140765250Y-98285581D01*
X140745038Y-98278349D01*
X140725632Y-98269170D01*
X140707219Y-98258134D01*
X140689976Y-98245346D01*
X140674070Y-98230930D01*
X140659654Y-98215024D01*
X140646866Y-98197781D01*
X140635830Y-98179368D01*
X140626651Y-98159962D01*
X140619419Y-98139750D01*
X140614203Y-98118926D01*
X140611053Y-98097691D01*
X140610000Y-98076250D01*
X140610000Y-97563750D01*
X140611053Y-97542309D01*
X140614203Y-97521074D01*
X140619419Y-97500250D01*
X140626651Y-97480038D01*
X140635830Y-97460632D01*
X140646866Y-97442219D01*
X140659654Y-97424976D01*
X140674070Y-97409070D01*
X140689976Y-97394654D01*
X140707219Y-97381866D01*
X140725632Y-97370830D01*
X140745038Y-97361651D01*
X140765250Y-97354419D01*
X140786074Y-97349203D01*
X140807309Y-97346053D01*
X140828750Y-97345000D01*
X141266250Y-97345000D01*
X141287691Y-97346053D01*
X141287691Y-97346053D01*
G37*
D12*
X141047500Y-97820000D03*
D11*
G36*
X139712691Y-97346053D02*
G01*
X139733926Y-97349203D01*
X139754750Y-97354419D01*
X139774962Y-97361651D01*
X139794368Y-97370830D01*
X139812781Y-97381866D01*
X139830024Y-97394654D01*
X139845930Y-97409070D01*
X139860346Y-97424976D01*
X139873134Y-97442219D01*
X139884170Y-97460632D01*
X139893349Y-97480038D01*
X139900581Y-97500250D01*
X139905797Y-97521074D01*
X139908947Y-97542309D01*
X139910000Y-97563750D01*
X139910000Y-98076250D01*
X139908947Y-98097691D01*
X139905797Y-98118926D01*
X139900581Y-98139750D01*
X139893349Y-98159962D01*
X139884170Y-98179368D01*
X139873134Y-98197781D01*
X139860346Y-98215024D01*
X139845930Y-98230930D01*
X139830024Y-98245346D01*
X139812781Y-98258134D01*
X139794368Y-98269170D01*
X139774962Y-98278349D01*
X139754750Y-98285581D01*
X139733926Y-98290797D01*
X139712691Y-98293947D01*
X139691250Y-98295000D01*
X139253750Y-98295000D01*
X139232309Y-98293947D01*
X139211074Y-98290797D01*
X139190250Y-98285581D01*
X139170038Y-98278349D01*
X139150632Y-98269170D01*
X139132219Y-98258134D01*
X139114976Y-98245346D01*
X139099070Y-98230930D01*
X139084654Y-98215024D01*
X139071866Y-98197781D01*
X139060830Y-98179368D01*
X139051651Y-98159962D01*
X139044419Y-98139750D01*
X139039203Y-98118926D01*
X139036053Y-98097691D01*
X139035000Y-98076250D01*
X139035000Y-97563750D01*
X139036053Y-97542309D01*
X139039203Y-97521074D01*
X139044419Y-97500250D01*
X139051651Y-97480038D01*
X139060830Y-97460632D01*
X139071866Y-97442219D01*
X139084654Y-97424976D01*
X139099070Y-97409070D01*
X139114976Y-97394654D01*
X139132219Y-97381866D01*
X139150632Y-97370830D01*
X139170038Y-97361651D01*
X139190250Y-97354419D01*
X139211074Y-97349203D01*
X139232309Y-97346053D01*
X139253750Y-97345000D01*
X139691250Y-97345000D01*
X139712691Y-97346053D01*
X139712691Y-97346053D01*
G37*
D12*
X139472500Y-97820000D03*
D11*
G36*
X149687691Y-97346053D02*
G01*
X149708926Y-97349203D01*
X149729750Y-97354419D01*
X149749962Y-97361651D01*
X149769368Y-97370830D01*
X149787781Y-97381866D01*
X149805024Y-97394654D01*
X149820930Y-97409070D01*
X149835346Y-97424976D01*
X149848134Y-97442219D01*
X149859170Y-97460632D01*
X149868349Y-97480038D01*
X149875581Y-97500250D01*
X149880797Y-97521074D01*
X149883947Y-97542309D01*
X149885000Y-97563750D01*
X149885000Y-98076250D01*
X149883947Y-98097691D01*
X149880797Y-98118926D01*
X149875581Y-98139750D01*
X149868349Y-98159962D01*
X149859170Y-98179368D01*
X149848134Y-98197781D01*
X149835346Y-98215024D01*
X149820930Y-98230930D01*
X149805024Y-98245346D01*
X149787781Y-98258134D01*
X149769368Y-98269170D01*
X149749962Y-98278349D01*
X149729750Y-98285581D01*
X149708926Y-98290797D01*
X149687691Y-98293947D01*
X149666250Y-98295000D01*
X149228750Y-98295000D01*
X149207309Y-98293947D01*
X149186074Y-98290797D01*
X149165250Y-98285581D01*
X149145038Y-98278349D01*
X149125632Y-98269170D01*
X149107219Y-98258134D01*
X149089976Y-98245346D01*
X149074070Y-98230930D01*
X149059654Y-98215024D01*
X149046866Y-98197781D01*
X149035830Y-98179368D01*
X149026651Y-98159962D01*
X149019419Y-98139750D01*
X149014203Y-98118926D01*
X149011053Y-98097691D01*
X149010000Y-98076250D01*
X149010000Y-97563750D01*
X149011053Y-97542309D01*
X149014203Y-97521074D01*
X149019419Y-97500250D01*
X149026651Y-97480038D01*
X149035830Y-97460632D01*
X149046866Y-97442219D01*
X149059654Y-97424976D01*
X149074070Y-97409070D01*
X149089976Y-97394654D01*
X149107219Y-97381866D01*
X149125632Y-97370830D01*
X149145038Y-97361651D01*
X149165250Y-97354419D01*
X149186074Y-97349203D01*
X149207309Y-97346053D01*
X149228750Y-97345000D01*
X149666250Y-97345000D01*
X149687691Y-97346053D01*
X149687691Y-97346053D01*
G37*
D12*
X149447500Y-97820000D03*
D11*
G36*
X148112691Y-97346053D02*
G01*
X148133926Y-97349203D01*
X148154750Y-97354419D01*
X148174962Y-97361651D01*
X148194368Y-97370830D01*
X148212781Y-97381866D01*
X148230024Y-97394654D01*
X148245930Y-97409070D01*
X148260346Y-97424976D01*
X148273134Y-97442219D01*
X148284170Y-97460632D01*
X148293349Y-97480038D01*
X148300581Y-97500250D01*
X148305797Y-97521074D01*
X148308947Y-97542309D01*
X148310000Y-97563750D01*
X148310000Y-98076250D01*
X148308947Y-98097691D01*
X148305797Y-98118926D01*
X148300581Y-98139750D01*
X148293349Y-98159962D01*
X148284170Y-98179368D01*
X148273134Y-98197781D01*
X148260346Y-98215024D01*
X148245930Y-98230930D01*
X148230024Y-98245346D01*
X148212781Y-98258134D01*
X148194368Y-98269170D01*
X148174962Y-98278349D01*
X148154750Y-98285581D01*
X148133926Y-98290797D01*
X148112691Y-98293947D01*
X148091250Y-98295000D01*
X147653750Y-98295000D01*
X147632309Y-98293947D01*
X147611074Y-98290797D01*
X147590250Y-98285581D01*
X147570038Y-98278349D01*
X147550632Y-98269170D01*
X147532219Y-98258134D01*
X147514976Y-98245346D01*
X147499070Y-98230930D01*
X147484654Y-98215024D01*
X147471866Y-98197781D01*
X147460830Y-98179368D01*
X147451651Y-98159962D01*
X147444419Y-98139750D01*
X147439203Y-98118926D01*
X147436053Y-98097691D01*
X147435000Y-98076250D01*
X147435000Y-97563750D01*
X147436053Y-97542309D01*
X147439203Y-97521074D01*
X147444419Y-97500250D01*
X147451651Y-97480038D01*
X147460830Y-97460632D01*
X147471866Y-97442219D01*
X147484654Y-97424976D01*
X147499070Y-97409070D01*
X147514976Y-97394654D01*
X147532219Y-97381866D01*
X147550632Y-97370830D01*
X147570038Y-97361651D01*
X147590250Y-97354419D01*
X147611074Y-97349203D01*
X147632309Y-97346053D01*
X147653750Y-97345000D01*
X148091250Y-97345000D01*
X148112691Y-97346053D01*
X148112691Y-97346053D01*
G37*
D12*
X147872500Y-97820000D03*
M02*
