G04 #@! TF.GenerationSoftware,KiCad,Pcbnew,(5.1.4)-1*
G04 #@! TF.CreationDate,2020-11-25T10:34:19+01:00*
G04 #@! TF.ProjectId,MonochromeVGA,4d6f6e6f-6368-4726-9f6d-655647412e6b,rev?*
G04 #@! TF.SameCoordinates,Original*
G04 #@! TF.FileFunction,Legend,Top*
G04 #@! TF.FilePolarity,Positive*
%FSLAX46Y46*%
G04 Gerber Fmt 4.6, Leading zero omitted, Abs format (unit mm)*
G04 Created by KiCad (PCBNEW (5.1.4)-1) date 2020-11-25 10:34:19*
%MOMM*%
%LPD*%
G04 APERTURE LIST*
%ADD10C,0.125000*%
%ADD11C,0.120000*%
%ADD12C,0.100000*%
%ADD13C,0.200000*%
%ADD14C,0.150000*%
%ADD15C,0.187500*%
G04 APERTURE END LIST*
D10*
X162152857Y-88282380D02*
X162152857Y-87282380D01*
X162486190Y-87996666D01*
X162819523Y-87282380D01*
X162819523Y-88282380D01*
X163438571Y-88282380D02*
X163343333Y-88234761D01*
X163295714Y-88187142D01*
X163248095Y-88091904D01*
X163248095Y-87806190D01*
X163295714Y-87710952D01*
X163343333Y-87663333D01*
X163438571Y-87615714D01*
X163581428Y-87615714D01*
X163676666Y-87663333D01*
X163724285Y-87710952D01*
X163771904Y-87806190D01*
X163771904Y-88091904D01*
X163724285Y-88187142D01*
X163676666Y-88234761D01*
X163581428Y-88282380D01*
X163438571Y-88282380D01*
X164200476Y-87615714D02*
X164200476Y-88282380D01*
X164200476Y-87710952D02*
X164248095Y-87663333D01*
X164343333Y-87615714D01*
X164486190Y-87615714D01*
X164581428Y-87663333D01*
X164629047Y-87758571D01*
X164629047Y-88282380D01*
X165248095Y-88282380D02*
X165152857Y-88234761D01*
X165105238Y-88187142D01*
X165057619Y-88091904D01*
X165057619Y-87806190D01*
X165105238Y-87710952D01*
X165152857Y-87663333D01*
X165248095Y-87615714D01*
X165390952Y-87615714D01*
X165486190Y-87663333D01*
X165533809Y-87710952D01*
X165581428Y-87806190D01*
X165581428Y-88091904D01*
X165533809Y-88187142D01*
X165486190Y-88234761D01*
X165390952Y-88282380D01*
X165248095Y-88282380D01*
X166438571Y-88234761D02*
X166343333Y-88282380D01*
X166152857Y-88282380D01*
X166057619Y-88234761D01*
X166010000Y-88187142D01*
X165962380Y-88091904D01*
X165962380Y-87806190D01*
X166010000Y-87710952D01*
X166057619Y-87663333D01*
X166152857Y-87615714D01*
X166343333Y-87615714D01*
X166438571Y-87663333D01*
X166867142Y-88282380D02*
X166867142Y-87282380D01*
X167295714Y-88282380D02*
X167295714Y-87758571D01*
X167248095Y-87663333D01*
X167152857Y-87615714D01*
X167010000Y-87615714D01*
X166914761Y-87663333D01*
X166867142Y-87710952D01*
X167771904Y-88282380D02*
X167771904Y-87615714D01*
X167771904Y-87806190D02*
X167819523Y-87710952D01*
X167867142Y-87663333D01*
X167962380Y-87615714D01*
X168057619Y-87615714D01*
X168533809Y-88282380D02*
X168438571Y-88234761D01*
X168390952Y-88187142D01*
X168343333Y-88091904D01*
X168343333Y-87806190D01*
X168390952Y-87710952D01*
X168438571Y-87663333D01*
X168533809Y-87615714D01*
X168676666Y-87615714D01*
X168771904Y-87663333D01*
X168819523Y-87710952D01*
X168867142Y-87806190D01*
X168867142Y-88091904D01*
X168819523Y-88187142D01*
X168771904Y-88234761D01*
X168676666Y-88282380D01*
X168533809Y-88282380D01*
X169295714Y-88282380D02*
X169295714Y-87615714D01*
X169295714Y-87710952D02*
X169343333Y-87663333D01*
X169438571Y-87615714D01*
X169581428Y-87615714D01*
X169676666Y-87663333D01*
X169724285Y-87758571D01*
X169724285Y-88282380D01*
X169724285Y-87758571D02*
X169771904Y-87663333D01*
X169867142Y-87615714D01*
X170010000Y-87615714D01*
X170105238Y-87663333D01*
X170152857Y-87758571D01*
X170152857Y-88282380D01*
X171010000Y-88234761D02*
X170914761Y-88282380D01*
X170724285Y-88282380D01*
X170629047Y-88234761D01*
X170581428Y-88139523D01*
X170581428Y-87758571D01*
X170629047Y-87663333D01*
X170724285Y-87615714D01*
X170914761Y-87615714D01*
X171010000Y-87663333D01*
X171057619Y-87758571D01*
X171057619Y-87853809D01*
X170581428Y-87949047D01*
X171343333Y-87282380D02*
X171676666Y-88282380D01*
X172010000Y-87282380D01*
X172867142Y-87330000D02*
X172771904Y-87282380D01*
X172629047Y-87282380D01*
X172486190Y-87330000D01*
X172390952Y-87425238D01*
X172343333Y-87520476D01*
X172295714Y-87710952D01*
X172295714Y-87853809D01*
X172343333Y-88044285D01*
X172390952Y-88139523D01*
X172486190Y-88234761D01*
X172629047Y-88282380D01*
X172724285Y-88282380D01*
X172867142Y-88234761D01*
X172914761Y-88187142D01*
X172914761Y-87853809D01*
X172724285Y-87853809D01*
X173295714Y-87996666D02*
X173771904Y-87996666D01*
X173200476Y-88282380D02*
X173533809Y-87282380D01*
X173867142Y-88282380D01*
X174914761Y-87377619D02*
X174962380Y-87330000D01*
X175057619Y-87282380D01*
X175295714Y-87282380D01*
X175390952Y-87330000D01*
X175438571Y-87377619D01*
X175486190Y-87472857D01*
X175486190Y-87568095D01*
X175438571Y-87710952D01*
X174867142Y-88282380D01*
X175486190Y-88282380D01*
X175914761Y-88187142D02*
X175962380Y-88234761D01*
X175914761Y-88282380D01*
X175867142Y-88234761D01*
X175914761Y-88187142D01*
X175914761Y-88282380D01*
X176581428Y-87282380D02*
X176676666Y-87282380D01*
X176771904Y-87330000D01*
X176819523Y-87377619D01*
X176867142Y-87472857D01*
X176914761Y-87663333D01*
X176914761Y-87901428D01*
X176867142Y-88091904D01*
X176819523Y-88187142D01*
X176771904Y-88234761D01*
X176676666Y-88282380D01*
X176581428Y-88282380D01*
X176486190Y-88234761D01*
X176438571Y-88187142D01*
X176390952Y-88091904D01*
X176343333Y-87901428D01*
X176343333Y-87663333D01*
X176390952Y-87472857D01*
X176438571Y-87377619D01*
X176486190Y-87330000D01*
X176581428Y-87282380D01*
D11*
X119260000Y-89750000D02*
X133150000Y-89750000D01*
X133150000Y-89750000D02*
X133150000Y-120720000D01*
X133150000Y-120720000D02*
X119260000Y-120720000D01*
X177730000Y-120650000D02*
X163840000Y-120650000D01*
X163840000Y-120650000D02*
X163840000Y-89680000D01*
X163840000Y-89680000D02*
X177730000Y-89680000D01*
X153600000Y-118970000D02*
X153600000Y-121210000D01*
X153600000Y-121210000D02*
X157840000Y-121210000D01*
X157840000Y-121210000D02*
X157840000Y-118970000D01*
X157840000Y-118970000D02*
X153600000Y-118970000D01*
X152950000Y-120090000D02*
X153600000Y-120090000D01*
X158490000Y-120090000D02*
X157840000Y-120090000D01*
D12*
X155685000Y-120440000D02*
X155685000Y-120640000D01*
X155410000Y-120640000D02*
X155685000Y-120640000D01*
X155135000Y-119540000D02*
X155135000Y-119740000D01*
X155135000Y-119540000D02*
X155410000Y-119540000D01*
X156010000Y-120090000D02*
X156510000Y-120090000D01*
X156010000Y-120490000D02*
X155410000Y-120090000D01*
X156010000Y-119690000D02*
X156010000Y-120490000D01*
X155410000Y-120090000D02*
X156010000Y-119690000D01*
X155410000Y-120090000D02*
X155410000Y-120640000D01*
X155410000Y-120090000D02*
X155410000Y-119540000D01*
X155010000Y-120090000D02*
X155410000Y-120090000D01*
D11*
X138420000Y-119000000D02*
X138420000Y-121240000D01*
X138420000Y-121240000D02*
X142660000Y-121240000D01*
X142660000Y-121240000D02*
X142660000Y-119000000D01*
X142660000Y-119000000D02*
X138420000Y-119000000D01*
X137770000Y-120120000D02*
X138420000Y-120120000D01*
X143310000Y-120120000D02*
X142660000Y-120120000D01*
D12*
X140495000Y-120440000D02*
X140495000Y-120640000D01*
X140220000Y-120640000D02*
X140495000Y-120640000D01*
X139945000Y-119540000D02*
X139945000Y-119740000D01*
X139945000Y-119540000D02*
X140220000Y-119540000D01*
X140820000Y-120090000D02*
X141320000Y-120090000D01*
X140820000Y-120490000D02*
X140220000Y-120090000D01*
X140820000Y-119690000D02*
X140820000Y-120490000D01*
X140220000Y-120090000D02*
X140820000Y-119690000D01*
X140220000Y-120090000D02*
X140220000Y-120640000D01*
X140220000Y-120090000D02*
X140220000Y-119540000D01*
X139820000Y-120090000D02*
X140220000Y-120090000D01*
X140515000Y-114570000D02*
X140515000Y-114770000D01*
X140240000Y-114770000D02*
X140515000Y-114770000D01*
X139965000Y-113670000D02*
X139965000Y-113870000D01*
X139965000Y-113670000D02*
X140240000Y-113670000D01*
X140840000Y-114220000D02*
X141340000Y-114220000D01*
X140840000Y-114620000D02*
X140240000Y-114220000D01*
X140840000Y-113820000D02*
X140840000Y-114620000D01*
X140240000Y-114220000D02*
X140840000Y-113820000D01*
X140240000Y-114220000D02*
X140240000Y-114770000D01*
X140240000Y-114220000D02*
X140240000Y-113670000D01*
X139840000Y-114220000D02*
X140240000Y-114220000D01*
D11*
X138370000Y-113100000D02*
X138370000Y-115340000D01*
X138370000Y-115340000D02*
X142610000Y-115340000D01*
X142610000Y-115340000D02*
X142610000Y-113100000D01*
X142610000Y-113100000D02*
X138370000Y-113100000D01*
X137720000Y-114220000D02*
X138370000Y-114220000D01*
X143260000Y-114220000D02*
X142610000Y-114220000D01*
X153580000Y-113130000D02*
X153580000Y-115370000D01*
X153580000Y-115370000D02*
X157820000Y-115370000D01*
X157820000Y-115370000D02*
X157820000Y-113130000D01*
X157820000Y-113130000D02*
X153580000Y-113130000D01*
X152930000Y-114250000D02*
X153580000Y-114250000D01*
X158470000Y-114250000D02*
X157820000Y-114250000D01*
D12*
X155645000Y-114550000D02*
X155645000Y-114750000D01*
X155370000Y-114750000D02*
X155645000Y-114750000D01*
X155095000Y-113650000D02*
X155095000Y-113850000D01*
X155095000Y-113650000D02*
X155370000Y-113650000D01*
X155970000Y-114200000D02*
X156470000Y-114200000D01*
X155970000Y-114600000D02*
X155370000Y-114200000D01*
X155970000Y-113800000D02*
X155970000Y-114600000D01*
X155370000Y-114200000D02*
X155970000Y-113800000D01*
X155370000Y-114200000D02*
X155370000Y-114750000D01*
X155370000Y-114200000D02*
X155370000Y-113650000D01*
X154970000Y-114200000D02*
X155370000Y-114200000D01*
D11*
X151675000Y-105826667D02*
X152945000Y-105826667D01*
X152875000Y-107180000D02*
X152875000Y-105826667D01*
X152755000Y-107180000D02*
X152755000Y-105826667D01*
X152635000Y-107180000D02*
X152635000Y-105826667D01*
X152515000Y-107180000D02*
X152515000Y-105826667D01*
X152395000Y-107180000D02*
X152395000Y-105826667D01*
X152275000Y-107180000D02*
X152275000Y-105826667D01*
X152155000Y-107180000D02*
X152155000Y-105826667D01*
X152035000Y-107180000D02*
X152035000Y-105826667D01*
X151915000Y-107180000D02*
X151915000Y-105826667D01*
X151795000Y-107180000D02*
X151795000Y-105826667D01*
X151675000Y-103120000D02*
X151675000Y-107180000D01*
X152945000Y-103120000D02*
X151675000Y-103120000D01*
X152945000Y-107180000D02*
X152945000Y-103120000D01*
X151675000Y-107180000D02*
X152945000Y-107180000D01*
X149135000Y-105826667D02*
X150405000Y-105826667D01*
X150335000Y-107180000D02*
X150335000Y-105826667D01*
X150215000Y-107180000D02*
X150215000Y-105826667D01*
X150095000Y-107180000D02*
X150095000Y-105826667D01*
X149975000Y-107180000D02*
X149975000Y-105826667D01*
X149855000Y-107180000D02*
X149855000Y-105826667D01*
X149735000Y-107180000D02*
X149735000Y-105826667D01*
X149615000Y-107180000D02*
X149615000Y-105826667D01*
X149495000Y-107180000D02*
X149495000Y-105826667D01*
X149375000Y-107180000D02*
X149375000Y-105826667D01*
X149255000Y-107180000D02*
X149255000Y-105826667D01*
X149135000Y-103120000D02*
X149135000Y-107180000D01*
X150405000Y-103120000D02*
X149135000Y-103120000D01*
X150405000Y-107180000D02*
X150405000Y-103120000D01*
X149135000Y-107180000D02*
X150405000Y-107180000D01*
X146595000Y-105826667D02*
X147865000Y-105826667D01*
X147795000Y-107180000D02*
X147795000Y-105826667D01*
X147675000Y-107180000D02*
X147675000Y-105826667D01*
X147555000Y-107180000D02*
X147555000Y-105826667D01*
X147435000Y-107180000D02*
X147435000Y-105826667D01*
X147315000Y-107180000D02*
X147315000Y-105826667D01*
X147195000Y-107180000D02*
X147195000Y-105826667D01*
X147075000Y-107180000D02*
X147075000Y-105826667D01*
X146955000Y-107180000D02*
X146955000Y-105826667D01*
X146835000Y-107180000D02*
X146835000Y-105826667D01*
X146715000Y-107180000D02*
X146715000Y-105826667D01*
X146595000Y-103120000D02*
X146595000Y-107180000D01*
X147865000Y-103120000D02*
X146595000Y-103120000D01*
X147865000Y-107180000D02*
X147865000Y-103120000D01*
X146595000Y-107180000D02*
X147865000Y-107180000D01*
X144055000Y-105826667D02*
X145325000Y-105826667D01*
X145255000Y-107180000D02*
X145255000Y-105826667D01*
X145135000Y-107180000D02*
X145135000Y-105826667D01*
X145015000Y-107180000D02*
X145015000Y-105826667D01*
X144895000Y-107180000D02*
X144895000Y-105826667D01*
X144775000Y-107180000D02*
X144775000Y-105826667D01*
X144655000Y-107180000D02*
X144655000Y-105826667D01*
X144535000Y-107180000D02*
X144535000Y-105826667D01*
X144415000Y-107180000D02*
X144415000Y-105826667D01*
X144295000Y-107180000D02*
X144295000Y-105826667D01*
X144175000Y-107180000D02*
X144175000Y-105826667D01*
X144055000Y-103120000D02*
X144055000Y-107180000D01*
X145325000Y-103120000D02*
X144055000Y-103120000D01*
X145325000Y-107180000D02*
X145325000Y-103120000D01*
X144055000Y-107180000D02*
X145325000Y-107180000D01*
X142030000Y-110340000D02*
X143413000Y-110340000D01*
X142030000Y-110340000D02*
X142030000Y-108956000D01*
X142270000Y-100200000D02*
X154730000Y-100200000D01*
X142270000Y-110100000D02*
X154730000Y-110100000D01*
X154730000Y-110100000D02*
X154730000Y-100200000D01*
X142270000Y-110100000D02*
X142270000Y-100200000D01*
D13*
X154073000Y-94050000D02*
X141620000Y-94050000D01*
X141620000Y-94050000D02*
X141620000Y-89376000D01*
X156620000Y-87750000D02*
X144167000Y-87750000D01*
X156620000Y-92424000D02*
X156620000Y-87750000D01*
D11*
X158210000Y-105662779D02*
X158210000Y-105337221D01*
X157190000Y-105662779D02*
X157190000Y-105337221D01*
X156747221Y-98430000D02*
X157072779Y-98430000D01*
X156747221Y-97410000D02*
X157072779Y-97410000D01*
X140097221Y-98330000D02*
X140422779Y-98330000D01*
X140097221Y-97310000D02*
X140422779Y-97310000D01*
X148497221Y-98330000D02*
X148822779Y-98330000D01*
X148497221Y-97310000D02*
X148822779Y-97310000D01*
X158610000Y-107410000D02*
X158610000Y-103570000D01*
X156770000Y-107410000D02*
X156770000Y-103570000D01*
X154990000Y-98790000D02*
X158830000Y-98790000D01*
X154990000Y-96950000D02*
X158830000Y-96950000D01*
X138410000Y-98760000D02*
X142250000Y-98760000D01*
X138410000Y-96920000D02*
X142250000Y-96920000D01*
X146760000Y-98760000D02*
X150600000Y-98760000D01*
X146760000Y-96920000D02*
X150600000Y-96920000D01*
D14*
X123195238Y-121742380D02*
X123528571Y-122742380D01*
X123861904Y-121742380D01*
X124719047Y-121790000D02*
X124623809Y-121742380D01*
X124480952Y-121742380D01*
X124338095Y-121790000D01*
X124242857Y-121885238D01*
X124195238Y-121980476D01*
X124147619Y-122170952D01*
X124147619Y-122313809D01*
X124195238Y-122504285D01*
X124242857Y-122599523D01*
X124338095Y-122694761D01*
X124480952Y-122742380D01*
X124576190Y-122742380D01*
X124719047Y-122694761D01*
X124766666Y-122647142D01*
X124766666Y-122313809D01*
X124576190Y-122313809D01*
X125147619Y-122456666D02*
X125623809Y-122456666D01*
X125052380Y-122742380D02*
X125385714Y-121742380D01*
X125719047Y-122742380D01*
X126814285Y-122742380D02*
X126814285Y-121742380D01*
X127290476Y-122742380D02*
X127290476Y-121742380D01*
X127861904Y-122742380D01*
X127861904Y-121742380D01*
X168568571Y-121742380D02*
X168901904Y-122742380D01*
X169235238Y-121742380D01*
X170092380Y-121790000D02*
X169997142Y-121742380D01*
X169854285Y-121742380D01*
X169711428Y-121790000D01*
X169616190Y-121885238D01*
X169568571Y-121980476D01*
X169520952Y-122170952D01*
X169520952Y-122313809D01*
X169568571Y-122504285D01*
X169616190Y-122599523D01*
X169711428Y-122694761D01*
X169854285Y-122742380D01*
X169949523Y-122742380D01*
X170092380Y-122694761D01*
X170140000Y-122647142D01*
X170140000Y-122313809D01*
X169949523Y-122313809D01*
X170520952Y-122456666D02*
X170997142Y-122456666D01*
X170425714Y-122742380D02*
X170759047Y-121742380D01*
X171092380Y-122742380D01*
X172378095Y-121742380D02*
X172568571Y-121742380D01*
X172663809Y-121790000D01*
X172759047Y-121885238D01*
X172806666Y-122075714D01*
X172806666Y-122409047D01*
X172759047Y-122599523D01*
X172663809Y-122694761D01*
X172568571Y-122742380D01*
X172378095Y-122742380D01*
X172282857Y-122694761D01*
X172187619Y-122599523D01*
X172140000Y-122409047D01*
X172140000Y-122075714D01*
X172187619Y-121885238D01*
X172282857Y-121790000D01*
X172378095Y-121742380D01*
X173235238Y-121742380D02*
X173235238Y-122551904D01*
X173282857Y-122647142D01*
X173330476Y-122694761D01*
X173425714Y-122742380D01*
X173616190Y-122742380D01*
X173711428Y-122694761D01*
X173759047Y-122647142D01*
X173806666Y-122551904D01*
X173806666Y-121742380D01*
X174140000Y-121742380D02*
X174711428Y-121742380D01*
X174425714Y-122742380D02*
X174425714Y-121742380D01*
D15*
X143847857Y-91269285D02*
X143847857Y-90519285D01*
X144097857Y-91055000D01*
X144347857Y-90519285D01*
X144347857Y-91269285D01*
X144847857Y-90519285D02*
X144990714Y-90519285D01*
X145062142Y-90555000D01*
X145133571Y-90626428D01*
X145169285Y-90769285D01*
X145169285Y-91019285D01*
X145133571Y-91162142D01*
X145062142Y-91233571D01*
X144990714Y-91269285D01*
X144847857Y-91269285D01*
X144776428Y-91233571D01*
X144705000Y-91162142D01*
X144669285Y-91019285D01*
X144669285Y-90769285D01*
X144705000Y-90626428D01*
X144776428Y-90555000D01*
X144847857Y-90519285D01*
X145490714Y-91269285D02*
X145490714Y-90519285D01*
X145919285Y-91269285D01*
X145919285Y-90519285D01*
X146419285Y-90519285D02*
X146562142Y-90519285D01*
X146633571Y-90555000D01*
X146705000Y-90626428D01*
X146740714Y-90769285D01*
X146740714Y-91019285D01*
X146705000Y-91162142D01*
X146633571Y-91233571D01*
X146562142Y-91269285D01*
X146419285Y-91269285D01*
X146347857Y-91233571D01*
X146276428Y-91162142D01*
X146240714Y-91019285D01*
X146240714Y-90769285D01*
X146276428Y-90626428D01*
X146347857Y-90555000D01*
X146419285Y-90519285D01*
X148205000Y-90769285D02*
X147633571Y-90983571D01*
X148205000Y-91197857D01*
X148562142Y-90983571D02*
X149133571Y-90983571D01*
X149490714Y-90769285D02*
X150062142Y-90983571D01*
X149490714Y-91197857D01*
X151419285Y-91197857D02*
X151383571Y-91233571D01*
X151276428Y-91269285D01*
X151205000Y-91269285D01*
X151097857Y-91233571D01*
X151026428Y-91162142D01*
X150990714Y-91090714D01*
X150955000Y-90947857D01*
X150955000Y-90840714D01*
X150990714Y-90697857D01*
X151026428Y-90626428D01*
X151097857Y-90555000D01*
X151205000Y-90519285D01*
X151276428Y-90519285D01*
X151383571Y-90555000D01*
X151419285Y-90590714D01*
X151883571Y-90519285D02*
X152026428Y-90519285D01*
X152097857Y-90555000D01*
X152169285Y-90626428D01*
X152205000Y-90769285D01*
X152205000Y-91019285D01*
X152169285Y-91162142D01*
X152097857Y-91233571D01*
X152026428Y-91269285D01*
X151883571Y-91269285D01*
X151812142Y-91233571D01*
X151740714Y-91162142D01*
X151705000Y-91019285D01*
X151705000Y-90769285D01*
X151740714Y-90626428D01*
X151812142Y-90555000D01*
X151883571Y-90519285D01*
X152883571Y-91269285D02*
X152526428Y-91269285D01*
X152526428Y-90519285D01*
X153276428Y-90519285D02*
X153419285Y-90519285D01*
X153490714Y-90555000D01*
X153562142Y-90626428D01*
X153597857Y-90769285D01*
X153597857Y-91019285D01*
X153562142Y-91162142D01*
X153490714Y-91233571D01*
X153419285Y-91269285D01*
X153276428Y-91269285D01*
X153205000Y-91233571D01*
X153133571Y-91162142D01*
X153097857Y-91019285D01*
X153097857Y-90769285D01*
X153133571Y-90626428D01*
X153205000Y-90555000D01*
X153276428Y-90519285D01*
X154347857Y-91269285D02*
X154097857Y-90912142D01*
X153919285Y-91269285D02*
X153919285Y-90519285D01*
X154205000Y-90519285D01*
X154276428Y-90555000D01*
X154312142Y-90590714D01*
X154347857Y-90662142D01*
X154347857Y-90769285D01*
X154312142Y-90840714D01*
X154276428Y-90876428D01*
X154205000Y-90912142D01*
X153919285Y-90912142D01*
D14*
X158912380Y-106779523D02*
X158912380Y-106112857D01*
X159912380Y-106541428D01*
X158912380Y-105255714D02*
X158912380Y-105731904D01*
X159388571Y-105779523D01*
X159340952Y-105731904D01*
X159293333Y-105636666D01*
X159293333Y-105398571D01*
X159340952Y-105303333D01*
X159388571Y-105255714D01*
X159483809Y-105208095D01*
X159721904Y-105208095D01*
X159817142Y-105255714D01*
X159864761Y-105303333D01*
X159912380Y-105398571D01*
X159912380Y-105636666D01*
X159864761Y-105731904D01*
X159817142Y-105779523D01*
X159912380Y-104208095D02*
X159436190Y-104541428D01*
X159912380Y-104779523D02*
X158912380Y-104779523D01*
X158912380Y-104398571D01*
X158960000Y-104303333D01*
X159007619Y-104255714D01*
X159102857Y-104208095D01*
X159245714Y-104208095D01*
X159340952Y-104255714D01*
X159388571Y-104303333D01*
X159436190Y-104398571D01*
X159436190Y-104779523D01*
X155783333Y-96572380D02*
X155211904Y-96572380D01*
X155497619Y-96572380D02*
X155497619Y-95572380D01*
X155402380Y-95715238D01*
X155307142Y-95810476D01*
X155211904Y-95858095D01*
X156402380Y-95572380D02*
X156497619Y-95572380D01*
X156592857Y-95620000D01*
X156640476Y-95667619D01*
X156688095Y-95762857D01*
X156735714Y-95953333D01*
X156735714Y-96191428D01*
X156688095Y-96381904D01*
X156640476Y-96477142D01*
X156592857Y-96524761D01*
X156497619Y-96572380D01*
X156402380Y-96572380D01*
X156307142Y-96524761D01*
X156259523Y-96477142D01*
X156211904Y-96381904D01*
X156164285Y-96191428D01*
X156164285Y-95953333D01*
X156211904Y-95762857D01*
X156259523Y-95667619D01*
X156307142Y-95620000D01*
X156402380Y-95572380D01*
X157354761Y-95572380D02*
X157450000Y-95572380D01*
X157545238Y-95620000D01*
X157592857Y-95667619D01*
X157640476Y-95762857D01*
X157688095Y-95953333D01*
X157688095Y-96191428D01*
X157640476Y-96381904D01*
X157592857Y-96477142D01*
X157545238Y-96524761D01*
X157450000Y-96572380D01*
X157354761Y-96572380D01*
X157259523Y-96524761D01*
X157211904Y-96477142D01*
X157164285Y-96381904D01*
X157116666Y-96191428D01*
X157116666Y-95953333D01*
X157164285Y-95762857D01*
X157211904Y-95667619D01*
X157259523Y-95620000D01*
X157354761Y-95572380D01*
X158688095Y-96572380D02*
X158354761Y-96096190D01*
X158116666Y-96572380D02*
X158116666Y-95572380D01*
X158497619Y-95572380D01*
X158592857Y-95620000D01*
X158640476Y-95667619D01*
X158688095Y-95762857D01*
X158688095Y-95905714D01*
X158640476Y-96000952D01*
X158592857Y-96048571D01*
X158497619Y-96096190D01*
X158116666Y-96096190D01*
X138885238Y-96582380D02*
X139075714Y-96582380D01*
X139170952Y-96534761D01*
X139218571Y-96487142D01*
X139313809Y-96344285D01*
X139361428Y-96153809D01*
X139361428Y-95772857D01*
X139313809Y-95677619D01*
X139266190Y-95630000D01*
X139170952Y-95582380D01*
X138980476Y-95582380D01*
X138885238Y-95630000D01*
X138837619Y-95677619D01*
X138790000Y-95772857D01*
X138790000Y-96010952D01*
X138837619Y-96106190D01*
X138885238Y-96153809D01*
X138980476Y-96201428D01*
X139170952Y-96201428D01*
X139266190Y-96153809D01*
X139313809Y-96106190D01*
X139361428Y-96010952D01*
X139790000Y-96487142D02*
X139837619Y-96534761D01*
X139790000Y-96582380D01*
X139742380Y-96534761D01*
X139790000Y-96487142D01*
X139790000Y-96582380D01*
X140790000Y-96582380D02*
X140218571Y-96582380D01*
X140504285Y-96582380D02*
X140504285Y-95582380D01*
X140409047Y-95725238D01*
X140313809Y-95820476D01*
X140218571Y-95868095D01*
X141790000Y-96582380D02*
X141456666Y-96106190D01*
X141218571Y-96582380D02*
X141218571Y-95582380D01*
X141599523Y-95582380D01*
X141694761Y-95630000D01*
X141742380Y-95677619D01*
X141790000Y-95772857D01*
X141790000Y-95915714D01*
X141742380Y-96010952D01*
X141694761Y-96058571D01*
X141599523Y-96106190D01*
X141218571Y-96106190D01*
X147360476Y-95552380D02*
X147979523Y-95552380D01*
X147646190Y-95933333D01*
X147789047Y-95933333D01*
X147884285Y-95980952D01*
X147931904Y-96028571D01*
X147979523Y-96123809D01*
X147979523Y-96361904D01*
X147931904Y-96457142D01*
X147884285Y-96504761D01*
X147789047Y-96552380D01*
X147503333Y-96552380D01*
X147408095Y-96504761D01*
X147360476Y-96457142D01*
X148312857Y-95552380D02*
X148931904Y-95552380D01*
X148598571Y-95933333D01*
X148741428Y-95933333D01*
X148836666Y-95980952D01*
X148884285Y-96028571D01*
X148931904Y-96123809D01*
X148931904Y-96361904D01*
X148884285Y-96457142D01*
X148836666Y-96504761D01*
X148741428Y-96552380D01*
X148455714Y-96552380D01*
X148360476Y-96504761D01*
X148312857Y-96457142D01*
X149931904Y-96552380D02*
X149598571Y-96076190D01*
X149360476Y-96552380D02*
X149360476Y-95552380D01*
X149741428Y-95552380D01*
X149836666Y-95600000D01*
X149884285Y-95647619D01*
X149931904Y-95742857D01*
X149931904Y-95885714D01*
X149884285Y-95980952D01*
X149836666Y-96028571D01*
X149741428Y-96076190D01*
X149360476Y-96076190D01*
M02*
